<svg width="10" height="10" viewBox="0 0 10 10" fill="none" xmlns="http://www.w3.org/2000/svg">
<g id="logo" clip-path="url(#clip0_662_8573)">
<path id="Vector 726" d="M8.8 1.20001L7.10295 2.89707L8.8 4.59412" stroke="#353F9B" stroke-width="1.6" stroke-linecap="round" stroke-linejoin="round"/>
<path id="Vector 728 (Stroke)" fill-rule="evenodd" clip-rule="evenodd" d="M0 3.00001C0 2.55818 0.358172 2.20001 0.8 2.20001H2.8C3.01561 2.20001 3.22209 2.28704 3.37265 2.44138C3.52321 2.59572 3.6051 2.80429 3.59975 3.01984L3.53735 3.01829C3.59975 3.01984 3.59975 3.01983 3.59975 3.01984L3.59706 3.13521C3.59539 3.20971 3.59306 3.31723 3.59047 3.44892C3.58529 3.71242 3.57909 4.072 3.57495 4.45688C3.56649 5.24469 3.56764 6.08338 3.59742 6.45302C3.62083 6.74369 3.74871 7.20725 4.03686 7.57831C4.30008 7.91728 4.7077 8.20001 5.4 8.20001C6.0923 8.20001 6.49992 7.91728 6.76314 7.57831C7.05129 7.20725 7.17917 6.74369 7.20258 6.45302C7.23806 6.01262 7.62383 5.68436 8.06424 5.71984C8.50464 5.75531 8.83289 6.14109 8.79742 6.58149C8.75417 7.1184 8.54205 7.89622 8.02686 8.55965C7.48675 9.25516 6.6277 9.80001 5.4 9.80001C4.1723 9.80001 3.31325 9.25516 2.77314 8.55965C2.25795 7.89622 2.04583 7.1184 2.00258 6.58149C1.96569 6.12354 1.96684 5.20361 1.97505 4.4397C1.97748 4.21293 1.98062 3.99506 1.98385 3.80001H0.8C0.358172 3.80001 0 3.44184 0 3.00001Z" fill="#353F9B"/>
<rect id="Rectangle 6" x="2" y="0.600006" width="1.6" height="3.2" rx="0.8" fill="#353F9B"/>
</g>
<defs>
<clipPath id="clip0_662_8573">
<rect width="9.6" height="9.6" fill="white" transform="translate(0 0.200012)"/>
</clipPath>
</defs>
</svg>
