<svg width="16" height="16" viewBox="0 0 16 16" fill="none" xmlns="http://www.w3.org/2000/svg">
<path fill-rule="evenodd" clip-rule="evenodd" d="M12.9262 4.1689C12.9966 4.22926 13.0545 4.30291 13.0964 4.38563C13.1384 4.46836 13.1636 4.55854 13.1707 4.65102C13.1778 4.7435 13.1665 4.83648 13.1377 4.92462C13.1088 5.01277 13.0629 5.09436 13.0024 5.16474L7.35494 11.7535C7.29162 11.8274 7.21372 11.8873 7.12612 11.9297C7.03852 11.972 6.94311 11.9958 6.84589 11.9995C6.74867 12.0032 6.65173 11.9868 6.56116 11.9512C6.47058 11.9157 6.38833 11.8618 6.31957 11.793L3.0252 8.49865C2.89667 8.36544 2.82559 8.18709 2.82729 8.002C2.82898 7.8169 2.90331 7.63988 3.03426 7.50905C3.16521 7.37823 3.3423 7.30407 3.5274 7.30255C3.71249 7.30103 3.89078 7.37227 4.02386 7.50092L6.77984 10.256L11.9313 4.24608C12.0532 4.10413 12.2264 4.01636 12.413 4.00207C12.5995 3.98777 12.7841 4.04717 12.9262 4.1689Z" fill="#525866"/>
</svg>
