<svg width="16" height="16" viewBox="0 0 16 16" fill="none" xmlns="http://www.w3.org/2000/svg">
<g clip-path="url(#clip0_373_2541)">
<path d="M15.3298 11.6882C14.8961 10.9528 14.2515 8.87192 14.2515 6.15411C14.2515 4.52194 13.5929 2.95662 12.4206 1.8025C11.2483 0.648378 9.65828 0 8.00039 0C6.3425 0 4.75251 0.648378 3.58021 1.8025C2.4079 2.95662 1.74931 4.52194 1.74931 6.15411C1.74931 8.87269 1.10389 10.9528 0.670218 11.6882C0.559472 11.8752 0.500762 12.0876 0.500007 12.304C0.499253 12.5204 0.55648 12.7332 0.665919 12.9209C0.775358 13.1086 0.933138 13.2646 1.12335 13.3731C1.31356 13.4817 1.52947 13.5389 1.74931 13.539H4.93814C5.08236 14.2338 5.46591 14.8582 6.0239 15.3066C6.5819 15.7551 7.28009 16 8.00039 16C8.72069 16 9.41888 15.7551 9.97688 15.3066C10.5349 14.8582 10.9184 14.2338 11.0626 13.539H14.2515C14.4712 13.5388 14.6871 13.4814 14.8772 13.3729C15.0673 13.2643 15.2249 13.1083 15.3343 12.9206C15.4436 12.7329 15.5008 12.5202 15.5 12.3038C15.4992 12.0874 15.4405 11.8751 15.3298 11.6882ZM8.00039 14.7699C7.61268 14.7698 7.23454 14.6513 6.91801 14.4309C6.60149 14.2105 6.36213 13.8989 6.2329 13.539H9.76788C9.63865 13.8989 9.39929 14.2105 9.08277 14.4309C8.76624 14.6513 8.3881 14.7698 8.00039 14.7699ZM1.74931 12.3082C2.35098 11.2897 2.99953 8.92962 2.99953 6.15411C2.99953 4.84837 3.5264 3.59612 4.46425 2.67282C5.40209 1.74952 6.67408 1.23082 8.00039 1.23082C9.3267 1.23082 10.5987 1.74952 11.5365 2.67282C12.4744 3.59612 13.0013 4.84837 13.0013 6.15411C13.0013 8.92731 13.6482 11.2874 14.2515 12.3082H1.74931Z" fill="#525866"/>
<circle cx="14" cy="3.5" r="2.5" fill="#FE4F60" stroke="white" stroke-width="2"/>
</g>
<defs>
<clipPath id="clip0_373_2541">
<rect width="16" height="16" fill="white"/>
</clipPath>
</defs>
</svg>
