<svg width="20" height="20" viewBox="0 0 20 20" fill="none" xmlns="http://www.w3.org/2000/svg">
<path d="M2.94688 5.44052L2.9469 5.44032C2.98108 5.07521 3.14086 4.72877 3.40476 4.45728C3.66699 4.18751 4.01715 4.00738 4.40125 3.94893L4.52174 3.93523L8.50776 3.5839C8.50777 3.5839 8.50777 3.5839 8.50778 3.5839C8.74356 3.56312 8.98106 3.58889 9.20569 3.65937C9.4274 3.72893 9.63133 3.84039 9.80585 3.98627L9.9063 4.07707L15.9222 9.90383C15.9222 9.90383 15.9222 9.90384 15.9222 9.90384C16.2313 10.2033 16.408 10.6017 16.4222 11.0171C16.4362 11.4296 16.2892 11.8349 16.0057 12.1516L15.9155 12.2448L11.5663 16.4568C11.2565 16.7567 10.8371 16.9343 10.392 16.9485C9.94993 16.9626 9.52155 16.8142 9.19221 16.5378L9.09589 16.4503L3.07798 10.6231C3.07798 10.6231 3.07797 10.6231 3.07797 10.6231C2.91331 10.4636 2.78479 10.2746 2.69915 10.0679C2.61464 9.86393 2.57334 9.64636 2.57717 9.42777L2.58447 9.29601L2.94688 5.44052Z" stroke="#525866" stroke-width="1.15385"/>
</svg>
