<svg width="40" height="40" viewBox="0 0 40 40" fill="none" xmlns="http://www.w3.org/2000/svg">
<path d="M24.6667 20.6667H15.3333C14.6 20.6667 14 21.2667 14 22V24.6667C14 25.4 14.6 26 15.3333 26H24.6667C25.4 26 26 25.4 26 24.6667V22C26 21.2667 25.4 20.6667 24.6667 20.6667ZM24.6667 24.6667H15.3333V22H24.6667V24.6667Z" fill="#525866"/>
<path d="M24.6667 14H15.3333C14.6 14 14 14.6 14 15.3333V18C14 18.7333 14.6 19.3333 15.3333 19.3333H20H24.6667C25.4 19.3333 26 18.7333 26 18V15.3333C26 14.6 25.4 14 24.6667 14ZM24.6667 18H15.3333V15.3333H24.6667V18Z" fill="#525866"/>
</svg>
