<svg width="20" height="20" viewBox="0 0 20 20" fill="none" xmlns="http://www.w3.org/2000/svg">
<path d="M16.125 8.36666C15.5583 5.49166 13.0333 3.33333 10 3.33333C7.59167 3.33333 5.5 4.69999 4.45833 6.69999C1.95 6.96666 0 9.09166 0 11.6667C0 14.425 2.24167 16.6667 5 16.6667H15.8333C18.1333 16.6667 20 14.8 20 12.5C20 10.3 18.2917 8.51666 16.125 8.36666ZM15.8333 15H5C3.15833 15 1.66667 13.5083 1.66667 11.6667C1.66667 9.95833 2.94167 8.53333 4.63333 8.35833L5.525 8.26666L5.94167 7.475C6.73333 5.95 8.28333 4.99999 10 4.99999C12.1833 4.99999 14.0667 6.55 14.4917 8.69166L14.7417 9.94166L16.0167 10.0333C17.3167 10.1167 18.3333 11.2083 18.3333 12.5C18.3333 13.875 17.2083 15 15.8333 15ZM6.66667 10.8333H8.79167V13.3333H11.2083V10.8333H13.3333L10 7.49999L6.66667 10.8333Z" fill="#525866"/>
</svg>
