<svg width="16" height="16" viewBox="0 0 16 16" fill="none" xmlns="http://www.w3.org/2000/svg">
<path fill-rule="evenodd" clip-rule="evenodd" d="M12.9261 4.1689C12.9965 4.22926 13.0544 4.30291 13.0963 4.38563C13.1383 4.46836 13.1635 4.55854 13.1706 4.65102C13.1777 4.7435 13.1664 4.83648 13.1376 4.92462C13.1087 5.01277 13.0627 5.09436 13.0023 5.16474L7.35483 11.7535C7.29151 11.8274 7.21361 11.8873 7.12601 11.9297C7.03841 11.972 6.943 11.9958 6.84578 11.9995C6.74856 12.0032 6.65162 11.9868 6.56105 11.9512C6.47047 11.9157 6.38822 11.8618 6.31946 11.793L3.02509 8.49865C2.89655 8.36544 2.82548 8.18709 2.82718 8.002C2.82887 7.8169 2.9032 7.63988 3.03415 7.50905C3.1651 7.37823 3.34219 7.30407 3.52729 7.30255C3.71238 7.30103 3.89067 7.37227 4.02375 7.50092L6.77973 10.256L11.9312 4.24608C12.0531 4.10413 12.2263 4.01636 12.4129 4.00207C12.5994 3.98777 12.784 4.04717 12.9261 4.1689Z" fill="#6D77FF"/>
</svg>
