<svg width="12" height="8" viewBox="0 0 12 8" fill="none" xmlns="http://www.w3.org/2000/svg">
<path id="check" fill-rule="evenodd" clip-rule="evenodd" d="M10.9261 0.1689C10.9965 0.22926 11.0544 0.302907 11.0963 0.385632C11.1383 0.468357 11.1635 0.558538 11.1706 0.651021C11.1777 0.743505 11.1664 0.836477 11.1376 0.924624C11.1087 1.01277 11.0627 1.09436 11.0023 1.16474L5.35483 7.75349C5.29151 7.82735 5.21361 7.88734 5.12601 7.92967C5.03841 7.97201 4.943 7.99577 4.84578 7.99949C4.74856 8.0032 4.65162 7.98677 4.56105 7.95124C4.47047 7.91571 4.38822 7.86184 4.31946 7.79302L1.02509 4.49865C0.896555 4.36544 0.825483 4.18709 0.827178 4.002C0.828873 3.8169 0.903199 3.63988 1.03415 3.50905C1.1651 3.37823 1.34219 3.30407 1.52729 3.30255C1.71238 3.30103 1.89067 3.37227 2.02375 3.50092L4.77973 6.25596L9.93118 0.246083C10.0531 0.104128 10.2263 0.016361 10.4129 0.00206531C10.5994 -0.0122304 10.784 0.0471731 10.9261 0.1689Z" fill="#1FC16B"/>
</svg>
