<svg width="40" height="40" viewBox="0 0 40 40" fill="none" xmlns="http://www.w3.org/2000/svg">
<path d="M28.4999 24.6946L21.6678 12.8297C21.4971 12.5391 21.2534 12.298 20.9608 12.1306C20.6682 11.9631 20.337 11.875 19.9999 11.875C19.6628 11.875 19.3315 11.9631 19.0389 12.1306C18.7463 12.298 18.5026 12.5391 18.3319 12.8297L11.4999 24.6946C11.3356 24.9757 11.249 25.2955 11.249 25.6211C11.249 25.9468 11.3356 26.2665 11.4999 26.5477C11.6684 26.8401 11.9117 27.0825 12.2048 27.2498C12.4979 27.4172 12.8303 27.5036 13.1678 27.5001H26.8319C27.1691 27.5033 27.5012 27.4168 27.794 27.2494C28.0868 27.0821 28.3299 26.8399 28.4983 26.5477C28.6628 26.2667 28.7496 25.947 28.7499 25.6214C28.7502 25.2957 28.6639 24.9759 28.4999 24.6946ZM19.3749 18.1251C19.3749 17.9593 19.4407 17.8003 19.5579 17.6831C19.6751 17.5659 19.8341 17.5001 19.9999 17.5001C20.1656 17.5001 20.3246 17.5659 20.4418 17.6831C20.559 17.8003 20.6249 17.9593 20.6249 18.1251V21.2501C20.6249 21.4158 20.559 21.5748 20.4418 21.692C20.3246 21.8092 20.1656 21.8751 19.9999 21.8751C19.8341 21.8751 19.6751 21.8092 19.5579 21.692C19.4407 21.5748 19.3749 21.4158 19.3749 21.2501V18.1251ZM19.9999 25.0001C19.8144 25.0001 19.6332 24.9451 19.479 24.8421C19.3248 24.739 19.2047 24.5926 19.1337 24.4213C19.0628 24.25 19.0442 24.0615 19.0804 23.8797C19.1165 23.6978 19.2058 23.5308 19.3369 23.3996C19.4681 23.2685 19.6351 23.1792 19.817 23.1431C19.9988 23.1069 20.1873 23.1255 20.3586 23.1964C20.5299 23.2674 20.6763 23.3875 20.7794 23.5417C20.8824 23.6959 20.9374 23.8771 20.9374 24.0626C20.9374 24.3112 20.8386 24.5496 20.6628 24.7255C20.487 24.9013 20.2485 25.0001 19.9999 25.0001Z" fill="#525866"/>
</svg>
