<svg width="244" height="140" viewBox="0 0 244 140" fill="none" xmlns="http://www.w3.org/2000/svg">
<rect width="243.5" height="140" fill="#EDF0FD"/>
<g clip-path="url(#clip0_715_3000)">
<path fill-rule="evenodd" clip-rule="evenodd" d="M89.1846 53.9946C91.0123 53.9946 92.494 55.4763 92.494 57.3041V61.4408C92.494 61.4843 92.4931 61.5278 92.4914 61.5712L92.4886 61.6443L92.4806 61.8649C92.4738 62.0579 92.4643 62.3387 92.4537 62.687C92.4325 63.3843 92.4071 64.3484 92.3902 65.4161C92.3556 67.5976 92.3597 70.0545 92.4833 71.5884C92.5802 72.7908 93.1092 74.7085 94.3012 76.2435C95.3901 77.6457 97.0763 78.8153 99.9402 78.8153C102.804 78.8153 104.49 77.6457 105.579 76.2435C106.771 74.7085 107.3 72.7908 107.397 71.5884C107.544 69.7666 109.14 68.4086 110.962 68.5554C112.783 68.7021 114.141 70.298 113.995 72.1199C113.816 74.341 112.938 77.5586 110.807 80.3031C108.573 83.1803 105.019 85.4342 99.9402 85.4342C94.8615 85.4342 91.3078 83.1803 89.0735 80.3031C86.9422 77.5586 86.0647 74.341 85.8858 72.1199C85.7336 70.2302 85.7378 67.4804 85.7721 65.3112C85.7751 65.1207 85.7784 64.9334 85.7819 64.7503H80.911C79.0832 64.7503 77.6016 63.2686 77.6016 61.4408C77.6016 59.6131 79.0832 58.1314 80.911 58.1314H85.8751V57.3041C85.8751 55.4763 87.3568 53.9946 89.1846 53.9946Z" fill="white"/>
<path fill-rule="evenodd" clip-rule="evenodd" d="M148.594 55.0301C149.886 56.3225 149.886 58.4179 148.594 59.7103L138.608 69.6958L148.594 79.6814C149.886 80.9738 149.886 83.0692 148.594 84.3616C147.302 85.654 145.206 85.654 143.914 84.3616L131.588 72.036C130.296 70.7435 130.296 68.6481 131.588 67.3557L143.914 55.0301C145.206 53.7376 147.302 53.7376 148.594 55.0301Z" fill="white"/>
<rect x="118.97" y="53.9946" width="6.61886" height="23.166" rx="3.30943" fill="white"/>
<rect x="118.97" y="78.8154" width="6.61886" height="6.61886" rx="3.30943" fill="white"/>
<rect width="6.61886" height="23.166" rx="3.30943" transform="matrix(1 0 0 -1 157.028 85.4341)" fill="white"/>
<rect width="6.61886" height="6.61886" rx="3.30943" transform="matrix(1 0 0 -1 157.028 60.6133)" fill="white"/>
</g>
<defs>
<clipPath id="clip0_715_3000">
<rect width="90" height="33.4286" fill="white" transform="translate(77 53)"/>
</clipPath>
</defs>
</svg>
