<svg width="40" height="40" viewBox="0 0 40 40" fill="none" xmlns="http://www.w3.org/2000/svg">
<g clip-path="url(#clip0_373_2640)">
<path d="M25.3334 3.33337H12C10.1667 3.33337 8.68335 4.83337 8.68335 6.66671L8.66669 33.3334C8.66669 35.1667 10.15 36.6667 11.9834 36.6667H32C33.8334 36.6667 35.3334 35.1667 35.3334 33.3334V13.3334L25.3334 3.33337ZM12 33.3334V6.66671H23.6667V15H32V33.3334H12Z" fill="#D6D5D5"/>
<path d="M0 17C0 16.4477 0.447715 16 1 16H29.54C30.0923 16 30.54 16.4477 30.54 17V27C30.54 27.5523 30.0923 28 29.54 28H1C0.447717 28 0 27.5523 0 27V17Z" fill="#41A5F0"/>
<path d="M22.497 24.9044V24.1505H23.8486C24.2757 24.1505 24.6311 24.0698 24.915 23.9083C25.1988 23.7468 25.4111 23.5125 25.5517 23.2052C25.6949 22.8953 25.7665 22.5164 25.7665 22.0685C25.7665 21.6257 25.6962 21.2507 25.5556 20.9435C25.4176 20.6336 25.2092 20.3992 24.9306 20.2403C24.6546 20.0815 24.3108 20.002 23.8994 20.002H22.4658V19.2481H23.9501C24.5048 19.2481 24.9814 19.3601 25.3798 19.5841C25.7809 19.808 26.0869 20.1323 26.2978 20.5567C26.5113 20.9812 26.6181 21.4851 26.6181 22.0685C26.6181 22.657 26.51 23.1635 26.2939 23.588C26.0803 24.0125 25.7691 24.338 25.3603 24.5645C24.954 24.7911 24.4671 24.9044 23.8994 24.9044H22.497ZM22.9228 24.9044H22.0634V19.2481H22.9228V24.9044Z" fill="white"/>
<path d="M17.1337 19.2481H19.1494C19.5816 19.2481 19.9436 19.3224 20.2353 19.4708C20.5296 19.6166 20.7496 19.8237 20.8954 20.0919C21.0413 20.3601 21.1142 20.6713 21.1142 21.0255C21.1142 21.3744 21.0413 21.6804 20.8954 21.9435C20.7496 22.2039 20.5283 22.407 20.2314 22.5528C19.9371 22.6987 19.5751 22.7716 19.1454 22.7716H17.6181V22.0255H19.0634C19.3395 22.0255 19.5647 21.9864 19.7392 21.9083C19.9137 21.8302 20.0413 21.7169 20.122 21.5685C20.2053 21.42 20.247 21.239 20.247 21.0255C20.247 20.8041 20.2053 20.6166 20.122 20.463C20.0413 20.3067 19.9124 20.1882 19.7353 20.1075C19.5582 20.0268 19.3329 19.9864 19.0595 19.9864H17.9931V24.9044H17.1337V19.2481ZM21.3251 24.9044H20.3447L18.9775 22.3536H19.9306L21.3251 24.9044Z" fill="white"/>
<path d="M16.1611 22.0763C16.1611 22.6648 16.0517 23.1791 15.8329 23.6192C15.6142 24.0593 15.3121 24.3966 14.9267 24.631C14.5439 24.8653 14.1064 24.9825 13.6142 24.9825C13.122 24.9825 12.6832 24.8653 12.2978 24.631C11.915 24.3966 11.6142 24.0593 11.3954 23.6192C11.1767 23.1791 11.0673 22.6648 11.0673 22.0763C11.0673 21.4825 11.1767 20.9669 11.3954 20.5294C11.6142 20.0919 11.915 19.756 12.2978 19.5216C12.6832 19.2872 13.122 19.17 13.6142 19.17C14.1064 19.17 14.5439 19.2872 14.9267 19.5216C15.3121 19.756 15.6142 20.0919 15.8329 20.5294C16.0517 20.9669 16.1611 21.4825 16.1611 22.0763ZM15.3134 22.0763C15.3134 21.6283 15.2405 21.2455 15.0947 20.9278C14.9488 20.6075 14.7483 20.3653 14.4931 20.2013C14.2379 20.0372 13.9449 19.9552 13.6142 19.9552C13.2861 19.9552 12.9931 20.0372 12.7353 20.2013C12.4801 20.3653 12.2796 20.6075 12.1337 20.9278C11.9879 21.2455 11.915 21.6283 11.915 22.0763C11.915 22.5242 11.9879 22.9083 12.1337 23.2286C12.2796 23.5463 12.4801 23.7872 12.7353 23.9513C12.9931 24.1153 13.2861 24.1974 13.6142 24.1974C13.9449 24.1974 14.2379 24.1153 14.4931 23.9513C14.7483 23.7872 14.9488 23.5463 15.0947 23.2286C15.2405 22.9083 15.3134 22.5242 15.3134 22.0763Z" fill="white"/>
<path d="M3.53998 19.2481H4.44232L5.54388 23.6192H5.59857L6.7392 19.2481H7.63373L8.78217 23.6231H8.82904L9.93451 19.2481H10.8329L9.26263 24.9044H8.39545L7.21185 20.6739H7.16888L5.97748 24.9044H5.11029L3.53998 19.2481Z" fill="white"/>
</g>
<defs>
<clipPath id="clip0_373_2640">
<rect width="40" height="40" fill="white"/>
</clipPath>
</defs>
</svg>
