<svg width="16" height="16" viewBox="0 0 16 16" fill="none" xmlns="http://www.w3.org/2000/svg">
<path d="M7.33333 8.33333C8.80667 8.33333 10 7.14 10 5.66667C10 4.19333 8.80667 3 7.33333 3C5.86 3 4.66667 4.19333 4.66667 5.66667C4.66667 7.14 5.86 8.33333 7.33333 8.33333ZM7.33333 4.33333C8.06667 4.33333 8.66667 4.93333 8.66667 5.66667C8.66667 6.4 8.06667 7 7.33333 7C6.6 7 6 6.4 6 5.66667C6 4.93333 6.6 4.33333 7.33333 4.33333Z" fill="#525866"/>
<path d="M3.33333 12.3333C3.48 11.8533 5.54 11 7.33333 11C7.33333 10.5333 7.42 10.0867 7.56667 9.67333C5.74667 9.60667 2 10.5133 2 12.3333V13.6667H8.36C8.01333 13.28 7.74 12.8333 7.56667 12.3333H3.33333Z" fill="#525866"/>
<path d="M11.9492 13.25C12.1 13.19 12.2351 13.105 12.365 13.01L12.3546 13.025L12.8796 13.22C12.9991 13.265 13.1343 13.22 13.1967 13.11L13.6333 12.38C13.6956 12.275 13.6696 12.135 13.5709 12.06L13.1291 11.72L13.1187 11.735C13.1291 11.655 13.1447 11.575 13.1447 11.495C13.1447 11.415 13.1291 11.335 13.1187 11.255L13.1291 11.27L13.5709 10.93C13.6696 10.855 13.6956 10.715 13.6333 10.61L13.1967 9.88C13.1343 9.775 12.9991 9.725 12.8796 9.77L12.3546 9.965L12.365 9.98C12.2351 9.895 12.1 9.81 11.9492 9.75L11.8609 9.21C11.8453 9.09 11.7361 9 11.6062 9H10.733C10.6031 9 10.4939 9.09 10.4783 9.21L10.39 9.75C10.2392 9.81 10.1041 9.895 9.97414 9.99L9.98454 9.975L9.45438 9.78C9.33484 9.735 9.1997 9.78 9.13733 9.89L8.70073 10.62C8.63836 10.725 8.66435 10.865 8.7631 10.94L9.2049 11.28L9.21529 11.265C9.2049 11.34 9.18931 11.42 9.18931 11.5C9.18931 11.58 9.2049 11.66 9.21529 11.74L9.2049 11.725L8.7631 12.065C8.66435 12.14 8.63836 12.28 8.70073 12.385L9.13733 13.115C9.1997 13.22 9.33484 13.27 9.45438 13.225L9.97934 13.03L9.97414 13.01C10.1041 13.105 10.2392 13.19 10.39 13.25L10.4783 13.785C10.4939 13.91 10.6031 14 10.733 14H11.6062C11.7361 14 11.8453 13.91 11.8609 13.79L11.9492 13.25ZM10.1301 11.5C10.1301 10.95 10.5979 10.5 11.1696 10.5C11.7413 10.5 12.2091 10.95 12.2091 11.5C12.2091 12.05 11.7413 12.5 11.1696 12.5C10.5979 12.5 10.1301 12.05 10.1301 11.5Z" fill="#525866"/>
</svg>
