<svg width="32" height="32" viewBox="0 0 32 32" fill="none" xmlns="http://www.w3.org/2000/svg">
<path d="M1.64062 29.6933L20.3073 23.0266L8.30729 11.0266L1.64062 29.6933ZM15.4406 21.9333L6.04063 25.2933L9.40063 15.8933L15.4406 21.9333Z" fill="#CCD1DD"/>
<path d="M18.3473 17.0666L25.8006 9.61331C26.454 8.95997 27.5073 8.95997 28.1606 9.61331L28.9473 10.4L30.3606 8.98664L29.574 8.19997C28.1473 6.77331 25.814 6.77331 24.3873 8.19997L16.934 15.6533L18.3473 17.0666Z" fill="#CCD1DD"/>
<path d="M12.3873 9.53331L11.6006 10.32L13.014 11.7333L13.8006 10.9466C15.2273 9.51997 15.2273 7.18664 13.8006 5.75997L13.014 4.97331L11.6006 6.39997L12.3873 7.18664C13.0273 7.82664 13.0273 8.89331 12.3873 9.53331Z" fill="#CCD1DD"/>
<path d="M21.7206 16.2L19.6006 18.32L21.014 19.7333L23.134 17.6133C23.7873 16.96 24.8406 16.96 25.494 17.6133L27.6406 19.76L29.054 18.3466L26.9073 16.2C25.4673 14.7733 23.1473 14.7733 21.7206 16.2Z" fill="#CCD1DD"/>
<path d="M19.054 8.19997L14.2673 12.9866L15.6806 14.4L20.4673 9.61331C21.894 8.18664 21.894 5.85331 20.4673 4.42664L18.3473 2.30664L16.934 3.71997L19.054 5.83997C19.694 6.49331 19.694 7.55997 19.054 8.19997Z" fill="#CCD1DD"/>
</svg>
