<svg width="46" height="46" viewBox="0 0 46 46" fill="none" xmlns="http://www.w3.org/2000/svg">
<rect x="1.5" y="1.5" width="43" height="43" rx="21.5" fill="white"/>
<rect x="1.5" y="1.5" width="43" height="43" rx="21.5" stroke="#FAFAFA" stroke-width="3"/>
<path fill-rule="evenodd" clip-rule="evenodd" d="M29.7758 26.0083C29.9147 26.0083 29.9147 26.0083 29.9147 25.8743C30.4705 25.3386 28.2476 22.6598 25.0522 19.981C21.8568 17.3023 18.9393 15.5611 18.3835 16.0968C18.3835 16.0968 18.3835 16.2308 18.2446 16.2308L13.1042 28.9549C12.8263 30.1603 13.1042 31.3658 13.9378 32.1694L14.0767 32.3033C14.9103 33.107 16.1607 33.2409 17.2721 32.5712L29.7758 26.0083Z" fill="#353F9B"/>
<path d="M29.8808 25.8608C29.2535 26.4591 26.5876 25.113 22.9807 22.1217C19.3738 19.1304 17.4919 16.7374 18.1192 16.1392C18.7465 15.5409 21.4124 16.887 25.0193 19.8783C28.6262 22.8696 30.5081 25.2626 29.8808 25.8608Z" fill="#D9D9D9"/>
<path fill-rule="evenodd" clip-rule="evenodd" d="M31.6201 14L31.9444 15.1321C32.1605 15.9245 31.7282 16.6038 30.9716 16.8302L30.4312 16.9434C30.3232 16.9434 30.2151 17.1698 30.2151 17.283C30.4312 17.9623 29.7828 18.6415 29.1343 18.3019L28.5939 18.0755C28.2697 17.9623 27.8373 18.1887 27.8373 18.6415V18.7547C27.8373 19.434 27.297 20 26.6485 20H26V19.5472H26.7566C27.0808 19.5472 27.405 19.3208 27.405 18.8679V18.7547C27.405 17.9623 28.1616 17.3962 28.9181 17.7358L29.4585 17.9623C29.6747 18.0755 29.8909 17.8491 29.7828 17.6226C29.6747 17.1698 29.8909 16.717 30.3232 16.4906L30.8636 16.3774C31.2959 16.2642 31.512 15.8113 31.404 15.3585L31.0797 14.2264L31.6201 14Z" fill="#353F9B"/>
<path fill-rule="evenodd" clip-rule="evenodd" d="M18.4558 14C21.0385 15.0909 21.1905 17.0303 20.8866 18L20.127 17.8788C20.2789 17.1515 20.2789 15.4545 18 14.6061L18.4558 14Z" fill="#353F9B"/>
<path fill-rule="evenodd" clip-rule="evenodd" d="M29.6809 21.5721C28.6596 21.6791 27.766 21.893 27.2553 22L27 21.4652C27.5106 21.2512 28.5319 21.0373 29.5532 21.0373C30.5745 20.9303 31.8511 21.0373 33 21.5721L32.7447 22C31.7234 21.6791 30.7021 21.5721 29.6809 21.5721Z" fill="#353F9B"/>
<path d="M28 14.5714L29.5385 14L30 15.4286L28.6154 16L28 14.5714Z" fill="#D9D9D9"/>
<path d="M23 16.6154L25.0769 16L26 17.3846L23.9231 18L23 16.6154Z" fill="#D9D9D9"/>
<path d="M21 14.8571L23.1538 14L25 15.1429L22.5385 16L21 14.8571Z" fill="#353F9B"/>
</svg>
