<svg width="32" height="32" viewBox="0 0 32 32" fill="none" xmlns="http://www.w3.org/2000/svg">
<path d="M15.3333 2.66675L7.99998 14.6667H22.6666L15.3333 2.66675ZM15.3333 7.78675L17.9066 12.0001H12.7466L15.3333 7.78675ZM22.6666 17.3334C19.3466 17.3334 16.6666 20.0134 16.6666 23.3334C16.6666 26.6534 19.3466 29.3334 22.6666 29.3334C25.9866 29.3334 28.6666 26.6534 28.6666 23.3334C28.6666 20.0134 25.9866 17.3334 22.6666 17.3334ZM22.6666 26.6667C20.8266 26.6667 19.3333 25.1734 19.3333 23.3334C19.3333 21.4934 20.8266 20.0001 22.6666 20.0001C24.5066 20.0001 26 21.4934 26 23.3334C26 25.1734 24.5066 26.6667 22.6666 26.6667ZM3.33331 28.6667H14V18.0001H3.33331V28.6667ZM5.99998 20.6667H11.3333V26.0001H5.99998V20.6667Z" fill="#CCD1DD"/>
</svg>
