<svg width="24" height="24" viewBox="0 0 24 24" fill="none" xmlns="http://www.w3.org/2000/svg">
<path d="M4.82031 18.8467L14.1536 15.5133L8.15365 9.51332L4.82031 18.8467ZM11.7203 14.9667L7.02031 16.6467L8.70031 11.9467L11.7203 14.9667Z" fill="#99A1B2"/>
<path d="M13.1736 12.5333L16.9003 8.80665C17.227 8.47999 17.7536 8.47999 18.0803 8.80665L18.4736 9.19999L19.1803 8.49332L18.787 8.09999C18.0736 7.38665 16.907 7.38665 16.1936 8.09999L12.467 11.8267L13.1736 12.5333Z" fill="#99A1B2"/>
<path d="M10.1936 8.76665L9.80031 9.15999L10.507 9.86665L10.9003 9.47332C11.6136 8.75999 11.6136 7.59332 10.9003 6.87999L10.507 6.48665L9.80031 7.19999L10.1936 7.59332C10.5136 7.91332 10.5136 8.44665 10.1936 8.76665Z" fill="#99A1B2"/>
<path d="M14.8603 12.1L13.8003 13.16L14.507 13.8667L15.567 12.8067C15.8936 12.48 16.4203 12.48 16.747 12.8067L17.8203 13.88L18.527 13.1733L17.4536 12.1C16.7336 11.3867 15.5736 11.3867 14.8603 12.1Z" fill="#99A1B2"/>
<path d="M13.527 8.09999L11.1336 10.4933L11.8403 11.2L14.2336 8.80665C14.947 8.09332 14.947 6.92665 14.2336 6.21332L13.1736 5.15332L12.467 5.85999L13.527 6.91999C13.847 7.24665 13.847 7.77999 13.527 8.09999Z" fill="#99A1B2"/>
</svg>
