<svg width="14" height="14" viewBox="0 0 14 14" fill="none" xmlns="http://www.w3.org/2000/svg">
<g id="Group">
<path id="Vector" fill-rule="evenodd" clip-rule="evenodd" d="M6.09617 0.00797618C6.36561 -0.0157659 6.63723 0.0136281 6.89461 0.0943827C7.152 0.175137 7.38981 0.305577 7.59369 0.477824L7.69379 0.568303L12.9138 5.62418C13.273 5.97215 13.4822 6.43938 13.4989 6.93118C13.5156 7.42297 13.3387 7.90253 13.0038 8.27264L12.9138 8.36571L9.13859 12.0217C8.77928 12.3696 8.29682 12.5722 7.789 12.5884C7.28118 12.6046 6.78599 12.4332 6.40382 12.109L6.30772 12.0217L1.08642 6.96586C0.895211 6.78069 0.744715 6.55993 0.644013 6.3169C0.543311 6.07387 0.494489 5.8136 0.500494 5.55179L0.507835 5.4193L0.822821 2.06833C0.86326 1.63647 1.05202 1.23021 1.35893 0.914468C1.66585 0.59873 2.07319 0.391745 2.51587 0.326594L2.63533 0.313022L6.09617 0.00797618ZM4.41914 3.79584C4.29517 3.91589 4.19684 4.05841 4.12975 4.21526C4.06267 4.37212 4.02814 4.54023 4.02814 4.71001C4.02814 4.87978 4.06267 5.0479 4.12975 5.20475C4.19684 5.3616 4.29517 5.50412 4.41914 5.62418C4.5431 5.74423 4.69026 5.83945 4.85223 5.90442C5.01419 5.9694 5.18779 6.00284 5.36309 6.00284C5.5384 6.00284 5.712 5.9694 5.87396 5.90442C6.03592 5.83945 6.18309 5.74423 6.30705 5.62418C6.5574 5.38172 6.69805 5.05289 6.69805 4.71001C6.69805 4.36713 6.5574 4.03829 6.30705 3.79584C6.0567 3.55339 5.71715 3.41718 5.36309 3.41718C5.00904 3.41718 4.66949 3.55339 4.41914 3.79584Z" fill="#525866"/>
</g>
</svg>
