<svg width="20" height="20" viewBox="0 0 20 20" fill="none" xmlns="http://www.w3.org/2000/svg">
<path d="M12.5 10C14.3417 10 15.8333 8.50833 15.8333 6.66666C15.8333 4.82499 14.3417 3.33333 12.5 3.33333C10.6583 3.33333 9.16666 4.82499 9.16666 6.66666C9.16666 8.50833 10.6583 10 12.5 10ZM12.5 4.99999C13.4167 4.99999 14.1667 5.74999 14.1667 6.66666C14.1667 7.58333 13.4167 8.33333 12.5 8.33333C11.5833 8.33333 10.8333 7.58333 10.8333 6.66666C10.8333 5.74999 11.5833 4.99999 12.5 4.99999ZM12.5 11.6667C10.275 11.6667 5.83333 12.7833 5.83333 15V16.6667H19.1667V15C19.1667 12.7833 14.725 11.6667 12.5 11.6667ZM7.5 15C7.68333 14.4 10.2583 13.3333 12.5 13.3333C14.75 13.3333 17.3333 14.4083 17.5 15H7.5ZM5 12.5V10H7.5V8.33333H5V5.83333H3.33333V8.33333H0.833328V10H3.33333V12.5H5Z" fill="#525866"/>
</svg>
