<svg width="32" height="32" viewBox="0 0 32 32" fill="none" xmlns="http://www.w3.org/2000/svg">
<path d="M25.3333 3.99992H19.76C19.2 2.45325 17.7333 1.33325 16 1.33325C14.2667 1.33325 12.8 2.45325 12.24 3.99992H6.66667C5.2 3.99992 4 5.19992 4 6.66659V27.9999C4 29.4666 5.2 30.6666 6.66667 30.6666H25.3333C26.8 30.6666 28 29.4666 28 27.9999V6.66659C28 5.19992 26.8 3.99992 25.3333 3.99992ZM16 3.99992C16.7333 3.99992 17.3333 4.59992 17.3333 5.33325C17.3333 6.06659 16.7333 6.66659 16 6.66659C15.2667 6.66659 14.6667 6.06659 14.6667 5.33325C14.6667 4.59992 15.2667 3.99992 16 3.99992ZM25.3333 27.9999H6.66667V6.66659H9.33333V10.6666H22.6667V6.66659H25.3333V27.9999Z" fill="#CCD1DD"/>
</svg>
