<svg width="24" height="24" viewBox="0 0 24 24" fill="none" xmlns="http://www.w3.org/2000/svg">
<path d="M16.6667 6H13.88C13.6 5.22667 12.8667 4.66667 12 4.66667C11.1333 4.66667 10.4 5.22667 10.12 6H7.33333C6.6 6 6 6.6 6 7.33333V18C6 18.7333 6.6 19.3333 7.33333 19.3333H16.6667C17.4 19.3333 18 18.7333 18 18V7.33333C18 6.6 17.4 6 16.6667 6ZM12 6C12.3667 6 12.6667 6.3 12.6667 6.66667C12.6667 7.03333 12.3667 7.33333 12 7.33333C11.6333 7.33333 11.3333 7.03333 11.3333 6.66667C11.3333 6.3 11.6333 6 12 6ZM16.6667 18H7.33333V7.33333H8.66667V9.33333H15.3333V7.33333H16.6667V18Z" fill="#99A1B2"/>
</svg>
