<svg width="40" height="40" viewBox="0 0 40 40" fill='none' xmlns="http://www.w3.org/2000/svg">
<path d="M30 21.6667H21.6667V30C21.6667 30.9167 20.9167 31.6667 20 31.6667C19.0833 31.6667 18.3333 30.9167 18.3333 30V21.6667H9.99999C9.08333 21.6667 8.33333 20.9167 8.33333 20C8.33333 19.0834 9.08333 18.3334 9.99999 18.3334H18.3333V10C18.3333 9.08337 19.0833 8.33337 20 8.33337C20.9167 8.33337 21.6667 9.08337 21.6667 10V18.3334H30C30.9167 18.3334 31.6667 19.0834 31.6667 20C31.6667 20.9167 30.9167 21.6667 30 21.6667Z"/>
</svg>
