<svg width="24" height="24" viewBox="0 0 24 24" fill="none" xmlns="http://www.w3.org/2000/svg">
<path d="M13.3333 6.66667V10C13.3333 10.7467 13.58 11.44 14 12H10C10.4333 11.4267 10.6667 10.7333 10.6667 10V6.66667H13.3333ZM15.3333 5.33333H8.66667C8.3 5.33333 8 5.63333 8 6C8 6.36667 8.3 6.66667 8.66667 6.66667H9.33333V10C9.33333 11.1067 8.44 12 7.33333 12V13.3333H11.3133V18L11.98 18.6667L12.6467 18V13.3333H16.6667V12C15.56 12 14.6667 11.1067 14.6667 10V6.66667H15.3333C15.7 6.66667 16 6.36667 16 6C16 5.63333 15.7 5.33333 15.3333 5.33333Z" fill="#99A1B2"/>
</svg>
