<svg width="32" height="32" viewBox="0 0 32 32" fill="none" xmlns="http://www.w3.org/2000/svg">
<path d="M18.6667 5.33341V12.0001C18.6667 13.4934 19.16 14.8801 20 16.0001H12C12.8667 14.8534 13.3334 13.4667 13.3334 12.0001V5.33341H18.6667ZM22.6667 2.66675H9.33335C8.60002 2.66675 8.00002 3.26675 8.00002 4.00008C8.00002 4.73341 8.60002 5.33341 9.33335 5.33341H10.6667V12.0001C10.6667 14.2134 8.88002 16.0001 6.66669 16.0001V18.6667H14.6267V28.0001L15.96 29.3334L17.2934 28.0001V18.6667H25.3334V16.0001C23.12 16.0001 21.3334 14.2134 21.3334 12.0001V5.33341H22.6667C23.4 5.33341 24 4.73341 24 4.00008C24 3.26675 23.4 2.66675 22.6667 2.66675Z" fill="#CCD1DD"/>
</svg>
