<svg width="32" height="32" viewBox="0 0 32 32" fill="none" xmlns="http://www.w3.org/2000/svg">
<path d="M22.2267 17.5066C24.0533 18.7466 25.3333 20.4266 25.3333 22.6666V26.6666H30.6667V22.6666C30.6667 19.7599 25.9067 18.0399 22.2267 17.5066Z" fill="#CCD1DD"/>
<path d="M20 15.9999C22.9467 15.9999 25.3333 13.6133 25.3333 10.6666C25.3333 7.71992 22.9467 5.33325 20 5.33325C19.3733 5.33325 18.7867 5.46658 18.2267 5.65325C19.3333 7.02658 20 8.77325 20 10.6666C20 12.5599 19.3333 14.3066 18.2267 15.6799C18.7867 15.8666 19.3733 15.9999 20 15.9999Z" fill="#CCD1DD"/>
<path d="M12 15.9999C14.9467 15.9999 17.3333 13.6133 17.3333 10.6666C17.3333 7.71992 14.9467 5.33325 12 5.33325C9.05334 5.33325 6.66668 7.71992 6.66668 10.6666C6.66668 13.6133 9.05334 15.9999 12 15.9999ZM12 7.99992C13.4667 7.99992 14.6667 9.19992 14.6667 10.6666C14.6667 12.1333 13.4667 13.3333 12 13.3333C10.5333 13.3333 9.33334 12.1333 9.33334 10.6666C9.33334 9.19992 10.5333 7.99992 12 7.99992Z" fill="#CCD1DD"/>
<path d="M12 17.3333C8.44001 17.3333 1.33334 19.1199 1.33334 22.6666V26.6666H22.6667V22.6666C22.6667 19.1199 15.56 17.3333 12 17.3333ZM20 23.9999H4.00001V22.6799C4.26668 21.7199 8.40001 19.9999 12 19.9999C15.6 19.9999 19.7333 21.7199 20 22.6666V23.9999Z" fill="#CCD1DD"/>
</svg>
