<svg width="24" height="24" viewBox="0 0 24 24" fill="none" xmlns="http://www.w3.org/2000/svg">
<path d="M15.1133 12.7533C16.0267 13.3733 16.6667 14.2133 16.6667 15.3333V17.3333H19.3333V15.3333C19.3333 13.88 16.9533 13.02 15.1133 12.7533Z" fill="#99A1B2"/>
<path d="M14 12C15.4733 12 16.6667 10.8067 16.6667 9.33333C16.6667 7.86 15.4733 6.66667 14 6.66667C13.6867 6.66667 13.3933 6.73333 13.1133 6.82667C13.6667 7.51333 14 8.38667 14 9.33333C14 10.28 13.6667 11.1533 13.1133 11.84C13.3933 11.9333 13.6867 12 14 12Z" fill="#99A1B2"/>
<path d="M10 12C11.4733 12 12.6667 10.8067 12.6667 9.33333C12.6667 7.86 11.4733 6.66667 10 6.66667C8.52667 6.66667 7.33333 7.86 7.33333 9.33333C7.33333 10.8067 8.52667 12 10 12ZM10 8C10.7333 8 11.3333 8.6 11.3333 9.33333C11.3333 10.0667 10.7333 10.6667 10 10.6667C9.26667 10.6667 8.66667 10.0667 8.66667 9.33333C8.66667 8.6 9.26667 8 10 8Z" fill="#99A1B2"/>
<path d="M10 12.6667C8.22 12.6667 4.66667 13.56 4.66667 15.3333V17.3333H15.3333V15.3333C15.3333 13.56 11.78 12.6667 10 12.6667ZM14 16H6V15.34C6.13333 14.86 8.2 14 10 14C11.8 14 13.8667 14.86 14 15.3333V16Z" fill="#99A1B2"/>
</svg>
