<svg width="32" height="32" viewBox="0 0 32 32" fill="none" xmlns="http://www.w3.org/2000/svg">
<path d="M28 5.33341C26.52 4.86675 24.8933 4.66675 23.3333 4.66675C20.7333 4.66675 17.9333 5.20008 16 6.66675C14.0666 5.20008 11.2666 4.66675 8.66665 4.66675C6.06665 4.66675 3.26665 5.20008 1.33331 6.66675V26.2001C1.33331 26.5334 1.66665 26.8667 1.99998 26.8667C2.13331 26.8667 2.19998 26.8001 2.33331 26.8001C4.13331 25.9334 6.73331 25.3334 8.66665 25.3334C11.2666 25.3334 14.0666 25.8667 16 27.3334C17.8 26.2001 21.0666 25.3334 23.3333 25.3334C25.5333 25.3334 27.8 25.7334 29.6666 26.7334C29.8 26.8001 29.8666 26.8001 30 26.8001C30.3333 26.8001 30.6666 26.4667 30.6666 26.1334V6.66675C29.8666 6.06675 29 5.66675 28 5.33341ZM28 23.3334C26.5333 22.8667 24.9333 22.6667 23.3333 22.6667C21.0666 22.6667 17.8 23.5334 16 24.6667V9.33342C17.8 8.20008 21.0666 7.33341 23.3333 7.33341C24.9333 7.33341 26.5333 7.53341 28 8.00008V23.3334Z" fill="#CCD1DD"/>
<path d="M23.3333 12.6667C24.5066 12.6667 25.64 12.7867 26.6666 13.0134V10.9867C25.6133 10.7867 24.48 10.6667 23.3333 10.6667C21.0666 10.6667 19.0133 11.0534 17.3333 11.7734V13.9867C18.84 13.1334 20.9333 12.6667 23.3333 12.6667Z" fill="#CCD1DD"/>
<path d="M17.3333 15.3201V17.5334C18.84 16.6801 20.9333 16.2134 23.3333 16.2134C24.5066 16.2134 25.64 16.3334 26.6666 16.5601V14.5334C25.6133 14.3334 24.48 14.2134 23.3333 14.2134C21.0666 14.2134 19.0133 14.6134 17.3333 15.3201Z" fill="#CCD1DD"/>
<path d="M23.3333 17.7734C21.0666 17.7734 19.0133 18.1601 17.3333 18.8801V21.0934C18.84 20.2401 20.9333 19.7734 23.3333 19.7734C24.5066 19.7734 25.64 19.8934 26.6666 20.1201V18.0934C25.6133 17.8801 24.48 17.7734 23.3333 17.7734Z" fill="#CCD1DD"/>
</svg>
