<svg width="24" height="24" viewBox="0 0 24 24" fill="none" xmlns="http://www.w3.org/2000/svg">
<path d="M18 6.66667C17.26 6.43333 16.4467 6.33333 15.6667 6.33333C14.3667 6.33333 12.9667 6.6 12 7.33333C11.0333 6.6 9.63333 6.33333 8.33333 6.33333C7.03333 6.33333 5.63333 6.6 4.66666 7.33333V17.1C4.66666 17.2667 4.83333 17.4333 5 17.4333C5.06666 17.4333 5.1 17.4 5.16666 17.4C6.06666 16.9667 7.36666 16.6667 8.33333 16.6667C9.63333 16.6667 11.0333 16.9333 12 17.6667C12.9 17.1 14.5333 16.6667 15.6667 16.6667C16.7667 16.6667 17.9 16.8667 18.8333 17.3667C18.9 17.4 18.9333 17.4 19 17.4C19.1667 17.4 19.3333 17.2333 19.3333 17.0667V7.33333C18.9333 7.03333 18.5 6.83333 18 6.66667ZM18 15.6667C17.2667 15.4333 16.4667 15.3333 15.6667 15.3333C14.5333 15.3333 12.9 15.7667 12 16.3333V8.66667C12.9 8.1 14.5333 7.66667 15.6667 7.66667C16.4667 7.66667 17.2667 7.76667 18 8V15.6667Z" fill="#99A1B2"/>
<path d="M15.6667 10.3333C16.2533 10.3333 16.82 10.3933 17.3333 10.5067V9.49333C16.8067 9.39333 16.24 9.33333 15.6667 9.33333C14.5333 9.33333 13.5067 9.52667 12.6667 9.88667V10.9933C13.42 10.5667 14.4667 10.3333 15.6667 10.3333Z" fill="#99A1B2"/>
<path d="M12.6667 11.66V12.7667C13.42 12.34 14.4667 12.1067 15.6667 12.1067C16.2533 12.1067 16.82 12.1667 17.3333 12.28V11.2667C16.8067 11.1667 16.24 11.1067 15.6667 11.1067C14.5333 11.1067 13.5067 11.3067 12.6667 11.66Z" fill="#99A1B2"/>
<path d="M15.6667 12.8867C14.5333 12.8867 13.5067 13.08 12.6667 13.44V14.5467C13.42 14.12 14.4667 13.8867 15.6667 13.8867C16.2533 13.8867 16.82 13.9467 17.3333 14.06V13.0467C16.8067 12.94 16.24 12.8867 15.6667 12.8867Z" fill="#99A1B2"/>
</svg>
