<svg width="40" height="40" viewBox="0 0 40 40" fill="none" xmlns="http://www.w3.org/2000/svg">
<path d="M25.7275 20.784C25.7595 20.528 25.7835 20.272 25.7835 20C25.7835 19.728 25.7595 19.472 25.7275 19.216L27.4155 17.896C27.5675 17.776 27.6075 17.56 27.5115 17.384L25.9115 14.616C25.8395 14.488 25.7035 14.416 25.5595 14.416C25.5115 14.416 25.4635 14.424 25.4235 14.44L23.4315 15.24C23.0155 14.92 22.5675 14.656 22.0795 14.456L21.7755 12.336C21.7515 12.144 21.5835 12 21.3835 12H18.1835C17.9835 12 17.8155 12.144 17.7915 12.336L17.4875 14.456C16.9995 14.656 16.5515 14.928 16.1355 15.24L14.1435 14.44C14.0955 14.424 14.0475 14.416 13.9995 14.416C13.8635 14.416 13.7275 14.488 13.6555 14.616L12.0555 17.384C11.9515 17.56 11.9995 17.776 12.1515 17.896L13.8395 19.216C13.8075 19.472 13.7835 19.736 13.7835 20C13.7835 20.264 13.8075 20.528 13.8395 20.784L12.1515 22.104C11.9995 22.224 11.9595 22.44 12.0555 22.616L13.6555 25.384C13.7275 25.512 13.8635 25.584 14.0075 25.584C14.0555 25.584 14.1035 25.576 14.1435 25.56L16.1355 24.76C16.5515 25.08 16.9995 25.344 17.4875 25.544L17.7915 27.664C17.8155 27.856 17.9835 28 18.1835 28H21.3835C21.5835 28 21.7515 27.856 21.7755 27.664L22.0795 25.544C22.5675 25.344 23.0155 25.072 23.4315 24.76L25.4235 25.56C25.4715 25.576 25.5195 25.584 25.5675 25.584C25.7035 25.584 25.8395 25.512 25.9115 25.384L27.5115 22.616C27.6075 22.44 27.5675 22.224 27.4155 22.104L25.7275 20.784ZM24.1435 19.416C24.1755 19.664 24.1835 19.832 24.1835 20C24.1835 20.168 24.1675 20.344 24.1435 20.584L24.0315 21.488L24.7435 22.048L25.6075 22.72L25.0475 23.688L24.0315 23.28L23.1995 22.944L22.4795 23.488C22.1355 23.744 21.8075 23.936 21.4795 24.072L20.6315 24.416L20.5035 25.32L20.3435 26.4H19.2235L18.9435 24.416L18.0955 24.072C17.7515 23.928 17.4315 23.744 17.1115 23.504L16.3835 22.944L15.5355 23.288L14.5195 23.696L13.9595 22.728L14.8235 22.056L15.5355 21.496L15.4235 20.592C15.3995 20.344 15.3835 20.16 15.3835 20C15.3835 19.84 15.3995 19.656 15.4235 19.416L15.5355 18.512L14.8235 17.952L13.9595 17.28L14.5195 16.312L15.5355 16.72L16.3675 17.056L17.0875 16.512C17.4315 16.256 17.7595 16.064 18.0875 15.928L18.9355 15.584L19.0635 14.68L19.2235 13.6H20.3355L20.6155 15.584L21.4635 15.928C21.8075 16.072 22.1275 16.256 22.4475 16.496L23.1755 17.056L24.0235 16.712L25.0395 16.304L25.5995 17.272L24.7435 17.952L24.0315 18.512L24.1435 19.416ZM19.7835 16.8C18.0155 16.8 16.5835 18.232 16.5835 20C16.5835 21.768 18.0155 23.2 19.7835 23.2C21.5515 23.2 22.9835 21.768 22.9835 20C22.9835 18.232 21.5515 16.8 19.7835 16.8ZM19.7835 21.6C18.9035 21.6 18.1835 20.88 18.1835 20C18.1835 19.12 18.9035 18.4 19.7835 18.4C20.6635 18.4 21.3835 19.12 21.3835 20C21.3835 20.88 20.6635 21.6 19.7835 21.6Z" fill="white"/>
</svg>
