<svg width="16" height="16" viewBox="0 0 16 16" fill="none" xmlns="http://www.w3.org/2000/svg">
<path d="M1.99992 4.00004V2.66671C1.99992 2.29852 2.2984 2.00004 2.66659 2.00004H9.99992C10.3681 2.00004 10.6666 2.29852 10.6666 2.66671V4.00004C10.6666 4.36823 10.3681 4.66671 9.99992 4.66671H2.66659C2.2984 4.66671 1.99992 4.36823 1.99992 4.00004Z" stroke="#525866" stroke-width="1.33333"/>
<path d="M5.33341 8.66667V7.33333C5.33341 6.96514 5.63189 6.66667 6.00008 6.66667H14.0001C14.3683 6.66667 14.6667 6.96514 14.6667 7.33333V8.66667C14.6667 9.03486 14.3683 9.33333 14.0001 9.33333H6.00008C5.63189 9.33333 5.33341 9.03486 5.33341 8.66667Z" stroke="#525866" stroke-width="1.33333"/>
<path d="M2.66667 13.3333V12C2.66667 11.6318 2.96514 11.3333 3.33333 11.3333H10.6667C11.0349 11.3333 11.3333 11.6318 11.3333 12V13.3333C11.3333 13.7015 11.0349 14 10.6667 14H3.33333C2.96514 14 2.66667 13.7015 2.66667 13.3333Z" stroke="#525866" stroke-width="1.33333"/>
</svg>
