<svg width="20" height="20" viewBox="0 0 20 20" fill="none" xmlns="http://www.w3.org/2000/svg">
<g id="icons">
<path id="Vector" d="M16.125 8.36671C15.5583 5.49171 13.0333 3.33337 10 3.33337C7.59167 3.33337 5.5 4.70004 4.45833 6.70004C1.95 6.96671 0 9.09171 0 11.6667C0 14.425 2.24167 16.6667 5 16.6667H15.8333C18.1333 16.6667 20 14.8 20 12.5C20 10.3 18.2917 8.51671 16.125 8.36671ZM15.8333 15H5C3.15833 15 1.66667 13.5084 1.66667 11.6667C1.66667 9.95837 2.94167 8.53337 4.63333 8.35837L5.525 8.26671L5.94167 7.47504C6.73333 5.95004 8.28333 5.00004 10 5.00004C12.1833 5.00004 14.0667 6.55004 14.4917 8.69171L14.7417 9.94171L16.0167 10.0334C17.3167 10.1167 18.3333 11.2084 18.3333 12.5C18.3333 13.875 17.2083 15 15.8333 15ZM6.66667 10.8334H8.79167V13.3334H11.2083V10.8334H13.3333L10 7.50004L6.66667 10.8334Z" fill="#525866"/>
</g>
</svg>
