<svg width="20" height="20" viewBox="0 0 20 20" fill="none" xmlns="http://www.w3.org/2000/svg">
<g id="icons">
<path id="Vector" d="M9.9915 1.6665C5.3915 1.6665 1.6665 5.39984 1.6665 9.99984C1.6665 14.5998 5.3915 18.3332 9.9915 18.3332C14.5998 18.3332 18.3332 14.5998 18.3332 9.99984C18.3332 5.39984 14.5998 1.6665 9.9915 1.6665ZM9.99984 16.6665C6.3165 16.6665 3.33317 13.6832 3.33317 9.99984C3.33317 6.3165 6.3165 3.33317 9.99984 3.33317C13.6832 3.33317 16.6665 6.3165 16.6665 9.99984C16.6665 13.6832 13.6832 16.6665 9.99984 16.6665ZM12.9165 9.1665C13.6082 9.1665 14.1665 8.60817 14.1665 7.9165C14.1665 7.22484 13.6082 6.6665 12.9165 6.6665C12.2248 6.6665 11.6665 7.22484 11.6665 7.9165C11.6665 8.60817 12.2248 9.1665 12.9165 9.1665ZM7.08317 9.1665C7.77484 9.1665 8.33317 8.60817 8.33317 7.9165C8.33317 7.22484 7.77484 6.6665 7.08317 6.6665C6.3915 6.6665 5.83317 7.22484 5.83317 7.9165C5.83317 8.60817 6.3915 9.1665 7.08317 9.1665ZM9.99984 14.5832C11.9415 14.5832 13.5915 13.3665 14.2582 11.6665H5.7415C6.40817 13.3665 8.05817 14.5832 9.99984 14.5832Z" fill="#525866"/>
</g>
</svg>
