<svg width="230" height="83" viewBox="0 0 230 83" fill="none" xmlns="http://www.w3.org/2000/svg">
<g clip-path="url(#clip0_662_5027)">
<path fill-rule="evenodd" clip-rule="evenodd" d="M18.954 1.54688C21.7972 1.54688 24.102 3.85171 24.102 6.69487V13.1299C24.102 13.1975 24.1007 13.2651 24.098 13.3327L24.0937 13.4463L24.0812 13.7896C24.0706 14.0897 24.0558 14.5266 24.0393 15.0684C24.0064 16.153 23.9668 17.6527 23.9405 19.3136C23.8867 22.7071 23.8932 26.5289 24.0854 28.915C24.2361 30.7854 25.059 33.7685 26.9132 36.1562C28.6071 38.3375 31.2301 40.1569 35.685 40.1569C40.14 40.1569 42.763 38.3375 44.4569 36.1562C46.3111 33.7685 47.134 30.7854 47.2847 28.915C47.513 26.081 49.9954 23.9687 52.8294 24.1969C55.6634 24.4252 57.7757 26.9077 57.5474 29.7417C57.2691 33.1967 55.9041 38.202 52.5889 42.4711C49.1133 46.9468 43.5853 50.4529 35.685 50.4529C27.7848 50.4529 22.2568 46.9468 18.7812 42.4711C15.466 38.202 14.101 33.1967 13.8227 29.7417C13.5859 26.8022 13.5923 22.5248 13.6458 19.1505C13.6505 18.8541 13.6556 18.5628 13.661 18.2779H6.08403C3.24087 18.2779 0.936035 15.973 0.936035 13.1299C0.936035 10.2867 3.24087 7.98187 6.08403 7.98187H13.806V6.69487C13.806 3.85171 16.1109 1.54688 18.954 1.54688Z" fill="#353F9B"/>
<path fill-rule="evenodd" clip-rule="evenodd" d="M111.368 3.15776C113.379 5.16818 113.379 8.42772 111.368 10.4381L95.8354 25.9712L111.368 41.5043C113.379 43.5147 113.379 46.7742 111.368 48.7846C109.358 50.795 106.099 50.795 104.088 48.7846L84.9148 29.6114C82.9044 27.601 82.9044 24.3414 84.9148 22.331L104.088 3.15776C106.099 1.14734 109.358 1.14734 111.368 3.15776Z" fill="#353F9B"/>
<rect x="65.2861" y="1.54688" width="10.296" height="36.036" rx="5.148" fill="#353F9B"/>
<rect x="65.2861" y="40.1567" width="10.296" height="10.296" rx="5.148" fill="#353F9B"/>
<rect width="10.296" height="36.036" rx="5.148" transform="matrix(1 0 0 -1 124.488 50.4531)" fill="#353F9B"/>
<rect width="10.296" height="10.296" rx="5.148" transform="matrix(1 0 0 -1 124.488 11.8428)" fill="#353F9B"/>
</g>
<path d="M7.336 72.994V74.198H12.74V75.402H0.532V74.198H5.95V72.994H2.156V68.444H10.976V69.606H3.556V71.804H11.116V72.994H7.336ZM5.152 76.578H8.12C10.22 76.578 11.382 77.572 11.382 78.93C11.382 80.302 10.22 81.296 8.12 81.296H5.152C3.052 81.296 1.89 80.302 1.89 78.93C1.89 77.572 3.052 76.578 5.152 76.578ZM5.432 80.078H7.854C9.324 80.078 9.996 79.63 9.996 78.916C9.996 78.23 9.324 77.782 7.854 77.782H5.432C3.962 77.782 3.29 78.23 3.29 78.916C3.29 79.63 3.962 80.078 5.432 80.078ZM23.9722 73.05H25.9882V74.324H23.9722V81.156H22.5722V68.164H23.9722V73.05ZM17.0562 68.78C18.9042 68.78 20.4162 70.012 20.4162 73.134V75.108C20.4162 78.23 18.9042 79.462 17.0562 79.462C15.1802 79.462 13.6682 78.23 13.6682 75.108V73.134C13.6682 70.012 15.1802 68.78 17.0562 68.78ZM19.0302 75.094V73.148C19.0302 70.88 18.1622 70.054 17.0562 70.054C15.9362 70.054 15.0682 70.88 15.0682 73.148V75.094C15.0682 77.348 15.9362 78.188 17.0562 78.188C18.1622 78.188 19.0302 77.348 19.0302 75.094ZM37.7385 81.156H36.3525V68.164H37.7385V81.156ZM29.7585 79.308H27.3085V73.526H32.1525V70.376H27.3085V69.116H33.5525V74.758H28.7085V78.048H30.0105C31.4945 78.048 33.3425 77.894 34.9385 77.642L35.1065 78.86C33.5945 79.14 31.6205 79.308 29.7585 79.308ZM50.7767 81.156H49.3767V68.164H50.7767V81.156ZM43.9027 75.934C41.9707 75.934 40.4027 74.828 40.4027 72.49V72.238C40.4027 69.886 41.9707 68.78 43.9027 68.78C45.8347 68.78 47.3887 69.886 47.3887 72.238V72.49C47.3887 74.828 45.8347 75.934 43.9027 75.934ZM43.9027 74.66C45.0787 74.66 46.0027 73.946 46.0027 72.476V72.238C46.0027 70.768 45.0787 70.054 43.9027 70.054C42.7127 70.054 41.8027 70.768 41.8027 72.238V72.476C41.8027 73.946 42.7127 74.66 43.9027 74.66ZM41.9987 79.14H39.8427L39.7727 77.866H42.1247C43.7207 77.866 46.2547 77.698 48.2847 77.46L48.4387 78.692C46.4507 78.986 43.9027 79.14 41.9987 79.14ZM62.6834 75.864V78.902H68.0874V80.19H55.8794V78.902H61.2974V75.864H57.3774V69.032H66.6034V75.864H62.6834ZM65.2034 70.306H58.7774V74.604H65.2034V70.306ZM70.5417 68.444H79.3617V69.662H71.9417V72.364H79.5017V73.596H70.5417V68.444ZM81.1257 76.284H68.9177V74.996H81.1257V76.284ZM79.8377 81.156H70.5417V77.39H71.9417V79.854H79.8377V81.156ZM95.7904 73.806L90.9044 71.566C90.0364 72.434 88.6364 73.176 86.6204 73.806L86.1444 72.602C89.2664 71.594 90.6524 70.376 90.6524 68.976V68.304H92.0104V68.976C92.0104 69.508 91.9124 69.998 91.6884 70.46L96.3644 72.644L95.7904 73.806ZM85.1504 76.144V74.856H97.3584V76.144H91.9544V78.51H90.5684V76.144H85.1504ZM86.7464 77.39H88.1464V79.854H96.0704V81.156H86.7464V77.39ZM108.591 68.164V71.426H110.607V72.686H108.591V77.894H107.191V68.164H108.591ZM104.811 68.92V69.718C104.811 72.7 102.599 74.786 98.9726 76.158L98.3706 74.968C101.507 73.778 103.313 72 103.411 70.194H98.6646V68.92H104.811ZM100.275 76.942H101.661V79.882H109.263V81.156H100.275V76.942ZM118.381 72.476H116.295C114.125 72.476 112.655 71.846 112.655 70.334C112.655 68.85 114.125 68.234 116.295 68.234H118.381C120.551 68.234 122.007 68.85 122.007 70.334C122.007 71.846 120.551 72.476 118.381 72.476ZM116.561 71.37H118.115C119.739 71.37 120.621 71.034 120.621 70.348C120.621 69.662 119.739 69.354 118.115 69.354H116.561C114.937 69.354 114.055 69.662 114.055 70.348C114.055 71.048 114.937 71.37 116.561 71.37ZM123.435 74.548H111.227V73.414H123.435V74.548ZM122.287 81.226H112.725V77.838H120.551V76.732H112.655V75.626H121.951V78.944H114.125V80.078H122.287V81.226ZM137.19 75.654V68.164H138.59V75.654H137.19ZM135.342 72.77L131.506 71.216C130.806 71.916 129.742 72.49 128.286 72.966L127.768 71.79C130.204 70.964 131.17 70.026 131.17 68.738V68.374H132.5V68.738C132.5 69.242 132.416 69.704 132.234 70.124L135.86 71.566L135.342 72.77ZM132.248 76.172L130.862 76.074C130.904 75.654 130.946 75.22 130.974 74.8C130.568 74.814 130.176 74.814 129.812 74.814H127.642L127.586 73.638H129.938C131.534 73.638 134.068 73.484 136.112 73.232L136.252 74.38C135.076 74.548 133.69 74.674 132.36 74.744C132.332 75.206 132.29 75.696 132.248 76.172ZM131.254 77.572H137.19V76.34H138.59V81.156H129.854V76.34H131.254V77.572ZM131.254 78.706V80.008H137.19V78.706H131.254ZM149.892 70.698V70.446H141.786V69.172H151.278V70.306C151.278 72.182 151.012 74.618 150.606 76.83L149.234 76.606C149.626 74.478 149.892 72.042 149.892 70.698ZM146.35 73.694V78.902H152.706V80.19H140.498V78.902H144.964V73.694H146.35ZM158.089 72.882L157.767 71.734C160.581 71.216 162.023 70.418 162.233 69.522H158.425V68.374H167.245V69.522H163.605C163.577 69.83 163.493 70.124 163.339 70.404L167.903 71.72L167.483 72.882L162.429 71.398C161.547 72.042 160.119 72.518 158.089 72.882ZM156.731 74.548V73.414H168.939V74.548H156.731ZM167.455 78.944H159.629V80.092H167.791V81.226H158.229V77.838H166.055V76.746H158.159V75.626H167.455V78.944ZM179.513 71.3V68.164H180.899V74.912H179.513V72.532H175.789C174.753 73.68 173.073 74.52 170.889 75.15L170.385 73.904C173.507 73.036 175.341 71.622 175.523 70.124H170.679V68.85H176.951V69.55C176.951 70.18 176.825 70.768 176.601 71.3H179.513ZM173.703 77.096H179.513V75.598H180.899V81.156H172.303V75.598H173.703V77.096ZM173.703 78.328V79.91H179.513V78.328H173.703ZM192.775 81.156V68.164H194.147V81.156H192.775ZM187.917 73.316H189.961V68.36H191.291V80.89H189.961V74.59H187.511C186.811 76.452 185.621 78.118 184.067 79.602L183.059 78.58C185.607 76.27 186.923 73.358 186.923 70.614V70.46H183.367V69.186H188.281V70.334C188.281 71.384 188.155 72.364 187.917 73.316ZM197.301 82.836H196.153L196.461 78.79H197.875L197.301 82.836ZM212.088 81.156V68.164H213.474V81.156H212.088ZM204.444 78.048H205.732C207.23 78.048 209.078 77.908 210.674 77.642L210.842 78.86C209.33 79.14 207.37 79.308 205.494 79.308H203.044V69.116H209.498V70.376H204.444V73.526H209.358V74.758H204.444V78.048ZM225.112 81.156V68.164H226.512V81.156H225.112ZM221.248 70.46H216.18V69.186H222.662V70.334C222.662 74.156 220.394 77.348 216.726 79.7L215.9 78.594C217.846 77.376 219.316 75.892 220.212 74.31C218.98 74.422 217.44 74.506 216.264 74.52H215.984L215.914 73.246H216.166C217.398 73.232 219.47 73.148 220.814 73.008C221.094 72.21 221.248 71.412 221.248 70.614V70.46Z" fill="#353F9B"/>
<defs>
<clipPath id="clip0_662_5027">
<rect width="140" height="52" fill="white"/>
</clipPath>
</defs>
</svg>
