<svg width="108" height="40" viewBox="0 0 108 40" fill="none" xmlns="http://www.w3.org/2000/svg">
<g clip-path="url(#clip0_486_5023)">
<path fill-rule="evenodd" clip-rule="evenodd" d="M14.58 1.19043C16.7671 1.19043 18.54 2.96338 18.54 5.15043V10.1004C18.54 10.1524 18.539 10.2044 18.537 10.2564L18.5336 10.3439L18.524 10.6079C18.5158 10.8388 18.5045 11.1748 18.4918 11.5916C18.4664 12.4259 18.436 13.5796 18.4158 14.8571C18.3744 17.4675 18.3794 20.4074 18.5272 22.2428C18.6432 23.6816 19.2762 25.9763 20.7025 27.813C22.0054 29.4909 24.0232 30.8904 27.45 30.8904C30.8769 30.8904 32.8946 29.4909 34.1976 27.813C35.6239 25.9763 36.2569 23.6816 36.3728 22.2428C36.5484 20.0628 38.458 18.438 40.638 18.6136C42.818 18.7892 44.4429 20.6988 44.2672 22.8787C44.0532 25.5365 43.0032 29.3867 40.453 32.6706C37.7794 36.1134 33.5272 38.8104 27.45 38.8104C21.3729 38.8104 17.1206 36.1134 14.4471 32.6706C11.8969 29.3867 10.8469 25.5365 10.6328 22.8787C10.4507 20.6176 10.4556 17.3273 10.4968 14.7316C10.5004 14.5037 10.5043 14.2796 10.5085 14.0604H4.68003C2.49298 14.0604 0.720032 12.2875 0.720032 10.1004C0.720032 7.91338 2.49298 6.14043 4.68003 6.14043H10.62V5.15043C10.62 2.96338 12.393 1.19043 14.58 1.19043Z" fill="#6D77FF"/>
<path fill-rule="evenodd" clip-rule="evenodd" d="M85.6681 2.42905C87.2145 3.97553 87.2145 6.48286 85.6681 8.02933L73.7196 19.9778L85.6681 31.9263C87.2145 33.4728 87.2145 35.9802 85.6681 37.5266C84.1216 39.0731 81.6143 39.0731 80.0678 37.5266L65.3191 22.778C63.7727 21.2315 63.7727 18.7242 65.3191 17.1777L80.0678 2.42905C81.6143 0.882573 84.1216 0.882573 85.6681 2.42905Z" fill="#6D77FF"/>
<rect x="50.22" y="1.19043" width="7.92" height="27.72" rx="3.96" fill="#6D77FF"/>
<rect x="50.22" y="30.8896" width="7.92" height="7.92" rx="3.96" fill="#6D77FF"/>
<rect width="7.92" height="27.72" rx="3.96" transform="matrix(1 0 0 -1 95.76 38.8096)" fill="#6D77FF"/>
<rect width="7.92" height="7.92" rx="3.96" transform="matrix(1 0 0 -1 95.76 9.11035)" fill="#6D77FF"/>
</g>
<defs>
<clipPath id="clip0_486_5023">
<rect width="108" height="40" fill="white"/>
</clipPath>
</defs>
</svg>
