<svg width="46" height="46" viewBox="0 0 46 46" fill="none" xmlns="http://www.w3.org/2000/svg">
<rect x="1.5" y="1.5" width="43" height="43" rx="21.5" fill="white"/>
<rect x="1.5" y="1.5" width="43" height="43" rx="21.5" stroke="#FAFAFA" stroke-width="3"/>
<path fill-rule="evenodd" clip-rule="evenodd" d="M19.78 15C19.13 15 18.65 15.61 18.81 16.24L19.5 19H19.52C16.95 19 14.8 20.95 14.54 23.5L14.17 27.22C14.05 28.37 14.34 29.53 14.98 30.49L15.1 30.66C15.66 31.49 16.59 32 17.6 32H28.39C29.39 32 30.33 31.5 30.89 30.66L31.01 30.49C31.65 29.53 31.94 28.37 31.82 27.22L31.45 23.5C31.19 20.94 29.04 19 26.47 19H26.49L27.18 16.24C27.34 15.61 26.86 15 26.21 15H19.77H19.78Z" fill="#353F9B"/>
<path fill-rule="evenodd" clip-rule="evenodd" d="M23.4999 22.0498C23.9999 22.1598 24.3599 22.4298 24.6099 22.7698C24.9099 23.1898 24.9999 23.6698 24.9999 23.9998H23.9999C23.9999 23.8298 23.9399 23.5598 23.7899 23.3498C23.6599 23.1698 23.4299 22.9998 22.9999 22.9998C22.5699 22.9998 22.3399 23.1698 22.2099 23.3498C22.1099 23.4898 22.0499 23.6598 22.0199 23.8098L24.8599 26.6498L24.9399 26.7298L24.9799 26.8398C25.0899 27.1798 25.1399 27.7198 24.8399 28.1998C24.5799 28.6098 24.1399 28.8798 23.4999 28.9598V29.9898H22.4999V28.9598C21.8699 28.8698 21.4499 28.5998 21.2099 28.1798C20.9799 27.7698 20.9899 27.2998 20.9999 27.0698C20.9999 27.0398 20.9999 27.0198 20.9999 26.9998H21.9999V27.0798C21.9999 27.3498 21.9999 27.5398 22.0899 27.6998C22.1499 27.7998 22.3099 28.0098 22.9999 28.0098C23.6899 28.0098 23.9199 27.7998 23.9899 27.6798C24.0599 27.5598 24.0799 27.4098 24.0499 27.2698L21.1499 24.3698L20.9999 24.2198V24.0098C20.9999 23.6798 21.0899 23.1998 21.3899 22.7798C21.6299 22.4398 21.9999 22.1698 22.4999 22.0598V21.0098H23.4999V22.0598V22.0498Z" fill="#D9D9D9"/>
</svg>
