<svg width="24" height="24" viewBox="0 0 24 24" fill="none" xmlns="http://www.w3.org/2000/svg">
<path fill-rule="evenodd" clip-rule="evenodd" d="M8.78009 4C8.13009 4 7.65009 4.61 7.81009 5.24L8.50009 8H8.52009C5.95009 8 3.80009 9.95 3.54009 12.5L3.17009 16.22C3.05009 17.37 3.34009 18.53 3.98009 19.49L4.10009 19.66C4.66009 20.49 5.59009 21 6.60009 21H17.3901C18.3901 21 19.3301 20.5 19.8901 19.66L20.0101 19.49C20.6501 18.53 20.9401 17.37 20.8201 16.22L20.4501 12.5C20.1901 9.94 18.0401 8 15.4701 8H15.4901L16.1801 5.24C16.3401 4.61 15.8601 4 15.2101 4H8.77009H8.78009Z" fill="#E8E8E8"/>
<path fill-rule="evenodd" clip-rule="evenodd" d="M12.5002 11.0498C13.0002 11.1598 13.3602 11.4298 13.6102 11.7698C13.9102 12.1898 14.0002 12.6698 14.0002 12.9998H13.0002C13.0002 12.8298 12.9402 12.5598 12.7902 12.3498C12.6602 12.1698 12.4302 11.9998 12.0002 11.9998C11.5702 11.9998 11.3402 12.1698 11.2102 12.3498C11.1102 12.4898 11.0502 12.6598 11.0202 12.8098L13.8602 15.6498L13.9402 15.7298L13.9802 15.8398C14.0902 16.1798 14.1402 16.7198 13.8402 17.1998C13.5802 17.6098 13.1402 17.8798 12.5002 17.9598V18.9898H11.5002V17.9598C10.8702 17.8698 10.4502 17.5998 10.2102 17.1798C9.98018 16.7698 9.99018 16.2998 10.0002 16.0698C10.0002 16.0398 10.0002 16.0198 10.0002 15.9998H11.0002V16.0798C11.0002 16.3498 11.0002 16.5398 11.0902 16.6998C11.1502 16.7998 11.3102 17.0098 12.0002 17.0098C12.6902 17.0098 12.9202 16.7998 12.9902 16.6798C13.0602 16.5598 13.0802 16.4098 13.0502 16.2698L10.1502 13.3698L10.0002 13.2198V13.0098C10.0002 12.6798 10.0902 12.1998 10.3902 11.7798C10.6302 11.4398 11.0002 11.1698 11.5002 11.0598V10.0098H12.5002V11.0598V11.0498Z" fill="#556480"/>
</svg>
