<svg width="40" height="40" viewBox="0 0 40 40" fill="none" xmlns="http://www.w3.org/2000/svg">
<path fill-rule="evenodd" clip-rule="evenodd" d="M20.7 12.9998C20.7 12.6132 20.3866 12.2998 20 12.2998C19.6134 12.2998 19.3 12.6132 19.3 12.9998V19.2998H13C12.6134 19.2998 12.3 19.6132 12.3 19.9998C12.3 20.3864 12.6134 20.6998 13 20.6998H19.3V26.9998C19.3 27.3864 19.6134 27.6998 20 27.6998C20.3866 27.6998 20.7 27.3864 20.7 26.9998V20.6998H27C27.3866 20.6998 27.7 20.3864 27.7 19.9998C27.7 19.6132 27.3866 19.2998 27 19.2998H20.7V12.9998Z" fill="white"/>
</svg>
