<svg width="24" height="24" viewBox="0 0 24 24" fill="none" xmlns="http://www.w3.org/2000/svg">
<g id="Property 1=calender">
<path id="Vector" d="M18.5 4.5H17.5V2.5H15.5V4.5H7.5V2.5H5.5V4.5H4.5C3.39 4.5 2.51 5.4 2.51 6.5L2.5 20.5C2.5 21.6 3.39 22.5 4.5 22.5H18.5C19.6 22.5 20.5 21.6 20.5 20.5V6.5C20.5 5.4 19.6 4.5 18.5 4.5ZM18.5 20.5H4.5V10.5H18.5V20.5ZM18.5 8.5H4.5V6.5H18.5V8.5ZM8.5 14.5H6.5V12.5H8.5V14.5ZM12.5 14.5H10.5V12.5H12.5V14.5ZM16.5 14.5H14.5V12.5H16.5V14.5ZM8.5 18.5H6.5V16.5H8.5V18.5ZM12.5 18.5H10.5V16.5H12.5V18.5ZM16.5 18.5H14.5V16.5H16.5V18.5Z" fill="#ADADAD"/>
</g>
</svg>
