<svg width="16" height="16" viewBox="0 0 16 16" fill="none" xmlns="http://www.w3.org/2000/svg">
<g clip-path="url(#clip0_948_1826)">
<path fill-rule="evenodd" clip-rule="evenodd" d="M7.99701 1.40014C7.20999 1.40128 6.3717 1.9831 5.6955 3.20027C5.40916 3.71568 5.16634 4.3232 4.98259 4.99994H11.0161C10.8323 4.3232 10.5895 3.71568 10.3031 3.20027C9.62628 1.98191 8.78701 1.40014 7.99932 1.40014L7.99701 1.40014ZM4.64656 2.61753C4.26416 3.30585 3.95757 4.11285 3.74409 4.99994H2.11941C2.73888 3.78814 3.72195 2.79308 4.92473 2.15864C4.82708 2.30631 4.73429 2.4596 4.64656 2.61753ZM3.51976 6.19988H1.64821C1.48637 6.77206 1.39977 7.37584 1.39977 7.99983C1.39977 8.62382 1.48637 9.22757 1.6482 9.79974H3.51976C3.44092 9.22042 3.39954 8.61753 3.39954 7.99983C3.39954 7.38212 3.44092 6.77922 3.51976 6.19988ZM3.74408 10.9997H2.11939C2.73886 12.2115 3.72194 13.2066 4.92473 13.841C4.82708 13.6934 4.73429 13.5401 4.64656 13.3821C4.26415 12.6938 3.95756 11.8868 3.74408 10.9997ZM0.607063 10.4938C0.618644 10.5673 0.64359 10.6364 0.679337 10.6986C1.777 13.6749 4.63806 15.7977 7.99516 15.7995L7.99932 15.7995H7.99947C11.3587 15.7995 14.222 13.6758 15.3199 10.6978C15.3552 10.6361 15.38 10.5676 15.3916 10.4947C15.6558 9.71134 15.7991 8.87232 15.7991 7.99983C15.7991 7.12736 15.6559 6.28835 15.3916 5.50503C15.38 5.43206 15.3552 5.36347 15.3198 5.30177C14.2219 2.32381 11.3587 0.200195 7.99947 0.200195C4.64055 0.200195 1.77754 2.32344 0.679376 5.301C0.643597 5.36315 0.618632 5.43231 0.607051 5.50592C0.342974 6.28898 0.199829 7.12769 0.199829 7.99983C0.199829 8.87199 0.342978 9.71071 0.607063 10.4938ZM14.3507 9.79974C14.5126 9.22757 14.5992 8.62382 14.5992 7.99983C14.5992 7.37584 14.5126 6.77206 14.3507 6.19988H12.4789C12.5577 6.77922 12.5991 7.38212 12.5991 7.99983C12.5991 8.61753 12.5577 9.22042 12.4789 9.79974H14.3507ZM11.0161 10.9997C10.8323 11.6764 10.5895 12.284 10.3031 12.7994C9.62628 14.0178 8.78701 14.5995 7.99932 14.5995C7.21163 14.5995 6.37236 14.0178 5.6955 12.7994C5.40915 12.284 5.16633 11.6764 4.98258 10.9997H11.0161ZM11.2667 9.79974H4.7319C4.64593 9.22924 4.59948 8.62587 4.59948 7.99983C4.59948 7.37378 4.64593 6.7704 4.7319 6.19988H11.2667C11.3527 6.7704 11.3992 7.37378 11.3992 7.99983C11.3992 8.62587 11.3527 9.22924 11.2667 9.79974ZM12.2546 10.9997H13.8795C13.26 12.2117 12.2768 13.2068 11.0738 13.8413C11.1715 13.6935 11.2643 13.5401 11.3521 13.3821C11.7345 12.6938 12.0411 11.8868 12.2546 10.9997ZM11.0738 2.15841C12.2767 2.79284 13.26 3.78799 13.8795 4.99994H12.2546C12.0411 4.11285 11.7345 3.30585 11.3521 2.61753C11.2643 2.45952 11.1715 2.30615 11.0738 2.15841Z" fill="white"/>
</g>
<defs>
<clipPath id="clip0_948_1826">
<rect width="16" height="16" fill="white"/>
</clipPath>
</defs>
</svg>
