<svg width="24" height="24" viewBox="0 0 24 24" fill="none" xmlns="http://www.w3.org/2000/svg">
<path fill-rule="evenodd" clip-rule="evenodd" d="M17.4002 14.0001C17.5002 14.0001 17.5002 14.0001 17.5002 13.9001C17.9002 13.5001 16.3002 11.5001 14.0002 9.50014C11.7002 7.50014 9.60019 6.20014 9.2002 6.60014C9.2002 6.60014 9.2002 6.70014 9.1002 6.70014L5.4002 16.2001C5.2002 17.1001 5.4002 18.0001 6.0002 18.6001L6.1002 18.7001C6.7002 19.3001 7.60019 19.4001 8.40019 18.9001L17.4002 14.0001Z" fill="#556480"/>
<path d="M17.0999 13.5999C16.6999 13.9999 14.9999 13.0999 12.6999 11.0999C10.3999 9.09989 9.19993 7.49989 9.59993 7.09989C9.99993 6.69989 11.6999 7.59989 13.9999 9.59989C16.2999 11.5999 17.4999 13.1999 17.0999 13.5999Z" fill="#D9D9D9"/>
<path fill-rule="evenodd" clip-rule="evenodd" d="M19.2 4.8999L19.5 5.8999C19.7 6.5999 19.3 7.1999 18.6 7.3999L18.1 7.4999C18 7.4999 17.9 7.6999 17.9 7.7999C18.1 8.3999 17.5 8.9999 16.9 8.6999L16.4 8.4999C16.1 8.3999 15.7 8.5999 15.7 8.9999V9.0999C15.7 9.6999 15.2 10.1999 14.6 10.1999H14V9.7999H14.7C15 9.7999 15.3 9.5999 15.3 9.1999V9.0999C15.3 8.3999 16 7.8999 16.7 8.1999L17.2 8.3999C17.4 8.4999 17.6 8.2999 17.5 8.0999C17.4 7.6999 17.6 7.2999 18 7.0999L18.5 6.9999C18.9 6.8999 19.1 6.4999 19 6.0999L18.7 5.0999L19.2 4.8999Z" fill="#556480"/>
<path fill-rule="evenodd" clip-rule="evenodd" d="M10.0998 5.2998C11.7998 6.1998 11.8998 7.7998 11.6998 8.5998L11.1998 8.4998C11.2998 7.8998 11.2998 6.4998 9.7998 5.7998L10.0998 5.2998Z" fill="#556480"/>
<path fill-rule="evenodd" clip-rule="evenodd" d="M17.4999 11.3C16.6999 11.4 15.9999 11.6 15.5999 11.7L15.3999 11.2C15.7999 11 16.5999 10.8 17.3999 10.8C18.1999 10.7 19.1999 10.8 20.0999 11.3L19.8999 11.7C19.0999 11.4 18.2999 11.3 17.4999 11.3Z" fill="#556480"/>
<path d="M16 5.4L17 5L17.3 6L16.4 6.4L16 5.4Z" fill="#D9D9D9"/>
<path d="M13 7.4L13.9 7L14.3 7.9L13.4 8.3L13 7.4Z" fill="#D9D9D9"/>
<path d="M12 5.6L12.7 5L13.3 5.8L12.5 6.4L12 5.6Z" fill="#556480"/>
</svg>
