<svg width="40" height="40" viewBox="0 0 40 40" fill="none" xmlns="http://www.w3.org/2000/svg">
<path fill-rule="evenodd" clip-rule="evenodd" d="M19.997 13.4001C19.21 13.4013 18.3717 13.9831 17.6955 15.2003C17.4092 15.7157 17.1663 16.3232 16.9826 16.9999H23.0161C22.8323 16.3232 22.5895 15.7157 22.3031 15.2003C21.6263 13.9819 20.787 13.4001 19.9993 13.4001L19.997 13.4001ZM16.6466 14.6175C16.2642 15.3059 15.9576 16.1128 15.7441 16.9999H14.1194C14.7389 15.7881 15.7219 14.7931 16.9247 14.1586C16.8271 14.3063 16.7343 14.4596 16.6466 14.6175ZM15.5198 18.1999H13.6482C13.4864 18.7721 13.3998 19.3758 13.3998 19.9998C13.3998 20.6238 13.4864 21.2276 13.6482 21.7997H15.5198C15.4409 21.2204 15.3995 20.6175 15.3995 19.9998C15.3995 19.3821 15.4409 18.7792 15.5198 18.1999ZM15.7441 22.9997H14.1194C14.7389 24.2115 15.7219 25.2066 16.9247 25.841C16.8271 25.6934 16.7343 25.5401 16.6466 25.3821C16.2642 24.6938 15.9576 23.8868 15.7441 22.9997ZM12.6071 22.4938C12.6186 22.5673 12.6436 22.6364 12.6793 22.6986C13.777 25.6749 16.6381 27.7977 19.9952 27.7995L19.9993 27.7995H19.9995C23.3587 27.7995 26.222 25.6758 27.3199 22.6978C27.3552 22.6361 27.38 22.5676 27.3916 22.4947C27.6558 21.7113 27.7991 20.8723 27.7991 19.9998C27.7991 19.1274 27.6559 18.2884 27.3916 17.505C27.38 17.4321 27.3552 17.3635 27.3198 17.3018C26.2219 14.3238 23.3587 12.2002 19.9995 12.2002C16.6405 12.2002 13.7775 14.3234 12.6794 17.301C12.6436 17.3631 12.6186 17.4323 12.6071 17.5059C12.343 18.289 12.1998 19.1277 12.1998 19.9998C12.1998 20.872 12.343 21.7107 12.6071 22.4938ZM26.3507 21.7997C26.5126 21.2276 26.5992 20.6238 26.5992 19.9998C26.5992 19.3758 26.5126 18.7721 26.3507 18.1999H24.4789C24.5577 18.7792 24.5991 19.3821 24.5991 19.9998C24.5991 20.6175 24.5577 21.2204 24.4789 21.7997H26.3507ZM23.0161 22.9997C22.8323 23.6764 22.5895 24.284 22.3031 24.7994C21.6263 26.0178 20.787 26.5995 19.9993 26.5995C19.2116 26.5995 18.3724 26.0178 17.6955 24.7994C17.4092 24.284 17.1663 23.6764 16.9826 22.9997H23.0161ZM23.2667 21.7997H16.7319C16.6459 21.2292 16.5995 20.6259 16.5995 19.9998C16.5995 19.3738 16.6459 18.7704 16.7319 18.1999H23.2667C23.3527 18.7704 23.3992 19.3738 23.3992 19.9998C23.3992 20.6259 23.3527 21.2292 23.2667 21.7997ZM24.2546 22.9997H25.8795C25.26 24.2117 24.2768 25.2068 23.0738 25.8413C23.1715 25.6935 23.2643 25.5401 23.3521 25.3821C23.7345 24.6938 24.0411 23.8868 24.2546 22.9997ZM23.0738 14.1584C24.2767 14.7928 25.26 15.788 25.8795 16.9999H24.2546C24.0411 16.1128 23.7345 15.3059 23.3521 14.6175C23.2643 14.4595 23.1715 14.3061 23.0738 14.1584Z" fill="white"/>
</svg>
