<svg width="36" height="36" viewBox="0 0 36 36" fill="none" xmlns="http://www.w3.org/2000/svg">
<path d="M22.6667 18.6667H13.3333C12.6 18.6667 12 19.2667 12 20V22.6667C12 23.4 12.6 24 13.3333 24H22.6667C23.4 24 24 23.4 24 22.6667V20C24 19.2667 23.4 18.6667 22.6667 18.6667ZM22.6667 22.6667H13.3333V20H22.6667V22.6667Z" fill="#525866"/>
<path d="M22.6667 12H13.3333C12.6 12 12 12.6 12 13.3333V16C12 16.7333 12.6 17.3333 13.3333 17.3333H18H22.6667C23.4 17.3333 24 16.7333 24 16V13.3333C24 12.6 23.4 12 22.6667 12ZM22.6667 16H13.3333V13.3333H22.6667V16Z" fill="#525866"/>
</svg>
