<svg width="10" height="10" viewBox="0 0 10 10" fill="none" xmlns="http://www.w3.org/2000/svg">
<path d="M7.29167 1.25C6.4875 1.25 5.83333 1.90417 5.83333 2.70833V3.33333H4.16667V2.70833C4.16667 1.90417 3.5125 1.25 2.70833 1.25C1.90417 1.25 1.25 1.90417 1.25 2.70833C1.25 3.5125 1.90417 4.16667 2.70833 4.16667H3.33333V5.83333H2.70833C1.90417 5.83333 1.25 6.4875 1.25 7.29167C1.25 8.09583 1.90417 8.75 2.70833 8.75C3.5125 8.75 4.16667 8.09583 4.16667 7.29167V6.66667H5.83333V7.29167C5.83333 8.09583 6.4875 8.75 7.29167 8.75C8.09583 8.75 8.75 8.09583 8.75 7.29167C8.75 6.4875 8.09583 5.83333 7.29167 5.83333H6.66667V4.16667H7.29167C8.09583 4.16667 8.75 3.5125 8.75 2.70833C8.75 1.90417 8.09583 1.25 7.29167 1.25ZM6.66667 3.33333V2.70833C6.66667 2.3625 6.94583 2.08333 7.29167 2.08333C7.6375 2.08333 7.91667 2.3625 7.91667 2.70833C7.91667 3.05417 7.6375 3.33333 7.29167 3.33333H6.66667ZM2.70833 3.33333C2.3625 3.33333 2.08333 3.05417 2.08333 2.70833C2.08333 2.3625 2.3625 2.08333 2.70833 2.08333C3.05417 2.08333 3.33333 2.3625 3.33333 2.70833V3.33333H2.70833ZM4.16667 5.83333V4.16667H5.83333V5.83333H4.16667ZM7.29167 7.91667C6.94583 7.91667 6.66667 7.6375 6.66667 7.29167V6.66667H7.29167C7.6375 6.66667 7.91667 6.94583 7.91667 7.29167C7.91667 7.6375 7.6375 7.91667 7.29167 7.91667ZM2.70833 7.91667C2.3625 7.91667 2.08333 7.6375 2.08333 7.29167C2.08333 6.94583 2.3625 6.66667 2.70833 6.66667H3.33333V7.29167C3.33333 7.6375 3.05417 7.91667 2.70833 7.91667Z" fill="#525866"/>
</svg>
