<svg width="28" height="28" viewBox="0 0 28 28" fill="none" xmlns="http://www.w3.org/2000/svg">
<path d="M6.02246 21.6054L16.3928 17.9017L9.72616 11.2351L6.02246 21.6054ZM13.6891 17.2943L8.46691 19.161L10.3336 13.9388L13.6891 17.2943Z" fill="#99A1B2"/>
<path d="M15.3039 14.5906L19.4447 10.4499C19.8076 10.0869 20.3928 10.0869 20.7558 10.4499L21.1928 10.8869L21.978 10.1017L21.541 9.6647C20.7484 8.87211 19.4521 8.87211 18.6595 9.6647L14.5188 13.8054L15.3039 14.5906Z" fill="#99A1B2"/>
<path d="M11.9928 10.4054L11.5558 10.8425L12.341 11.6277L12.778 11.1906C13.5706 10.398 13.5706 9.10174 12.778 8.30914L12.341 7.87211L11.5558 8.6647L11.9928 9.10174C12.3484 9.45729 12.3484 10.0499 11.9928 10.4054Z" fill="#99A1B2"/>
<path d="M17.178 14.1091L16.0002 15.2869L16.7854 16.0721L17.9632 14.8943C18.3262 14.5314 18.9113 14.5314 19.2743 14.8943L20.4669 16.0869L21.2521 15.3017L20.0595 14.1091C19.2595 13.3166 17.9706 13.3166 17.178 14.1091Z" fill="#99A1B2"/>
<path d="M15.6965 9.6647L13.0373 12.324L13.8225 13.1091L16.4817 10.4499C17.2743 9.65729 17.2743 8.361 16.4817 7.5684L15.3039 6.39062L14.5188 7.17581L15.6965 8.35359C16.0521 8.71655 16.0521 9.30914 15.6965 9.6647Z" fill="#99A1B2"/>
</svg>
