<svg width="24" height="24" viewBox="0 0 24 24" fill="none" xmlns="http://www.w3.org/2000/svg">
<path fill-rule="evenodd" clip-rule="evenodd" d="M18.7758 15.0083C18.9147 15.0083 18.9147 15.0083 18.9147 14.8743C19.4705 14.3386 17.2476 11.6598 14.0522 8.98105C10.8568 6.30229 7.93926 4.5611 7.38354 5.09685C7.38354 5.09685 7.38354 5.23078 7.24461 5.23078L2.1042 17.9549C1.82634 19.1603 2.1042 20.3658 2.93778 21.1694L3.07671 21.3033C3.91029 22.107 5.16066 22.2409 6.2721 21.5712L18.7758 15.0083Z" fill="#353F9B"/>
<path d="M18.8808 14.8608C18.2535 15.4591 15.5876 14.113 11.9807 11.1217C8.37377 8.13045 6.49191 5.73742 7.11919 5.13917C7.74648 4.54091 10.4124 5.88699 14.0193 8.87827C17.6262 11.8696 19.5081 14.2626 18.8808 14.8608Z" fill="#D9D9D9"/>
<path fill-rule="evenodd" clip-rule="evenodd" d="M20.6201 3L20.9444 4.13208C21.1605 4.92453 20.7282 5.60377 19.9716 5.83019L19.4312 5.9434C19.3232 5.9434 19.2151 6.16981 19.2151 6.28302C19.4312 6.96226 18.7828 7.64151 18.1343 7.30189L17.5939 7.07547C17.2697 6.96226 16.8373 7.18868 16.8373 7.64151V7.75472C16.8373 8.43396 16.297 9 15.6485 9H15V8.54717H15.7566C16.0808 8.54717 16.405 8.32075 16.405 7.86792V7.75472C16.405 6.96226 17.1616 6.39623 17.9181 6.73585L18.4585 6.96226C18.6747 7.07547 18.8909 6.84906 18.7828 6.62264C18.6747 6.16981 18.8909 5.71698 19.3232 5.49057L19.8636 5.37736C20.2959 5.26415 20.512 4.81132 20.404 4.35849L20.0797 3.22641L20.6201 3Z" fill="#353F9B"/>
<path fill-rule="evenodd" clip-rule="evenodd" d="M7.45578 3C10.0385 4.09091 10.1905 6.0303 9.88662 7L9.12698 6.87879C9.27891 6.15151 9.27891 4.45455 7 3.60606L7.45578 3Z" fill="#353F9B"/>
<path fill-rule="evenodd" clip-rule="evenodd" d="M18.6809 10.5721C17.6596 10.6791 16.766 10.893 16.2553 11L16 10.4652C16.5106 10.2512 17.5319 10.0373 18.5532 10.0373C19.5745 9.93031 20.8511 10.0373 22 10.5721L21.7447 11C20.7234 10.6791 19.7021 10.5721 18.6809 10.5721Z" fill="#353F9B"/>
<path d="M17 3.57143L18.5385 3L19 4.42857L17.6154 5L17 3.57143Z" fill="#D9D9D9"/>
<path d="M12 5.61538L14.0769 5L15 6.38462L12.9231 7L12 5.61538Z" fill="#D9D9D9"/>
<path d="M10 3.85714L12.1538 3L14 4.14286L11.5385 5L10 3.85714Z" fill="#353F9B"/>
</svg>
