    <svg width="40" height="40" viewBox="0 0 40 40" fill="none" xmlns="http://www.w3.org/2000/svg">
<mask id="path-1-inside-1_1982_1900" fill="white">
<path d="M24.3815 26.7689H15.6185C14.5408 26.7689 14.002 26.7689 13.5734 26.6031C12.9269 26.353 12.4159 25.842 12.1658 25.1955C12 24.7669 12 24.2281 12 23.1505V16.849C12 15.7713 12 15.2325 12.1658 14.8039C12.4159 14.1575 12.9269 13.6464 13.5734 13.3963C14.002 13.2305 14.5408 13.2305 15.6184 13.2305L16.5684 13.2305C16.6799 13.2305 16.7357 13.2305 16.7887 13.2404C16.8684 13.2553 16.9442 13.2866 17.0111 13.3325C17.0556 13.363 17.095 13.4024 17.1739 13.4813L19.1338 15.4411C19.2127 15.52 19.2521 15.5594 19.2966 15.5899C19.3635 15.6358 19.4393 15.6672 19.519 15.682C19.572 15.6919 19.6278 15.6919 19.7393 15.6919L24.3816 15.692C25.4592 15.692 25.998 15.692 26.4266 15.8578C27.0731 16.1079 27.5841 16.6189 27.8342 17.2654C28 17.694 28 18.2328 28 19.3104V23.1505C28 24.2281 28 24.7669 27.8342 25.1955C27.5841 25.842 27.0731 26.353 26.4266 26.6031C25.998 26.7689 25.4592 26.7689 24.3815 26.7689Z"/>
</mask>
<path d="M24.3816 15.692L24.3816 14.492L24.3816 15.692ZM19.7393 15.6919L19.7393 14.4919L19.7393 15.6919ZM19.1338 15.4411L19.9823 14.5926L19.9823 14.5926L19.1338 15.4411ZM17.1739 13.4813L16.3254 14.3298L16.3254 14.3298L17.1739 13.4813ZM16.5684 13.2305L16.5684 14.4305L16.5684 13.2305ZM15.6184 13.2305L15.6184 12.0305L15.6184 13.2305ZM13.5734 13.3963L14.0063 14.5155L13.5734 13.3963ZM12.1658 14.8039L13.285 15.2369L12.1658 14.8039ZM17.0111 13.3325L16.3327 14.3223L16.3327 14.3223L17.0111 13.3325ZM16.7887 13.2404L17.0089 12.0607L17.0089 12.0607L16.7887 13.2404ZM19.519 15.682L19.7392 14.5024L19.7392 14.5024L19.519 15.682ZM19.2966 15.5899L18.6182 16.5798L18.6182 16.5798L19.2966 15.5899ZM27.8342 17.2654L26.715 17.6983L27.8342 17.2654ZM26.4266 15.8578L26.8596 14.7386L26.8596 14.7386L26.4266 15.8578ZM26.4266 26.6031L25.9936 25.484V25.484L26.4266 26.6031ZM27.8342 25.1955L26.715 24.7626H26.715L27.8342 25.1955ZM13.5734 26.6031L13.1404 27.7223H13.1404L13.5734 26.6031ZM12.1658 25.1955L13.285 24.7626H13.285L12.1658 25.1955ZM15.6185 27.9689H24.3815V25.5689H15.6185V27.9689ZM29.2 23.1505V19.3104H26.8V23.1505H29.2ZM24.3816 14.492L19.7393 14.4919L19.7393 16.8919L24.3816 16.892L24.3816 14.492ZM19.9823 14.5926L18.0224 12.6327L16.3254 14.3298L18.2853 16.2897L19.9823 14.5926ZM16.5683 12.0305L15.6184 12.0305L15.6184 14.4305L16.5684 14.4305L16.5683 12.0305ZM10.8 16.849V23.1505H13.2V16.849H10.8ZM15.6184 12.0305C15.095 12.0305 14.6459 12.0299 14.2756 12.0537C13.8954 12.0781 13.5166 12.1316 13.1404 12.2772L14.0063 14.5155C14.0588 14.4952 14.1636 14.4658 14.4294 14.4488C14.705 14.4311 15.0642 14.4305 15.6184 14.4305L15.6184 12.0305ZM13.2 16.849C13.2 16.2947 13.2006 15.9355 13.2183 15.6599C13.2353 15.3942 13.2647 15.2893 13.285 15.2369L11.0466 14.3709C10.9011 14.7471 10.8476 15.126 10.8232 15.5062C10.7994 15.8765 10.8 16.3255 10.8 16.849H13.2ZM13.1404 12.2772C12.1788 12.6492 11.4186 13.4094 11.0466 14.3709L13.285 15.2369C13.4131 14.9056 13.6751 14.6437 14.0063 14.5155L13.1404 12.2772ZM18.0224 12.6327C17.975 12.5853 17.8469 12.4505 17.6895 12.3426L16.3327 14.3223C16.3225 14.3153 16.3129 14.3084 16.304 14.3016C16.2951 14.2949 16.2874 14.2888 16.2811 14.2836C16.2748 14.2784 16.27 14.2742 16.2668 14.2714C16.2652 14.27 16.264 14.269 16.2632 14.2682C16.2624 14.2675 16.262 14.2671 16.262 14.2671C16.262 14.2671 16.2624 14.2674 16.2631 14.2681C16.2639 14.2689 16.2649 14.2699 16.2664 14.2713C16.2694 14.2742 16.2734 14.2781 16.279 14.2836C16.2846 14.2891 16.291 14.2955 16.2989 14.3034C16.3068 14.3113 16.3154 14.3198 16.3254 14.3298L18.0224 12.6327ZM16.5684 14.4305C16.5825 14.4305 16.5946 14.4305 16.6058 14.4305C16.6169 14.4305 16.6261 14.4305 16.6339 14.4306C16.6417 14.4307 16.6474 14.4307 16.6515 14.4308C16.6535 14.4308 16.655 14.4309 16.656 14.4309C16.6571 14.4309 16.6575 14.4309 16.6575 14.4309C16.6575 14.4309 16.6569 14.4309 16.6559 14.4309C16.6548 14.4308 16.6532 14.4307 16.6511 14.4306C16.6469 14.4303 16.6405 14.4299 16.6324 14.4291C16.6242 14.4283 16.6145 14.4272 16.6034 14.4257C16.5924 14.4241 16.5807 14.4223 16.5685 14.42L17.0089 12.0607C16.8213 12.0257 16.6354 12.0305 16.5683 12.0305L16.5684 14.4305ZM17.6895 12.3426C17.4847 12.2023 17.2529 12.1063 17.0089 12.0607L16.5685 14.42C16.484 14.4042 16.4037 14.371 16.3327 14.3223L17.6895 12.3426ZM19.7393 14.4919C19.7252 14.4919 19.7131 14.4919 19.7019 14.4919C19.6908 14.4919 19.6817 14.4919 19.6738 14.4918C19.666 14.4918 19.6603 14.4917 19.6562 14.4916C19.6542 14.4916 19.6527 14.4915 19.6517 14.4915C19.6507 14.4915 19.6502 14.4915 19.6502 14.4915C19.6502 14.4915 19.6508 14.4915 19.6518 14.4915C19.6529 14.4916 19.6545 14.4917 19.6566 14.4918C19.6608 14.4921 19.6672 14.4925 19.6753 14.4933C19.6835 14.4941 19.6932 14.4952 19.7043 14.4967C19.7153 14.4983 19.7271 14.5001 19.7392 14.5024L19.2988 16.8617C19.4863 16.8967 19.6722 16.8919 19.7393 16.8919L19.7393 14.4919ZM18.2853 16.2897C18.3327 16.3371 18.4608 16.4719 18.6182 16.5798L19.975 14.6001C19.9852 14.6071 19.9948 14.614 20.0037 14.6208C20.0126 14.6275 20.0203 14.6336 20.0266 14.6388C20.0329 14.644 20.0377 14.6482 20.0409 14.651C20.0425 14.6524 20.0437 14.6535 20.0445 14.6542C20.0453 14.6549 20.0457 14.6553 20.0457 14.6553C20.0457 14.6553 20.0453 14.655 20.0446 14.6543C20.0438 14.6536 20.0428 14.6525 20.0413 14.6511C20.0383 14.6483 20.0343 14.6443 20.0287 14.6388C20.0231 14.6333 20.0167 14.6269 20.0088 14.619C20.0009 14.6111 19.9923 14.6026 19.9823 14.5926L18.2853 16.2897ZM19.7392 14.5024C19.8238 14.5182 19.904 14.5515 19.975 14.6001L18.6182 16.5798C18.823 16.7201 19.0548 16.8161 19.2988 16.8617L19.7392 14.5024ZM29.2 19.3104C29.2 18.787 29.2006 18.338 29.1768 17.9677C29.1524 17.5874 29.0989 17.2086 28.9534 16.8324L26.715 17.6983C26.7353 17.7508 26.7647 17.8556 26.7817 18.1214C26.7994 18.397 26.8 18.7562 26.8 19.3104H29.2ZM24.3816 16.892C24.9358 16.892 25.295 16.8926 25.5706 16.9102C25.8364 16.9273 25.9412 16.9567 25.9936 16.977L26.8596 14.7386C26.4834 14.5931 26.1046 14.5396 25.7243 14.5152C25.354 14.4914 24.905 14.492 24.3816 14.492L24.3816 16.892ZM28.9534 16.8324C28.5814 15.8708 27.8212 15.1107 26.8596 14.7386L25.9936 16.977C26.3249 17.1051 26.5869 17.367 26.715 17.6983L28.9534 16.8324ZM24.3815 27.9689C24.905 27.9689 25.354 27.9695 25.7243 27.9457C26.1046 27.9213 26.4834 27.8678 26.8596 27.7223L25.9936 25.484C25.9412 25.5042 25.8364 25.5336 25.5706 25.5507C25.295 25.5684 24.9358 25.5689 24.3815 25.5689V27.9689ZM26.8 23.1505C26.8 23.7047 26.7994 24.0639 26.7817 24.3396C26.7647 24.6053 26.7353 24.7102 26.715 24.7626L28.9534 25.6285C29.0989 25.2523 29.1524 24.8735 29.1768 24.4932C29.2006 24.1229 29.2 23.6739 29.2 23.1505H26.8ZM26.8596 27.7223C27.8212 27.3503 28.5813 26.5901 28.9534 25.6285L26.715 24.7626C26.5869 25.0939 26.3249 25.3558 25.9936 25.484L26.8596 27.7223ZM15.6185 25.5689C15.0642 25.5689 14.705 25.5684 14.4294 25.5507C14.1636 25.5336 14.0588 25.5042 14.0064 25.484L13.1404 27.7223C13.5166 27.8678 13.8954 27.9213 14.2757 27.9457C14.646 27.9695 15.095 27.9689 15.6185 27.9689V25.5689ZM10.8 23.1505C10.8 23.6739 10.7994 24.1229 10.8232 24.4932C10.8476 24.8735 10.9011 25.2523 11.0466 25.6285L13.285 24.7626C13.2647 24.7102 13.2353 24.6053 13.2183 24.3396C13.2006 24.0639 13.2 23.7047 13.2 23.1505H10.8ZM14.0064 25.484C13.6751 25.3558 13.4131 25.0939 13.285 24.7626L11.0466 25.6285C11.4187 26.5901 12.1788 27.3503 13.1404 27.7223L14.0064 25.484Z" fill="white" mask="url(#path-1-inside-1_1982_1900)"/>
</svg>
