<svg width="16" height="16" viewBox="0 0 16 16" fill="none" xmlns="http://www.w3.org/2000/svg">
<g id="icons" clip-path="url(#clip0_376_7174)">
<path id="Union" fill-rule="evenodd" clip-rule="evenodd" d="M7.99701 1.40002C7.20999 1.40115 6.3717 1.98298 5.6955 3.20015C5.40916 3.71556 5.16634 4.32308 4.98259 4.99982H11.0161C10.8323 4.32308 10.5895 3.71556 10.3031 3.20015C9.62628 1.98179 8.78701 1.40002 7.99932 1.40002L7.99701 1.40002ZM4.64656 2.61741C4.26416 3.30573 3.95757 4.11273 3.74409 4.99982H2.11941C2.73888 3.78802 3.72195 2.79296 4.92473 2.15852C4.82708 2.30619 4.73429 2.45948 4.64656 2.61741ZM3.51976 6.19976H1.64821C1.48637 6.77194 1.39977 7.37571 1.39977 7.99971C1.39977 8.62369 1.48637 9.22745 1.6482 9.79962H3.51976C3.44092 9.2203 3.39954 8.61741 3.39954 7.99971C3.39954 7.382 3.44092 6.77909 3.51976 6.19976ZM3.74408 10.9996H2.11939C2.73886 12.2114 3.72194 13.2065 4.92473 13.8409C4.82708 13.6932 4.73429 13.5399 4.64656 13.382C4.26415 12.6937 3.95756 11.8867 3.74408 10.9996ZM0.607063 10.4937C0.618644 10.5672 0.64359 10.6363 0.679337 10.6984C1.777 13.6748 4.63806 15.7975 7.99516 15.7993L7.99932 15.7993H7.99947C11.3587 15.7993 14.222 13.6757 15.3199 10.6977C15.3552 10.636 15.38 10.5675 15.3916 10.4945C15.6558 9.71122 15.7991 8.87219 15.7991 7.99971C15.7991 7.12724 15.6559 6.28823 15.3916 5.50491C15.38 5.43194 15.3552 5.36335 15.3198 5.30165C14.2219 2.32369 11.3587 0.200073 7.99947 0.200073C4.64055 0.200073 1.77754 2.32332 0.679376 5.30088C0.643597 5.36303 0.618632 5.43219 0.607051 5.5058C0.342974 6.28886 0.199829 7.12757 0.199829 7.99971C0.199829 8.87187 0.342978 9.71059 0.607063 10.4937ZM14.3507 9.79962C14.5126 9.22745 14.5992 8.62369 14.5992 7.99971C14.5992 7.37571 14.5126 6.77194 14.3507 6.19976H12.4789C12.5577 6.77909 12.5991 7.382 12.5991 7.99971C12.5991 8.61741 12.5577 9.2203 12.4789 9.79962H14.3507ZM11.0161 10.9996C10.8323 11.6763 10.5895 12.2839 10.3031 12.7993C9.62628 14.0176 8.78701 14.5994 7.99932 14.5994C7.21163 14.5994 6.37236 14.0176 5.6955 12.7993C5.40915 12.2839 5.16633 11.6763 4.98258 10.9996H11.0161ZM11.2667 9.79962H4.7319C4.64593 9.22912 4.59948 8.62575 4.59948 7.99971C4.59948 7.37366 4.64593 6.77028 4.7319 6.19976H11.2667C11.3527 6.77028 11.3992 7.37366 11.3992 7.99971C11.3992 8.62575 11.3527 9.22912 11.2667 9.79962ZM12.2546 10.9996H13.8795C13.26 12.2115 12.2768 13.2067 11.0738 13.8411C11.1715 13.6934 11.2643 13.54 11.3521 13.382C11.7345 12.6937 12.0411 11.8867 12.2546 10.9996ZM11.0738 2.15829C12.2767 2.79272 13.26 3.78787 13.8795 4.99982H12.2546C12.0411 4.11273 11.7345 3.30573 11.3521 2.61741C11.2643 2.4594 11.1715 2.30603 11.0738 2.15829Z" fill="#525866"/>
</g>
<defs>
<clipPath id="clip0_376_7174">
<rect width="16" height="16" fill="white"/>
</clipPath>
</defs>
</svg>
