<svg width="16" height="16" viewBox="0 0 16 16" fill="none" xmlns="http://www.w3.org/2000/svg">
<path d="M2.68182 2C2.50099 2 2.32757 2.07024 2.1997 2.19526C2.07183 2.32029 2 2.48986 2 2.66667V6.66667C2 6.84348 2.07183 7.01305 2.1997 7.13807C2.32757 7.2631 2.50099 7.33333 2.68182 7.33333H6.63636C6.81719 7.33333 6.99062 7.2631 7.11848 7.13807C7.24635 7.01305 7.31818 6.84348 7.31818 6.66667V2.66667C7.31818 2.48986 7.24635 2.32029 7.11848 2.19526C6.99062 2.07024 6.81719 2 6.63636 2H2.68182ZM3.36364 6V3.33333H5.95454V6H3.36364ZM2.68182 8.66667C2.50099 8.66667 2.32757 8.7369 2.1997 8.86193C2.07183 8.98695 2 9.15652 2 9.33333V13.3333C2 13.5101 2.07183 13.6797 2.1997 13.8047C2.32757 13.9298 2.50099 14 2.68182 14H6.63636C6.81719 14 6.99062 13.9298 7.11848 13.8047C7.24635 13.6797 7.31818 13.5101 7.31818 13.3333V9.33333C7.31818 9.15652 7.24635 8.98695 7.11848 8.86193C6.99062 8.7369 6.81719 8.66667 6.63636 8.66667H2.68182ZM3.36364 12.6667V10H5.95454V12.6667H3.36364ZM8.68182 2.66667C8.68182 2.48986 8.75365 2.32029 8.88152 2.19526C9.00938 2.07024 9.18281 2 9.36364 2H13.3182C13.499 2 13.6724 2.07024 13.8003 2.19526C13.9282 2.32029 14 2.48986 14 2.66667V6.66667C14 6.84348 13.9282 7.01305 13.8003 7.13807C13.6724 7.2631 13.499 7.33333 13.3182 7.33333H9.36364C9.18281 7.33333 9.00938 7.2631 8.88152 7.13807C8.75365 7.01305 8.68182 6.84348 8.68182 6.66667V2.66667ZM10.0455 3.33333V6H12.6364V3.33333H10.0455ZM9.36364 8.66667C9.18281 8.66667 9.00938 8.7369 8.88152 8.86193C8.75365 8.98695 8.68182 9.15652 8.68182 9.33333V13.3333C8.68182 13.5101 8.75365 13.6797 8.88152 13.8047C9.00938 13.9298 9.18281 14 9.36364 14H13.3182C13.499 14 13.6724 13.9298 13.8003 13.8047C13.9282 13.6797 14 13.5101 14 13.3333V9.33333C14 9.15652 13.9282 8.98695 13.8003 8.86193C13.6724 8.7369 13.499 8.66667 13.3182 8.66667H9.36364ZM10.0455 12.6667V10H12.6364V12.6667H10.0455Z" fill="#525866"/>
</svg>
