<svg width="40" height="40" viewBox="0 0 40 40" fill="none" xmlns="http://www.w3.org/2000/svg">
<path d="M22.4997 20.0007C24.3413 20.0007 25.833 18.509 25.833 16.6673C25.833 14.8257 24.3413 13.334 22.4997 13.334C20.658 13.334 19.1663 14.8257 19.1663 16.6673C19.1663 18.509 20.658 20.0007 22.4997 20.0007ZM22.4997 15.0007C23.4163 15.0007 24.1663 15.7507 24.1663 16.6673C24.1663 17.584 23.4163 18.334 22.4997 18.334C21.583 18.334 20.833 17.584 20.833 16.6673C20.833 15.7507 21.583 15.0007 22.4997 15.0007ZM22.4997 21.6673C20.2747 21.6673 15.833 22.784 15.833 25.0007V26.6673H29.1663V25.0007C29.1663 22.784 24.7247 21.6673 22.4997 21.6673ZM17.4997 25.0007C17.683 24.4007 20.258 23.334 22.4997 23.334C24.7497 23.334 27.333 24.409 27.4997 25.0007H17.4997ZM14.9997 22.5007V20.0007H17.4997V18.334H14.9997V15.834H13.333V18.334H10.833V20.0007H13.333V22.5007H14.9997Z" fill="#525866"/>
</svg>
