<svg width="40" height="40" viewBox="0 0 40 40" fill="none" xmlns="http://www.w3.org/2000/svg">
<path d="M35 5H5C3.33333 5 1.66667 6.66667 1.66667 8.33333V31.6667C1.66667 33.5 3.16667 35 5 35H35C36.6667 35 38.3333 33.3333 38.3333 31.6667V8.33333C38.3333 6.66667 36.6667 5 35 5ZM35 31.5333C34.9667 31.5833 34.9 31.6333 34.8667 31.6667H5V8.46667L5.13333 8.33333H34.85C34.9 8.36667 34.95 8.43333 34.9833 8.46667V31.5333H35ZM18.3333 25.85L14.1667 20.8333L8.33333 28.3333H31.6667L24.1667 18.3333L18.3333 25.85Z" fill="#D6D5D5"/>
</svg>
