<svg width="28" height="28" viewBox="0 0 28 28" fill="none" xmlns="http://www.w3.org/2000/svg">
<g clip-path="url(#clip0_179_440)">
<path d="M19.1849 7.33304H16.0886C15.7775 6.47378 14.9626 5.85156 13.9997 5.85156C13.0367 5.85156 12.2219 6.47378 11.9108 7.33304H8.81449C7.99967 7.33304 7.33301 7.99971 7.33301 8.81453V20.6664C7.33301 21.4812 7.99967 22.1479 8.81449 22.1479H19.1849C19.9997 22.1479 20.6663 21.4812 20.6663 20.6664V8.81453C20.6663 7.99971 19.9997 7.33304 19.1849 7.33304ZM13.9997 7.33304C14.4071 7.33304 14.7404 7.66638 14.7404 8.07378C14.7404 8.48119 14.4071 8.81453 13.9997 8.81453C13.5923 8.81453 13.2589 8.48119 13.2589 8.07378C13.2589 7.66638 13.5923 7.33304 13.9997 7.33304ZM19.1849 20.6664H8.81449V8.81453H10.296V11.0367H17.7034V8.81453H19.1849V20.6664Z" fill="#99A1B2"/>
</g>
<defs>
<clipPath id="clip0_179_440">
<rect width="17.7778" height="17.7778" fill="white" transform="translate(5.11133 5.11133)"/>
</clipPath>
</defs>
</svg>
