<svg width="40" height="40" viewBox="0 0 40 40" fill="none" xmlns="http://www.w3.org/2000/svg">
<path d="M12.9469 15.4405L12.9469 15.4403C12.9811 15.0752 13.1409 14.7288 13.4048 14.4573C13.667 14.1875 14.0171 14.0074 14.4012 13.9489L14.5217 13.9352L18.5078 13.5839C18.5078 13.5839 18.5078 13.5839 18.5078 13.5839C18.7436 13.5631 18.9811 13.5889 19.2057 13.6594C19.4274 13.7289 19.6313 13.8404 19.8058 13.9863L19.9063 14.0771L25.9222 19.9038C25.9222 19.9038 25.9222 19.9038 25.9222 19.9038C26.2313 20.2033 26.408 20.6017 26.4222 21.0171C26.4362 21.4296 26.2892 21.8349 26.0057 22.1516L25.9155 22.2448L21.5663 26.4568C21.2565 26.7567 20.8371 26.9343 20.392 26.9485C19.9499 26.9626 19.5216 26.8142 19.1922 26.5378L19.0959 26.4503L13.078 20.6231C13.078 20.6231 13.078 20.6231 13.078 20.6231C12.9133 20.4636 12.7848 20.2746 12.6991 20.0679C12.6146 19.8639 12.5733 19.6464 12.5772 19.4278L12.5845 19.296L12.9469 15.4405Z" stroke="#525866" stroke-width="1.15385"/>
</svg>
