<svg width="28" height="28" viewBox="0 0 28 28" fill="none" xmlns="http://www.w3.org/2000/svg">
<path d="M15.4811 8.07523V11.7789C15.4811 12.6086 15.7552 13.3789 16.2219 14.0012H11.7774C12.2589 13.3641 12.5182 12.5937 12.5182 11.7789V8.07523H15.4811ZM17.7033 6.59375H10.2959C9.88853 6.59375 9.55519 6.92708 9.55519 7.33449C9.55519 7.7419 9.88853 8.07523 10.2959 8.07523H11.0367V11.7789C11.0367 13.0086 10.0441 14.0012 8.81445 14.0012V15.4826H13.2367V20.6678L13.9774 21.4086L14.7182 20.6678V15.4826H19.1848V14.0012C17.9552 14.0012 16.9626 13.0086 16.9626 11.7789V8.07523H17.7033C18.1107 8.07523 18.4441 7.7419 18.4441 7.33449C18.4441 6.92708 18.1107 6.59375 17.7033 6.59375Z" fill="#99A1B2"/>
</svg>
