<svg width="24" height="24" viewBox="0 0 24 24" fill="none" xmlns="http://www.w3.org/2000/svg">
<path d="M5 9.5V12.5H4C3.4 12.5 3 12.1 3 11.5V10.5C3 9.9 3.4 9.5 4 9.5H5Z" fill="#353F9B"/>
<path d="M5 9.80016C5 8.90016 5.6 8.20016 6.4 7.90016L18.4 3.90016C19.7 3.40016 21 4.40016 21 5.80016V16.3002C21 17.7002 19.7 18.6002 18.4 18.2002L6.4 14.2002C5.6 13.9002 5 13.2002 5 12.3002V9.80016Z" fill="#D9D9D9"/>
<path d="M6.4999 14.2002L9.4999 15.2002L10.1999 20.1002C10.2999 21.2002 9.4999 22.2002 8.2999 22.2002C7.2999 22.2002 6.3999 21.4002 6.3999 20.3002V14.2002H6.4999Z" fill="#353F9B"/>
</svg>
