<svg width="40" height="40" viewBox="0 0 40 40" fill="none" xmlns="http://www.w3.org/2000/svg">
<path d="M25.3332 3.3335H11.9998C10.1665 3.3335 8.68317 4.8335 8.68317 6.66683L8.6665 33.3335C8.6665 35.1668 10.1498 36.6668 11.9832 36.6668H31.9998C33.8332 36.6668 35.3332 35.1668 35.3332 33.3335V13.3335L25.3332 3.3335ZM11.9998 33.3335V6.66683H23.6665V15.0002H31.9998V33.3335H11.9998Z" fill="#D6D5D5"/>
<path d="M0 17C0 16.4477 0.447715 16 1 16H20C20.5523 16 21 16.4477 21 17V27C21 27.5523 20.5523 28 20 28H1C0.447715 28 0 27.5523 0 27V17Z" fill="#E84A4F"/>
<path d="M13.9473 19.1719H17.459V19.9102H14.8066V21.6289H17.2051V22.3633H14.8066V24.8281H13.9473V19.1719Z" fill="white"/>
<path d="M8.85742 24.8281V24.0742H10.209C10.6361 24.0742 10.9915 23.9935 11.2754 23.832C11.5592 23.6706 11.7715 23.4362 11.9121 23.1289C12.0553 22.819 12.127 22.4401 12.127 21.9922C12.127 21.5495 12.0566 21.1745 11.916 20.8672C11.778 20.5573 11.5697 20.3229 11.291 20.1641C11.015 20.0052 10.6712 19.9258 10.2598 19.9258H8.82617V19.1719H10.3105C10.8652 19.1719 11.3418 19.2839 11.7402 19.5078C12.1413 19.7318 12.4473 20.056 12.6582 20.4805C12.8717 20.9049 12.9785 21.4089 12.9785 21.9922C12.9785 22.5807 12.8704 23.0872 12.6543 23.5117C12.4408 23.9362 12.1296 24.2617 11.7207 24.4883C11.3145 24.7148 10.8275 24.8281 10.2598 24.8281H8.85742ZM9.2832 24.8281H8.42383V19.1719H9.2832V24.8281Z" fill="white"/>
<path d="M3.54102 19.1719H5.55664C5.98372 19.1719 6.3444 19.2513 6.63867 19.4102C6.93294 19.5664 7.15299 19.7826 7.29883 20.0586C7.44727 20.332 7.52148 20.6484 7.52148 21.0078C7.52148 21.362 7.44727 21.6771 7.29883 21.9531C7.15039 22.2292 6.92904 22.4466 6.63477 22.6055C6.34049 22.7643 5.97982 22.8438 5.55273 22.8438H4.16211V22.1133H5.4707C5.74154 22.1133 5.96549 22.0664 6.14258 21.9727C6.31966 21.8763 6.44857 21.7461 6.5293 21.582C6.61263 21.4154 6.6543 21.224 6.6543 21.0078C6.6543 20.7865 6.61263 20.5938 6.5293 20.4297C6.44857 20.2656 6.31836 20.138 6.13867 20.0469C5.96159 19.9557 5.73763 19.9102 5.4668 19.9102H4.40039V24.8281H3.54102V19.1719Z" fill="white"/>
</svg>
