<svg width="16" height="16" viewBox="0 0 16 16" fill="none" xmlns="http://www.w3.org/2000/svg">
<path d="M1.33366 10.6667H14.667V12H1.33366V10.6667ZM2.10033 7.96667L2.66699 6.98L3.23366 7.96667L4.10033 7.46667L3.53366 6.48H4.66699V5.48H3.53366L4.10033 4.5L3.23366 4L2.66699 4.98L2.10033 4L1.23366 4.5L1.80033 5.48H0.666992V6.48H1.80033L1.23366 7.46667L2.10033 7.96667ZM6.56699 7.46667L7.43366 7.96667L8.00033 6.98L8.56699 7.96667L9.43366 7.46667L8.86699 6.48H10.0003V5.48H8.86699L9.43366 4.5L8.56699 4L8.00033 4.98L7.43366 4L6.56699 4.5L7.13366 5.48H6.00033V6.48H7.13366L6.56699 7.46667ZM15.3337 5.48H14.2003L14.767 4.5L13.9003 4L13.3337 4.98L12.767 4L11.9003 4.5L12.467 5.48H11.3337V6.48H12.467L11.9003 7.46667L12.767 7.96667L13.3337 6.98L13.9003 7.96667L14.767 7.46667L14.2003 6.48H15.3337V5.48Z" fill="#6B6B6B"/>
</svg>
