<svg width="16" height="16" viewBox="0 0 16 16" fill="none" xmlns="http://www.w3.org/2000/svg">
<path d="M2.6665 14H13.3332M3.77717 8.79131C3.49291 9.0762 3.33324 9.4622 3.33317 9.86465V12H5.48184C5.8845 12 6.2705 11.84 6.55517 11.5546L12.8885 5.21798C13.1727 4.93304 13.3322 4.54706 13.3322 4.14465C13.3322 3.74224 13.1727 3.35625 12.8885 3.07131L12.2632 2.44465C12.1221 2.30355 11.9547 2.19163 11.7704 2.11529C11.5861 2.03895 11.3885 1.99969 11.189 1.99976C10.9895 1.99982 10.792 2.0392 10.6078 2.11565C10.4235 2.1921 10.2561 2.30413 10.1152 2.44531L3.77717 8.79131Z" stroke="#525866" stroke-width="1.2" stroke-linecap="round" stroke-linejoin="round"/>
</svg>
