<svg width="28" height="28" viewBox="0 0 28 28" fill="none" xmlns="http://www.w3.org/2000/svg">
<g clip-path="url(#clip0_179_45)">
<path d="M17.4599 14.8372C18.4748 15.5261 19.1859 16.4594 19.1859 17.7038V19.9261H22.1488V17.7038C22.1488 16.089 19.5044 15.1335 17.4599 14.8372Z" fill="#99A1B2"/>
<path d="M16.2229 14.0001C17.8599 14.0001 19.1859 12.6742 19.1859 11.0372C19.1859 9.40014 17.8599 8.07422 16.2229 8.07422C15.8748 8.07422 15.5488 8.14829 15.2377 8.252C15.8525 9.01496 16.2229 9.98533 16.2229 11.0372C16.2229 12.089 15.8525 13.0594 15.2377 13.8224C15.5488 13.9261 15.8748 14.0001 16.2229 14.0001Z" fill="#99A1B2"/>
<path d="M11.7785 14.0001C13.4155 14.0001 14.7414 12.6742 14.7414 11.0372C14.7414 9.40014 13.4155 8.07422 11.7785 8.07422C10.1414 8.07422 8.8155 9.40014 8.8155 11.0372C8.8155 12.6742 10.1414 14.0001 11.7785 14.0001ZM11.7785 9.5557C12.5933 9.5557 13.2599 10.2224 13.2599 11.0372C13.2599 11.852 12.5933 12.5187 11.7785 12.5187C10.9636 12.5187 10.297 11.852 10.297 11.0372C10.297 10.2224 10.9636 9.5557 11.7785 9.5557Z" fill="#99A1B2"/>
<path d="M11.7785 14.7409C9.80069 14.7409 5.85254 15.7335 5.85254 17.7038V19.9261H17.7044V17.7038C17.7044 15.7335 13.7562 14.7409 11.7785 14.7409ZM16.2229 18.4446H7.33402V17.7113C7.48217 17.1779 9.77846 16.2224 11.7785 16.2224C13.7785 16.2224 16.0748 17.1779 16.2229 17.7038V18.4446Z" fill="#99A1B2"/>
</g>
<defs>
<clipPath id="clip0_179_45">
<rect width="17.7778" height="17.7778" fill="white" transform="translate(5.11133 5.11133)"/>
</clipPath>
</defs>
</svg>
