<svg width="16" height="16" viewBox="0 0 16 16" fill="none" xmlns="http://www.w3.org/2000/svg">
<g id="Property 1=recruting">
<g id="Vector">
<path d="M11.1133 8.75332C12.0267 9.37332 12.6667 10.2133 12.6667 11.3333V13.3333H15.3333V11.3333C15.3333 9.87999 12.9533 9.01999 11.1133 8.75332Z" fill="white"/>
<path d="M10 7.99999C11.4733 7.99999 12.6667 6.80666 12.6667 5.33332C12.6667 3.85999 11.4733 2.66666 10 2.66666C9.68667 2.66666 9.39334 2.73332 9.11334 2.82666C9.66667 3.51332 10 4.38666 10 5.33332C10 6.27999 9.66667 7.15332 9.11334 7.83999C9.39334 7.93332 9.68667 7.99999 10 7.99999Z" fill="white"/>
<path d="M6.00001 7.99999C7.47334 7.99999 8.66667 6.80666 8.66667 5.33332C8.66667 3.85999 7.47334 2.66666 6.00001 2.66666C4.52667 2.66666 3.33334 3.85999 3.33334 5.33332C3.33334 6.80666 4.52667 7.99999 6.00001 7.99999ZM6.00001 3.99999C6.73334 3.99999 7.33334 4.59999 7.33334 5.33332C7.33334 6.06666 6.73334 6.66666 6.00001 6.66666C5.26667 6.66666 4.66667 6.06666 4.66667 5.33332C4.66667 4.59999 5.26667 3.99999 6.00001 3.99999Z" fill="white"/>
<path d="M6.00001 8.66666C4.22001 8.66666 0.666672 9.55999 0.666672 11.3333V13.3333H11.3333V11.3333C11.3333 9.55999 7.78001 8.66666 6.00001 8.66666ZM10 12H2.00001V11.34C2.13334 10.86 4.20001 9.99999 6.00001 9.99999C7.80001 9.99999 9.86667 10.86 10 11.3333V12Z" fill="white"/>
</g>
</g>
</svg>
