<svg width="20" height="20" viewBox="0 0 20 20" fill="none" xmlns="http://www.w3.org/2000/svg">
<path d="M14.9548 10.6533C14.9815 10.44 15.0015 10.2267 15.0015 10C15.0015 9.77334 14.9815 9.56001 14.9548 9.34668L16.3615 8.24668C16.4881 8.14668 16.5215 7.96668 16.4415 7.82001L15.1081 5.51334C15.0481 5.40668 14.9348 5.34668 14.8148 5.34668C14.7748 5.34668 14.7348 5.35334 14.7015 5.36668L13.0415 6.03334C12.6948 5.76668 12.3215 5.54668 11.9148 5.38001L11.6615 3.61334C11.6415 3.45334 11.5015 3.33334 11.3348 3.33334H8.66815C8.50148 3.33334 8.36148 3.45334 8.34148 3.61334L8.08815 5.38001C7.68148 5.54668 7.30815 5.77334 6.96148 6.03334L5.30148 5.36668C5.26148 5.35334 5.22148 5.34668 5.18148 5.34668C5.06815 5.34668 4.95481 5.40668 4.89481 5.51334L3.56148 7.82001C3.47481 7.96668 3.51481 8.14668 3.64148 8.24668L5.04815 9.34668C5.02148 9.56001 5.00148 9.78001 5.00148 10C5.00148 10.22 5.02148 10.44 5.04815 10.6533L3.64148 11.7533C3.51481 11.8533 3.48148 12.0333 3.56148 12.18L4.89481 14.4867C4.95481 14.5933 5.06815 14.6533 5.18815 14.6533C5.22815 14.6533 5.26815 14.6467 5.30148 14.6333L6.96148 13.9667C7.30815 14.2333 7.68148 14.4533 8.08815 14.62L8.34148 16.3867C8.36148 16.5467 8.50148 16.6667 8.66815 16.6667H11.3348C11.5015 16.6667 11.6415 16.5467 11.6615 16.3867L11.9148 14.62C12.3215 14.4533 12.6948 14.2267 13.0415 13.9667L14.7015 14.6333C14.7415 14.6467 14.7815 14.6533 14.8215 14.6533C14.9348 14.6533 15.0481 14.5933 15.1081 14.4867L16.4415 12.18C16.5215 12.0333 16.4881 11.8533 16.3615 11.7533L14.9548 10.6533ZM13.6348 9.51334C13.6615 9.72001 13.6681 9.86001 13.6681 10C13.6681 10.14 13.6548 10.2867 13.6348 10.4867L13.5415 11.24L14.1348 11.7067L14.8548 12.2667L14.3881 13.0733L13.5415 12.7333L12.8481 12.4533L12.2481 12.9067C11.9615 13.12 11.6881 13.28 11.4148 13.3933L10.7081 13.68L10.6015 14.4333L10.4681 15.3333H9.53481L9.30148 13.68L8.59481 13.3933C8.30815 13.2733 8.04148 13.12 7.77481 12.92L7.16815 12.4533L6.46148 12.74L5.61481 13.08L5.14815 12.2733L5.86815 11.7133L6.46148 11.2467L6.36815 10.4933C6.34815 10.2867 6.33481 10.1333 6.33481 10C6.33481 9.86668 6.34815 9.71334 6.36815 9.51334L6.46148 8.76001L5.86815 8.29334L5.14815 7.73334L5.61481 6.92668L6.46148 7.26668L7.15481 7.54668L7.75481 7.09334C8.04148 6.88001 8.31481 6.72001 8.58815 6.60668L9.29481 6.32001L9.40148 5.56668L9.53481 4.66668H10.4615L10.6948 6.32001L11.4015 6.60668C11.6881 6.72668 11.9548 6.88001 12.2215 7.08001L12.8281 7.54668L13.5348 7.26001L14.3815 6.92001L14.8481 7.72668L14.1348 8.29334L13.5415 8.76001L13.6348 9.51334ZM10.0015 7.33334C8.52815 7.33334 7.33481 8.52668 7.33481 10C7.33481 11.4733 8.52815 12.6667 10.0015 12.6667C11.4748 12.6667 12.6681 11.4733 12.6681 10C12.6681 8.52668 11.4748 7.33334 10.0015 7.33334ZM10.0015 11.3333C9.26815 11.3333 8.66815 10.7333 8.66815 10C8.66815 9.26668 9.26815 8.66668 10.0015 8.66668C10.7348 8.66668 11.3348 9.26668 11.3348 10C11.3348 10.7333 10.7348 11.3333 10.0015 11.3333Z" fill="#525866"/>
</svg>
