<svg width="28" height="28" viewBox="0 0 28 28" fill="none" xmlns="http://www.w3.org/2000/svg">
<g clip-path="url(#clip0_179_66)">
<path d="M20.6674 8.07545C19.8451 7.81619 18.9414 7.70508 18.0748 7.70508C16.6303 7.70508 15.0748 8.00137 14.0007 8.81619C12.9266 8.00137 11.3711 7.70508 9.92661 7.70508C8.48217 7.70508 6.92661 8.00137 5.85254 8.81619V19.668C5.85254 19.8532 6.03772 20.0384 6.22291 20.0384C6.29698 20.0384 6.33402 20.0014 6.40809 20.0014C7.40809 19.5199 8.85254 19.1866 9.92661 19.1866C11.3711 19.1866 12.9266 19.4829 14.0007 20.2977C15.0007 19.668 16.8155 19.1866 18.0748 19.1866C19.297 19.1866 20.5562 19.4088 21.5933 19.9643C21.6674 20.0014 21.7044 20.0014 21.7785 20.0014C21.9636 20.0014 22.1488 19.8162 22.1488 19.631V8.81619C21.7044 8.48286 21.2229 8.26063 20.6674 8.07545ZM20.6674 18.0754C19.8525 17.8162 18.9636 17.7051 18.0748 17.7051C16.8155 17.7051 15.0007 18.1866 14.0007 18.8162V10.2977C15.0007 9.66804 16.8155 9.18656 18.0748 9.18656C18.9636 9.18656 19.8525 9.29767 20.6674 9.55693V18.0754Z" fill="#99A1B2"/>
<path d="M18.0748 12.1495C18.7266 12.1495 19.3562 12.2162 19.9266 12.3421V11.2162C19.3414 11.1051 18.7118 11.0384 18.0748 11.0384C16.8155 11.0384 15.6748 11.2532 14.7414 11.6532V12.8829C15.5785 12.4088 16.7414 12.1495 18.0748 12.1495Z" fill="#99A1B2"/>
<path d="M14.7414 13.6236V14.8532C15.5785 14.3792 16.7414 14.1199 18.0748 14.1199C18.7266 14.1199 19.3562 14.1866 19.9266 14.3125V13.1866C19.3414 13.0754 18.7118 13.0088 18.0748 13.0088C16.8155 13.0088 15.6748 13.231 14.7414 13.6236Z" fill="#99A1B2"/>
<path d="M18.0748 14.9866C16.8155 14.9866 15.6748 15.2014 14.7414 15.6014V16.831C15.5785 16.3569 16.7414 16.0977 18.0748 16.0977C18.7266 16.0977 19.3562 16.1643 19.9266 16.2903V15.1643C19.3414 15.0458 18.7118 14.9866 18.0748 14.9866Z" fill="#99A1B2"/>
</g>
<defs>
<clipPath id="clip0_179_66">
<rect width="17.7778" height="17.7778" fill="white" transform="translate(5.11133 5.11133)"/>
</clipPath>
</defs>
</svg>
