<svg width="20" height="20" viewBox="0 0 20 20" fill="none" xmlns="http://www.w3.org/2000/svg">
<g clip-path="url(#clip0_1676_1227)">
<path opacity="0.2" d="M10 19.6875C4.66155 19.6875 0.3125 15.3385 0.3125 10C0.3125 4.66155 4.66155 0.3125 10 0.3125C15.3385 0.3125 19.6875 4.66155 19.6875 10C19.6875 15.3385 15.3385 19.6875 10 19.6875ZM10 2.47615C5.85753 2.47615 2.48702 5.84666 2.48702 9.98913C2.48702 14.1316 5.85753 17.5021 10 17.5021C14.1425 17.5021 17.513 14.1316 17.513 9.98913C17.513 5.84666 14.1425 2.47615 10 2.47615Z" fill="#909090"/>
<path d="M18.6271 10.9375C18.0381 10.9375 17.5561 10.455 17.5561 9.86535C17.5561 5.78046 14.2358 2.4568 10.155 2.4568C9.5659 2.4568 9.0625 1.97433 9.0625 1.38465C9.0625 0.794968 9.52306 0.3125 10.1121 0.3125H10.1443C15.4139 0.3125 19.6875 4.6011 19.6875 9.86535C19.6875 10.455 19.2055 10.9375 18.6164 10.9375H18.6271Z" fill="#909090"/>
</g>
<defs>
<clipPath id="clip0_1676_1227">
<rect width="20" height="20" fill="white"/>
</clipPath>
</defs>
</svg>
