<svg width="16" height="16" viewBox="0 0 16 16" fill="none" xmlns="http://www.w3.org/2000/svg">
<g id="Property 1=study">
<g id="Vector">
<path d="M14 2.66668C13.26 2.43334 12.4467 2.33334 11.6667 2.33334C10.3667 2.33334 8.96667 2.60001 8.00001 3.33334C7.03334 2.60001 5.63334 2.33334 4.33334 2.33334C3.03334 2.33334 1.63334 2.60001 0.666672 3.33334V13.1C0.666672 13.2667 0.833338 13.4333 1.00001 13.4333C1.06667 13.4333 1.10001 13.4 1.16667 13.4C2.06667 12.9667 3.36667 12.6667 4.33334 12.6667C5.63334 12.6667 7.03334 12.9333 8.00001 13.6667C8.90001 13.1 10.5333 12.6667 11.6667 12.6667C12.7667 12.6667 13.9 12.8667 14.8333 13.3667C14.9 13.4 14.9333 13.4 15 13.4C15.1667 13.4 15.3333 13.2333 15.3333 13.0667V3.33334C14.9333 3.03334 14.5 2.83334 14 2.66668ZM14 11.6667C13.2667 11.4333 12.4667 11.3333 11.6667 11.3333C10.5333 11.3333 8.90001 11.7667 8.00001 12.3333V4.66668C8.90001 4.10001 10.5333 3.66668 11.6667 3.66668C12.4667 3.66668 13.2667 3.76668 14 4.00001V11.6667Z" fill="white"/>
<path d="M11.6667 6.33334C12.2533 6.33334 12.82 6.39334 13.3333 6.50668V5.49334C12.8067 5.39334 12.24 5.33334 11.6667 5.33334C10.5333 5.33334 9.50667 5.52668 8.66667 5.88668V6.99334C9.42001 6.56668 10.4667 6.33334 11.6667 6.33334Z" fill="white"/>
<path d="M8.66667 7.66001V8.76668C9.42001 8.34001 10.4667 8.10668 11.6667 8.10668C12.2533 8.10668 12.82 8.16668 13.3333 8.28001V7.26668C12.8067 7.16668 12.24 7.10668 11.6667 7.10668C10.5333 7.10668 9.50667 7.30668 8.66667 7.66001Z" fill="white"/>
<path d="M11.6667 8.88668C10.5333 8.88668 9.50667 9.08001 8.66667 9.44001V10.5467C9.42001 10.12 10.4667 9.88668 11.6667 9.88668C12.2533 9.88668 12.82 9.94668 13.3333 10.06V9.04668C12.8067 8.94001 12.24 8.88668 11.6667 8.88668Z" fill="white"/>
</g>
</g>
</svg>
