<svg width="215" height="215" viewBox="0 0 215 215" fill="none" xmlns="http://www.w3.org/2000/svg">
<rect y="0.365234" width="214.634" height="214.634" rx="40" fill="#F5F5F8"/>
<path d="M101.432 87.9902L101.432 87.9902C102.218 88.5291 103.109 88.8978 104.046 89.0728C104.683 89.1918 105.323 89.1904 105.816 89.1893C105.862 89.1892 105.907 89.1891 105.95 89.1891L126.323 89.1892C129.447 89.1893 131.625 89.191 133.332 89.3005C135.01 89.4082 135.99 89.6097 136.74 89.8999C139.511 90.9718 141.701 93.1619 142.773 95.9324C143.063 96.6826 143.265 97.6632 143.372 99.341C143.482 101.048 143.484 103.226 143.484 106.35V120.381C143.484 123.505 143.482 125.682 143.372 127.389C143.265 129.067 143.063 130.048 142.773 130.798C141.701 133.568 139.511 135.759 136.74 136.83C135.99 137.121 135.01 137.322 133.332 137.43C131.625 137.539 129.447 137.541 126.323 137.541H87.6769C84.5528 137.541 82.3751 137.539 80.6682 137.43C78.9903 137.322 78.0098 137.121 77.2596 136.83C74.4891 135.759 72.2989 133.568 71.2271 130.798C70.9369 130.048 70.7354 129.067 70.6277 127.389C70.5182 125.682 70.5165 123.505 70.5165 120.381V94.0422C70.5165 90.9181 70.5182 88.7405 70.6277 87.0336C70.7354 85.3558 70.9369 84.3752 71.2271 83.625C72.2989 80.8546 74.489 78.6644 77.2595 77.5925C78.0096 77.3023 78.9902 77.1008 80.6681 76.9931C82.375 76.8835 84.5525 76.8818 87.6767 76.8818L89.5885 76.8817C89.7514 76.8817 89.8773 76.8818 89.9865 76.8825C90.0581 76.883 90.1135 76.8838 90.1576 76.8848C90.1894 76.9153 90.2292 76.9539 90.2802 77.0042C90.3579 77.0808 90.447 77.1699 90.5622 77.2851L100.003 86.7259C100.034 86.7565 100.066 86.7882 100.098 86.8208C100.446 87.17 100.897 87.6235 101.432 87.9902Z" stroke="#CDCDCD" stroke-width="7.03297" stroke-linejoin="round"/>
</svg>
