<svg width="201" height="200" viewBox="0 0 201 200" fill="none" xmlns="http://www.w3.org/2000/svg">
<rect x="0.5" width="200" height="200" rx="57.1429" fill="#FAFAFA"/>
<path d="M125.537 135.166H75.4627C72.3385 135.166 70.1609 135.164 68.454 135.055C66.7761 134.947 65.7955 134.746 65.0453 134.455C62.2749 133.384 60.0847 131.193 59.0129 128.423C58.7227 127.673 58.5211 126.692 58.4135 125.014C58.3039 123.307 58.3023 121.13 58.3023 118.006V81.9969C58.3023 78.8727 58.3039 76.6952 58.4135 74.9883C58.5211 73.3104 58.7226 72.3298 59.0129 71.5797C60.0847 68.8092 62.2748 66.619 65.0452 65.5472C65.7954 65.257 66.776 65.0554 68.4538 64.9477C70.1607 64.8382 72.3383 64.8365 75.4624 64.8364L80.8907 64.8363C81.0536 64.8363 81.1796 64.8364 81.2888 64.8371C81.3603 64.8376 81.4158 64.8384 81.4598 64.8394C81.4917 64.8699 81.5315 64.9085 81.5824 64.9588C81.6602 65.0354 81.7492 65.1244 81.8644 65.2397L93.0638 76.4387C93.0945 76.4693 93.126 76.501 93.1585 76.5336C93.506 76.8828 93.9576 77.3363 94.4926 77.703C95.2789 78.2419 96.1691 78.6106 97.1061 78.7856C97.7437 78.9046 98.3837 78.9031 98.8764 78.902C98.9224 78.9019 98.9671 78.9018 99.0104 78.9018L125.538 78.9021C128.662 78.9021 130.839 78.9038 132.546 79.0133C134.224 79.121 135.205 79.3225 135.955 79.6128C138.725 80.6846 140.915 82.8748 141.987 85.6452C142.277 86.3954 142.479 87.376 142.587 89.0539C142.696 90.7608 142.698 92.9384 142.698 96.0625V118.006C142.698 121.13 142.696 123.307 142.587 125.014C142.479 126.692 142.277 127.673 141.987 128.423C140.915 131.193 138.725 133.384 135.955 134.455C135.205 134.746 134.224 134.947 132.546 135.055C130.839 135.164 128.662 135.166 125.537 135.166Z" stroke="#CDCDCD" stroke-width="7.03297" stroke-linejoin="round"/>
</svg>
