<svg width="16" height="16" viewBox="0 0 16 16" fill="none" xmlns="http://www.w3.org/2000/svg">
<path fill-rule="evenodd" clip-rule="evenodd" d="M11.3333 3.33337V2.66671C11.3333 2.31309 11.1929 1.97395 10.9428 1.7239C10.6928 1.47385 10.3536 1.33337 10 1.33337H6C5.64638 1.33337 5.30724 1.47385 5.05719 1.7239C4.80714 1.97395 4.66667 2.31309 4.66667 2.66671V3.33337H2.66667C2.48986 3.33337 2.32029 3.40361 2.19526 3.52864C2.07024 3.65366 2 3.82323 2 4.00004C2 4.17685 2.07024 4.34642 2.19526 4.47144C2.32029 4.59647 2.48986 4.66671 2.66667 4.66671H3.33333V12C3.33333 12.5305 3.54405 13.0392 3.91912 13.4143C4.29419 13.7893 4.8029 14 5.33333 14H10.6667C11.1971 14 11.7058 13.7893 12.0809 13.4143C12.456 13.0392 12.6667 12.5305 12.6667 12V4.66671H13.3333C13.5101 4.66671 13.6797 4.59647 13.8047 4.47144C13.9298 4.34642 14 4.17685 14 4.00004C14 3.82323 13.9298 3.65366 13.8047 3.52864C13.6797 3.40361 13.5101 3.33337 13.3333 3.33337H11.3333ZM10 2.66671H6V3.33337H10V2.66671ZM11.3333 4.66671H4.66667V12C4.66667 12.1769 4.7369 12.3464 4.86193 12.4714C4.98695 12.5965 5.15652 12.6667 5.33333 12.6667H10.6667C10.8435 12.6667 11.013 12.5965 11.1381 12.4714C11.2631 12.3464 11.3333 12.1769 11.3333 12V4.66671Z" fill="#525866"/>
<path d="M6 6H7.33333V11.3333H6V6ZM8.66667 6H10V11.3333H8.66667V6Z" fill="#525866"/>
</svg>
