<svg width="32" height="32" viewBox="0 0 32 32" fill="none" xmlns="http://www.w3.org/2000/svg">
<path d="M25.8 13.3873C24.8933 8.78732 20.8533 5.33398 16 5.33398C12.1467 5.33398 8.8 7.52065 7.13333 10.7207C3.12 11.1473 0 14.5473 0 18.6673C0 23.0807 3.58667 26.6673 8 26.6673H25.3333C29.0133 26.6673 32 23.6807 32 20.0007C32 16.4807 29.2667 13.6273 25.8 13.3873ZM25.3333 24.0007H8C5.05333 24.0007 2.66667 21.614 2.66667 18.6673C2.66667 15.934 4.70667 13.654 7.41333 13.374L8.84 13.2273L9.50667 11.9607C10.7733 9.52065 13.2533 8.00065 16 8.00065C19.4933 8.00065 22.5067 10.4807 23.1867 13.9073L23.5867 15.9073L25.6267 16.054C27.7067 16.1873 29.3333 17.934 29.3333 20.0007C29.3333 22.2007 27.5333 24.0007 25.3333 24.0007ZM10.6667 17.334H14.0667V21.334H17.9333V17.334H21.3333L16 12.0007L10.6667 17.334Z" fill="#525866"/>
</svg>
