<svg width="40" height="40" viewBox="0 0 40 40" fill="none" xmlns="http://www.w3.org/2000/svg">
<path d="M25.3332 3.3335H11.9998C10.1665 3.3335 8.68317 4.8335 8.68317 6.66683L8.6665 33.3335C8.6665 35.1668 10.1498 36.6668 11.9832 36.6668H31.9998C33.8332 36.6668 35.3332 35.1668 35.3332 33.3335V13.3335L25.3332 3.3335ZM11.9998 33.3335V6.66683H23.6665V15.0002H31.9998V33.3335H11.9998Z" fill="#D6D5D5"/>
<path d="M0 17C0 16.4477 0.447715 16 1 16H29.54C30.0923 16 30.54 16.4477 30.54 17V27C30.54 27.5523 30.0923 28 29.54 28H1C0.447717 28 0 27.5523 0 27V17Z" fill="#41A5F0"/>
<path d="M22.4971 24.9043V24.1504H23.8486C24.2757 24.1504 24.6312 24.0697 24.915 23.9082C25.1989 23.7467 25.4111 23.5124 25.5518 23.2051C25.695 22.8952 25.7666 22.5163 25.7666 22.0684C25.7666 21.6257 25.6963 21.2507 25.5557 20.9434C25.4176 20.6335 25.2093 20.3991 24.9307 20.2402C24.6546 20.0814 24.3109 20.002 23.8994 20.002H22.4658V19.248H23.9502C24.5049 19.248 24.9814 19.36 25.3799 19.584C25.7809 19.8079 26.0869 20.1322 26.2979 20.5566C26.5114 20.9811 26.6182 21.485 26.6182 22.0684C26.6182 22.6569 26.5101 23.1634 26.2939 23.5879C26.0804 24.0124 25.7692 24.3379 25.3604 24.5645C24.9541 24.791 24.4671 24.9043 23.8994 24.9043H22.4971ZM22.9229 24.9043H22.0635V19.248H22.9229V24.9043Z" fill="white"/>
<path d="M17.1338 19.248H19.1494C19.5817 19.248 19.9437 19.3223 20.2354 19.4707C20.5296 19.6165 20.7497 19.8236 20.8955 20.0918C21.0413 20.36 21.1143 20.6712 21.1143 21.0254C21.1143 21.3743 21.0413 21.6803 20.8955 21.9434C20.7497 22.2038 20.5283 22.4069 20.2314 22.5527C19.9372 22.6986 19.5752 22.7715 19.1455 22.7715H17.6182V22.0254H19.0635C19.3395 22.0254 19.5648 21.9863 19.7393 21.9082C19.9137 21.8301 20.0413 21.7168 20.1221 21.5684C20.2054 21.4199 20.2471 21.2389 20.2471 21.0254C20.2471 20.804 20.2054 20.6165 20.1221 20.4629C20.0413 20.3066 19.9124 20.1882 19.7354 20.1074C19.5583 20.0267 19.333 19.9863 19.0596 19.9863H17.9932V24.9043H17.1338V19.248ZM21.3252 24.9043H20.3447L18.9775 22.3535H19.9307L21.3252 24.9043Z" fill="white"/>
<path d="M16.1611 22.0762C16.1611 22.6647 16.0518 23.179 15.833 23.6191C15.6143 24.0592 15.3122 24.3965 14.9268 24.6309C14.5439 24.8652 14.1064 24.9824 13.6143 24.9824C13.1221 24.9824 12.6833 24.8652 12.2979 24.6309C11.915 24.3965 11.6143 24.0592 11.3955 23.6191C11.1768 23.179 11.0674 22.6647 11.0674 22.0762C11.0674 21.4824 11.1768 20.9668 11.3955 20.5293C11.6143 20.0918 11.915 19.7559 12.2979 19.5215C12.6833 19.2871 13.1221 19.1699 13.6143 19.1699C14.1064 19.1699 14.5439 19.2871 14.9268 19.5215C15.3122 19.7559 15.6143 20.0918 15.833 20.5293C16.0518 20.9668 16.1611 21.4824 16.1611 22.0762ZM15.3135 22.0762C15.3135 21.6283 15.2406 21.2454 15.0947 20.9277C14.9489 20.6074 14.7484 20.3652 14.4932 20.2012C14.238 20.0371 13.945 19.9551 13.6143 19.9551C13.2861 19.9551 12.9932 20.0371 12.7354 20.2012C12.4801 20.3652 12.2796 20.6074 12.1338 20.9277C11.988 21.2454 11.915 21.6283 11.915 22.0762C11.915 22.5241 11.988 22.9082 12.1338 23.2285C12.2796 23.5462 12.4801 23.7871 12.7354 23.9512C12.9932 24.1152 13.2861 24.1973 13.6143 24.1973C13.945 24.1973 14.238 24.1152 14.4932 23.9512C14.7484 23.7871 14.9489 23.5462 15.0947 23.2285C15.2406 22.9082 15.3135 22.5241 15.3135 22.0762Z" fill="white"/>
<path d="M3.54004 19.248H4.44238L5.54395 23.6191H5.59863L6.73926 19.248H7.63379L8.78223 23.623H8.8291L9.93457 19.248H10.833L9.2627 24.9043H8.39551L7.21191 20.6738H7.16895L5.97754 24.9043H5.11035L3.54004 19.248Z" fill="white"/>
</svg>
