<svg width="40" height="40" viewBox="0 0 40 40" fill="none" xmlns="http://www.w3.org/2000/svg">
<path d="M19.9915 11.666C15.3915 11.666 11.6665 15.3993 11.6665 19.9993C11.6665 24.5993 15.3915 28.3327 19.9915 28.3327C24.5998 28.3327 28.3332 24.5993 28.3332 19.9993C28.3332 15.3993 24.5998 11.666 19.9915 11.666ZM19.9998 26.666C16.3165 26.666 13.3332 23.6827 13.3332 19.9993C13.3332 16.316 16.3165 13.3327 19.9998 13.3327C23.6832 13.3327 26.6665 16.316 26.6665 19.9993C26.6665 23.6827 23.6832 26.666 19.9998 26.666ZM22.9165 19.166C23.6082 19.166 24.1665 18.6077 24.1665 17.916C24.1665 17.2243 23.6082 16.666 22.9165 16.666C22.2248 16.666 21.6665 17.2243 21.6665 17.916C21.6665 18.6077 22.2248 19.166 22.9165 19.166ZM17.0832 19.166C17.7748 19.166 18.3332 18.6077 18.3332 17.916C18.3332 17.2243 17.7748 16.666 17.0832 16.666C16.3915 16.666 15.8332 17.2243 15.8332 17.916C15.8332 18.6077 16.3915 19.166 17.0832 19.166ZM19.9998 24.5827C21.9415 24.5827 23.5915 23.366 24.2582 21.666H15.7415C16.4082 23.366 18.0582 24.5827 19.9998 24.5827Z" fill="#525866"/>
</svg>
