<svg width="104" height="38" viewBox="0 0 52 20" fill="none" xmlns="http://www.w3.org/2000/svg">
<path fill-rule="evenodd" clip-rule="evenodd" d="M7 0.5C8.10457 0.5 9 1.39543 9 2.5V5C9 5.02627 8.99948 5.05254 8.99845 5.07878L8.99676 5.12295L8.99191 5.2563C8.98779 5.37289 8.98204 5.54263 8.97564 5.75312C8.96283 6.17449 8.94747 6.75713 8.93725 7.40238C8.91636 8.72076 8.91887 10.2055 8.99354 11.1325C9.05208 11.8592 9.37178 13.0181 10.0921 13.9457C10.7502 14.7932 11.7693 15.5 13.5 15.5C15.2307 15.5 16.2498 14.7932 16.9079 13.9457C17.6282 13.0181 17.9479 11.8592 18.0065 11.1325C18.0951 10.0315 19.0596 9.21087 20.1606 9.29956C21.2616 9.38825 22.0822 10.3527 21.9935 11.4537C21.8854 12.796 21.3551 14.7405 20.0671 16.3991C18.7169 18.1379 16.5693 19.5 13.5 19.5C10.4307 19.5 8.28312 18.1379 6.93286 16.3991C5.64489 14.7405 5.11459 12.796 5.00646 11.4537C4.91446 10.3117 4.91698 8.64993 4.93775 7.339C4.93958 7.22386 4.94156 7.11068 4.94365 7H2C0.89543 7 0 6.10457 0 5C0 3.89543 0.89543 3 2 3H5V2.5C5 1.39543 5.89543 0.5 7 0.5Z" fill="#466DEB"/>
<path fill-rule="evenodd" clip-rule="evenodd" d="M42.903 1.12579C43.6841 1.90684 43.6841 3.17317 42.903 3.95422L36.8684 9.98882L42.903 16.0234C43.6841 16.8045 43.6841 18.0708 42.903 18.8518C42.122 19.6329 40.8557 19.6329 40.0746 18.8518L32.6258 11.403C31.8447 10.622 31.8447 9.35565 32.6258 8.57461L40.0746 1.12579C40.8557 0.344743 42.122 0.344743 42.903 1.12579Z" fill="#466DEB"/>
<rect x="25" y="0.5" width="4" height="14" rx="2" fill="#466DEB"/>
<rect x="25" y="15.5" width="4" height="4" rx="2" fill="#466DEB"/>
<rect width="4" height="14" rx="2" transform="matrix(1 0 0 -1 48 19.5)" fill="#466DEB"/>
<rect width="4" height="4" rx="2" transform="matrix(1 0 0 -1 48 4.5)" fill="#466DEB"/>
</svg>
