<svg width="108" height="40" viewBox="0 0 108 40" fill="none" xmlns="http://www.w3.org/2000/svg">
<g id="logo_tiki_md" clip-path="url(#clip0_662_4931)">
<path id="Vector 728 (Stroke)" fill-rule="evenodd" clip-rule="evenodd" d="M14.5801 1.18994C16.7671 1.18994 18.5401 2.96289 18.5401 5.14994V10.0999C18.5401 10.152 18.5391 10.204 18.537 10.2559L18.5337 10.3434L18.5241 10.6074C18.5159 10.8383 18.5045 11.1744 18.4919 11.5911C18.4665 12.4254 18.4361 13.5791 18.4158 14.8567C18.3745 17.467 18.3794 20.4069 18.5273 22.2423C18.6432 23.6811 19.2762 25.9758 20.7025 27.8125C22.0055 29.4904 24.0232 30.8899 27.4501 30.8899C30.877 30.8899 32.8947 29.4904 34.1977 27.8125C35.624 25.9758 36.257 23.6811 36.3729 22.2423C36.5485 20.0623 38.4581 18.4375 40.6381 18.6131C42.8181 18.7887 44.4429 20.6983 44.2673 22.8783C44.0532 25.536 43.0032 29.3862 40.453 32.6701C37.7795 36.1129 33.5272 38.8099 27.4501 38.8099C21.373 38.8099 17.1207 36.1129 14.4472 32.6701C11.897 29.3862 10.847 25.536 10.6329 22.8783C10.4507 20.6171 10.4557 17.3268 10.4968 14.7312C10.5005 14.5032 10.5044 14.2791 10.5085 14.0599H4.68009C2.49305 14.0599 0.720093 12.287 0.720093 10.0999C0.720093 7.91289 2.49305 6.13994 4.68009 6.13994H10.6201V5.14994C10.6201 2.96289 12.393 1.18994 14.5801 1.18994Z" fill="#353F9B"/>
<path id="Vector 728 (Stroke)_2" fill-rule="evenodd" clip-rule="evenodd" d="M85.6681 2.42905C87.2145 3.97553 87.2145 6.48286 85.6681 8.02933L73.7196 19.9778L85.6681 31.9263C87.2145 33.4728 87.2145 35.9802 85.6681 37.5266C84.1216 39.0731 81.6143 39.0731 80.0678 37.5266L65.3191 22.778C63.7727 21.2315 63.7727 18.7242 65.3191 17.1777L80.0678 2.42905C81.6143 0.882573 84.1216 0.882573 85.6681 2.42905Z" fill="#353F9B"/>
<rect id="Rectangle 6" x="50.2201" y="1.18994" width="7.92" height="27.72" rx="3.96" fill="#353F9B"/>
<rect id="Rectangle 8" x="50.2201" y="30.8901" width="7.92" height="7.92" rx="3.96" fill="#353F9B"/>
<rect id="Rectangle 6_2" width="7.92" height="27.72" rx="3.96" transform="matrix(1 0 0 -1 95.76 38.8101)" fill="#353F9B"/>
<rect id="Rectangle 8_2" width="7.92" height="7.92" rx="3.96" transform="matrix(1 0 0 -1 95.76 9.10986)" fill="#353F9B"/>
</g>
<defs>
<clipPath id="clip0_662_4931">
<rect width="108" height="40" fill="white"/>
</clipPath>
</defs>
</svg>
