<svg width="40" height="40" viewBox="0 0 40 40" fill="none" xmlns="http://www.w3.org/2000/svg">
<rect width="40" height="40" rx="10" fill="#466DEB"/>
<g clip-path="url(#clip0_662_8570)">
<path fill-rule="evenodd" clip-rule="evenodd" d="M30.9142 9.08578C31.6953 9.86683 31.6953 11.1332 30.9142 11.9142L28.0858 14.7426L30.9142 17.5711C31.6953 18.3521 31.6953 19.6184 30.9142 20.3995C30.1332 21.1805 28.8668 21.1805 28.0858 20.3995L23.8431 16.1569C23.0621 15.3758 23.0621 14.1095 23.8431 13.3284L28.0858 9.08578C28.8668 8.30473 30.1332 8.30473 30.9142 9.08578Z" fill="white"/>
<path fill-rule="evenodd" clip-rule="evenodd" d="M7.5 15C7.5 13.8954 8.39543 13 9.5 13H14.5C15.039 13 15.5552 13.2176 15.9316 13.6034C16.308 13.9893 16.5127 14.5107 16.4994 15.0496L16.3427 15.0457C16.4994 15.0496 16.4994 15.0495 16.4994 15.0496L16.4927 15.338C16.4885 15.5242 16.4826 15.7931 16.4762 16.1223C16.4632 16.781 16.4477 17.68 16.4374 18.6422C16.4162 20.6117 16.4191 22.7084 16.4935 23.6325C16.5521 24.3592 16.8718 25.5181 17.5921 26.4457C18.2502 27.2932 19.2693 28 21 28C22.7307 28 23.7498 27.2932 24.4079 26.4457C25.1282 25.5181 25.4479 24.3592 25.5065 23.6325C25.5951 22.5315 26.5596 21.7109 27.6606 21.7996C28.7616 21.8883 29.5822 22.8527 29.4935 23.9537C29.3854 25.296 28.8551 27.2405 27.5671 28.8991C26.2169 30.6379 24.0693 32 21 32C17.9307 32 15.7831 30.6379 14.4329 28.8991C13.1449 27.2405 12.6146 25.296 12.5065 23.9537C12.4142 22.8088 12.4171 20.509 12.4376 18.5992C12.4437 18.0323 12.4516 17.4876 12.4596 17H9.5C8.39543 17 7.5 16.1046 7.5 15Z" fill="white"/>
<rect x="12.5" y="9" width="4" height="8" rx="2" fill="white"/>
</g>
<defs>
<clipPath id="clip0_662_8570">
<rect width="24" height="24" fill="white" transform="translate(7.5 8)"/>
</clipPath>
</defs>
</svg>
