<svg width="108" height="40" viewBox="0 0 108 40" fill="none" xmlns="http://www.w3.org/2000/svg">
<g clip-path="url(#clip0_382_171)">
<path fill-rule="evenodd" clip-rule="evenodd" d="M14.58 1.18997C16.7671 1.18997 18.54 2.96292 18.54 5.14997V10.1C18.54 10.152 18.539 10.204 18.537 10.256L18.5336 10.3434L18.524 10.6074C18.5159 10.8383 18.5045 11.1744 18.4918 11.5911C18.4664 12.4255 18.436 13.5791 18.4158 14.8567C18.3744 17.4671 18.3794 20.4069 18.5273 22.2423C18.6432 23.6812 19.2762 25.9758 20.7025 27.8125C22.0055 29.4904 24.0232 30.89 27.45 30.89C30.8769 30.89 32.8946 29.4904 34.1976 27.8125C35.6239 25.9758 36.2569 23.6812 36.3728 22.2423C36.5484 20.0624 38.458 18.4375 40.638 18.6131C42.818 18.7887 44.4429 20.6983 44.2673 22.8783C44.0532 25.536 43.0032 29.3862 40.453 32.6702C37.7795 36.113 33.5272 38.81 27.45 38.81C21.3729 38.81 17.1206 36.113 14.4471 32.6702C11.8969 29.3862 10.8469 25.536 10.6328 22.8783C10.4507 20.6172 10.4557 17.3268 10.4968 14.7312C10.5004 14.5032 10.5043 14.2791 10.5085 14.06H4.68004C2.493 14.06 0.720044 12.287 0.720044 10.1C0.720044 7.91292 2.493 6.13997 4.68004 6.13997H10.62V5.14997C10.62 2.96292 12.393 1.18997 14.58 1.18997Z" fill="#466DEB"/>
<path fill-rule="evenodd" clip-rule="evenodd" d="M85.6681 2.42905C87.2145 3.97553 87.2145 6.48286 85.6681 8.02933L73.7196 19.9778L85.6681 31.9263C87.2145 33.4728 87.2145 35.9802 85.6681 37.5266C84.1216 39.0731 81.6143 39.0731 80.0678 37.5266L65.3191 22.778C63.7727 21.2315 63.7727 18.7242 65.3191 17.1777L80.0678 2.42905C81.6143 0.882573 84.1216 0.882573 85.6681 2.42905Z" fill="#466DEB"/>
<rect x="50.22" y="1.18997" width="7.92" height="27.72" rx="3.96" fill="#466DEB"/>
<rect x="50.22" y="30.89" width="7.92" height="7.92" rx="3.96" fill="#466DEB"/>
<rect width="7.92" height="27.72" rx="3.96" transform="matrix(1 0 0 -1 95.76 38.81)" fill="#466DEB"/>
<rect width="7.92" height="7.92" rx="3.96" transform="matrix(1 0 0 -1 95.76 9.10999)" fill="#466DEB"/>
</g>
<defs>
<clipPath id="clip0_382_171">
<rect width="108" height="40" fill="white"/>
</clipPath>
</defs>
</svg>
