<svg width="60" height="22" viewBox="0 0 60 22" fill="none" xmlns="http://www.w3.org/2000/svg">
<g clip-path="url(#clip0_382_152)">
<path fill-rule="evenodd" clip-rule="evenodd" d="M8.10002 0.549988C9.31505 0.549988 10.3 1.53496 10.3 2.74999V5.49999C10.3 5.52888 10.2995 5.55778 10.2983 5.58665L10.2965 5.63523L10.2911 5.78192C10.2866 5.91017 10.2803 6.09688 10.2732 6.32842C10.2591 6.79193 10.2422 7.43284 10.231 8.14261C10.208 9.59282 10.2108 11.2261 10.2929 12.2458C10.3573 13.0451 10.709 14.3199 11.5014 15.3403C12.2253 16.2725 13.3462 17.05 15.25 17.05C17.1538 17.05 18.2748 16.2725 18.9987 15.3403C19.7911 14.3199 20.1427 13.0451 20.2071 12.2458C20.3047 11.0346 21.3656 10.1319 22.5767 10.2295C23.7878 10.3271 24.6905 11.3879 24.5929 12.5991C24.474 14.0756 23.8906 16.2146 22.4739 18.039C20.9886 19.9517 18.6262 21.45 15.25 21.45C11.8738 21.45 9.51146 19.9517 8.02617 18.039C6.6094 16.2146 6.02607 14.0756 5.90713 12.5991C5.80594 11.3429 5.8087 9.51491 5.83155 8.07289C5.83356 7.94623 5.83574 7.82174 5.83804 7.69999H2.60002C1.385 7.69999 0.400024 6.71501 0.400024 5.49999C0.400024 4.28496 1.385 3.29999 2.60002 3.29999H5.90002V2.74999C5.90002 1.53496 6.885 0.549988 8.10002 0.549988Z" fill="#466DEB"/>
<path fill-rule="evenodd" clip-rule="evenodd" d="M47.5934 1.23834C48.4525 2.0975 48.4525 3.49046 47.5934 4.34961L40.9553 10.9877L47.5934 17.6257C48.4525 18.4849 48.4525 19.8779 47.5934 20.737C46.7342 21.5962 45.3412 21.5962 44.4821 20.737L36.2884 12.5433C35.4292 11.6842 35.4292 10.2912 36.2884 9.43204L44.4821 1.23834C45.3412 0.37919 46.7342 0.37919 47.5934 1.23834Z" fill="#466DEB"/>
<rect x="27.9" y="0.549988" width="4.4" height="15.4" rx="2.2" fill="#466DEB"/>
<rect x="27.9" y="17.05" width="4.4" height="4.4" rx="2.2" fill="#466DEB"/>
<rect width="4.4" height="15.4" rx="2.2" transform="matrix(1 0 0 -1 53.2 21.45)" fill="#466DEB"/>
<rect width="4.4" height="4.4" rx="2.2" transform="matrix(1 0 0 -1 53.2 4.94998)" fill="#466DEB"/>
</g>
<defs>
<clipPath id="clip0_382_152">
<rect width="60" height="22" fill="white"/>
</clipPath>
</defs>
</svg>
