<svg width="24" height="24" viewBox="0 0 24 24" fill="none" xmlns="http://www.w3.org/2000/svg">
<path fill-rule="evenodd" clip-rule="evenodd" d="M8.49983 11.1C10.6698 11.1 12.4298 9.29 12.4298 7.05C12.4298 4.81 10.6698 3 8.49983 3C6.32982 3 4.56982 4.81 4.56982 7.05C4.56982 9.29 6.32982 11.1 8.49983 11.1ZM5.26982 12C4.36982 12 3.61982 12.7 3.52982 13.62L3.00982 19.02C2.90982 20.08 3.71982 21 4.74982 21H12.2498C13.2798 21 14.0898 20.08 13.9898 19.02L13.4698 13.62C13.3798 12.7 12.6298 12 11.7298 12H5.27982H5.26982Z" fill="#D9D9D9"/>
<path fill-rule="evenodd" clip-rule="evenodd" d="M15.4998 11.1C17.6698 11.1 19.4298 9.29 19.4298 7.05C19.4298 4.81 17.6698 3 15.4998 3C13.3298 3 11.5698 4.81 11.5698 7.05C11.5698 9.29 13.3298 11.1 15.4998 11.1ZM12.2698 12C11.3698 12 10.6198 12.7 10.5298 13.62L10.0098 19.02C9.90982 20.08 10.7198 21 11.7498 21H19.2498C20.2798 21 21.0898 20.08 20.9898 19.02L20.4698 13.62C20.3798 12.7 19.6298 12 18.7298 12H12.2798H12.2698Z" fill="#556480"/>
</svg>
