<svg width="46" height="46" viewBox="0 0 46 46" fill="none" xmlns="http://www.w3.org/2000/svg">
<rect x="1.5" y="1.5" width="43" height="43" rx="21.5" fill="white"/>
<rect x="1.5" y="1.5" width="43" height="43" rx="21.5" stroke="#FAFAFA" stroke-width="3"/>
<path fill-rule="evenodd" clip-rule="evenodd" d="M19.5001 22.1C21.6701 22.1 23.4301 20.29 23.4301 18.05C23.4301 15.81 21.6701 14 19.5001 14C17.3301 14 15.5701 15.81 15.5701 18.05C15.5701 20.29 17.3301 22.1 19.5001 22.1ZM16.2701 23C15.3701 23 14.6201 23.7 14.5301 24.62L14.0101 30.02C13.9101 31.08 14.7201 32 15.7501 32H23.2501C24.2801 32 25.0901 31.08 24.9901 30.02L24.4701 24.62C24.3801 23.7 23.6301 23 22.7301 23H16.2801H16.2701Z" fill="#D9D9D9"/>
<path fill-rule="evenodd" clip-rule="evenodd" d="M26.5001 22.1C28.6701 22.1 30.4301 20.29 30.4301 18.05C30.4301 15.81 28.6701 14 26.5001 14C24.3301 14 22.5701 15.81 22.5701 18.05C22.5701 20.29 24.3301 22.1 26.5001 22.1ZM23.2701 23C22.3701 23 21.6201 23.7 21.5301 24.62L21.0101 30.02C20.9101 31.08 21.7201 32 22.7501 32H30.2501C31.2801 32 32.0901 31.08 31.9901 30.02L31.4701 24.62C31.3801 23.7 30.6301 23 29.7301 23H23.2801H23.2701Z" fill="#353F9B"/>
</svg>
