<svg width="46" height="46" viewBox="0 0 46 46" fill="none" xmlns="http://www.w3.org/2000/svg">
<rect x="1.5" y="1.5" width="43" height="43" rx="21.5" fill="white"/>
<rect x="1.5" y="1.5" width="43" height="43" rx="21.5" stroke="#FAFAFA" stroke-width="3"/>
<path d="M16 20.5V23.5H15C14.4 23.5 14 23.1 14 22.5V21.5C14 20.9 14.4 20.5 15 20.5H16Z" fill="#353F9B"/>
<path d="M16 20.8002C16 19.9002 16.6 19.2002 17.4 18.9002L29.4 14.9002C30.7 14.4002 32 15.4002 32 16.8002V27.3002C32 28.7002 30.7 29.6002 29.4 29.2002L17.4 25.2002C16.6 24.9002 16 24.2002 16 23.3002V20.8002Z" fill="#D9D9D9"/>
<path d="M17.5 25.1997L20.5 26.1997L21.2 31.0997C21.3 32.1997 20.5 33.1997 19.3 33.1997C18.3 33.1997 17.4 32.3997 17.4 31.2997V25.1997H17.5Z" fill="#353F9B"/>
</svg>
