<svg width="16" height="16" viewBox="0 0 16 16" fill="none" xmlns="http://www.w3.org/2000/svg">
<mask id="path-1-inside-1_1124_762" fill="white">
<path d="M12.3815 14.7689H3.61846C2.54081 14.7689 2.00199 14.7689 1.57339 14.6031C0.926946 14.353 0.415901 13.842 0.165812 13.1955C0 12.7669 0 12.2281 0 11.1505V4.84895C0 3.77131 0 3.2325 0.165808 2.8039C0.415893 2.15747 0.926929 1.64642 1.57336 1.39633C2.00195 1.23051 2.54077 1.23051 3.6184 1.23049L4.56836 1.23047C4.67991 1.23047 4.73569 1.23047 4.78868 1.24037C4.86843 1.25525 4.94419 1.28663 5.01111 1.33249C5.05558 1.36297 5.09503 1.40241 5.17391 1.48129L7.1338 3.44112C7.21267 3.52 7.25211 3.55943 7.29658 3.58991C7.3635 3.63577 7.43926 3.66715 7.519 3.68204C7.572 3.69193 7.62777 3.69193 7.73932 3.69194L12.3816 3.69198C13.4592 3.69199 13.998 3.69199 14.4266 3.8578C15.0731 4.1079 15.5841 4.61894 15.8342 5.26538C16 5.69397 16 6.23279 16 7.31043V11.1505C16 12.2281 16 12.7669 15.8342 13.1955C15.5841 13.842 15.0731 14.353 14.4266 14.6031C13.998 14.7689 13.4592 14.7689 12.3815 14.7689Z"/>
</mask>
<path d="M12.3816 3.69198L12.3816 2.49198L12.3816 3.69198ZM7.73932 3.69194L7.73933 2.49194L7.73932 3.69194ZM7.1338 3.44112L7.98231 2.59258L7.98231 2.59258L7.1338 3.44112ZM5.17391 1.48129L4.32539 2.32983L4.32539 2.32983L5.17391 1.48129ZM4.56836 1.23047L4.56838 2.43047L4.56836 1.23047ZM3.6184 1.23049L3.61839 0.0304886L3.6184 1.23049ZM1.57336 1.39633L2.00635 2.51549L1.57336 1.39633ZM0.165808 2.8039L1.28498 3.23687L0.165808 2.8039ZM5.01111 1.33249L4.33273 2.32234L4.33274 2.32235L5.01111 1.33249ZM4.78868 1.24037L5.00889 0.0607435L5.00889 0.0607433L4.78868 1.24037ZM7.519 3.68204L7.73924 2.50242L7.73923 2.50242L7.519 3.68204ZM7.29658 3.58991L6.6182 4.57976L6.6182 4.57976L7.29658 3.58991ZM15.8342 5.26538L14.715 5.69835L15.8342 5.26538ZM14.4266 3.8578L14.8596 2.73864L14.8596 2.73864L14.4266 3.8578ZM14.4266 14.6031L13.9936 13.484V13.484L14.4266 14.6031ZM15.8342 13.1955L14.715 12.7626H14.715L15.8342 13.1955ZM1.57339 14.6031L1.14042 15.7223H1.14042L1.57339 14.6031ZM0.165812 13.1955L1.28498 12.7626H1.28498L0.165812 13.1955ZM3.61846 15.9689H12.3815V13.5689H3.61846V15.9689ZM17.2 11.1505V7.31043H14.8V11.1505H17.2ZM12.3816 2.49198L7.73933 2.49194L7.73931 4.89194L12.3816 4.89198L12.3816 2.49198ZM7.98231 2.59258L6.02242 0.632748L4.32539 2.32983L6.28528 4.28966L7.98231 2.59258ZM4.56834 0.0304741L3.61839 0.0304886L3.61842 2.43049L4.56838 2.43047L4.56834 0.0304741ZM-1.2 4.84895V11.1505H1.2V4.84895H-1.2ZM3.61839 0.0304886C3.09498 0.0304966 2.64595 0.0299288 2.27563 0.0536983C1.89539 0.0781039 1.51655 0.131629 1.14038 0.277166L2.00635 2.51549C2.05876 2.49521 2.16363 2.46583 2.42936 2.44877C2.705 2.43108 3.06419 2.4305 3.61842 2.43049L3.61839 0.0304886ZM1.2 4.84895C1.2 4.29472 1.20057 3.93553 1.21826 3.65988C1.23532 3.39415 1.2647 3.28929 1.28498 3.23687L-0.95336 2.37093C-1.09889 2.74711 -1.15241 3.12596 -1.17681 3.50619C-1.20057 3.87651 -1.2 4.32555 -1.2 4.84895H1.2ZM1.14038 0.277166C0.178807 0.649182 -0.581359 1.40936 -0.95336 2.37093L1.28498 3.23687C1.41315 2.90557 1.67505 2.64366 2.00635 2.51549L1.14038 0.277166ZM6.02242 0.63275C5.97499 0.585315 5.84688 0.450507 5.68949 0.342641L4.33274 2.32235C4.32252 2.31534 4.3129 2.30839 4.30398 2.30165C4.2951 2.29493 4.28744 2.28883 4.2811 2.2836C4.27481 2.27842 4.26998 2.27424 4.26681 2.27144C4.26523 2.27004 4.26402 2.26895 4.26323 2.26823C4.26245 2.26752 4.26203 2.26713 4.26202 2.26713C4.26202 2.26712 4.26236 2.26744 4.26311 2.26815C4.26385 2.26886 4.26492 2.26988 4.26638 2.27128C4.26936 2.27416 4.27342 2.27811 4.27898 2.2836C4.28456 2.2891 4.29103 2.29553 4.2989 2.30337C4.30683 2.31127 4.31538 2.31982 4.32539 2.32983L6.02242 0.63275ZM4.56838 2.43047C4.58253 2.43047 4.59463 2.43047 4.60581 2.43049C4.61693 2.43051 4.62605 2.43054 4.63388 2.4306C4.6417 2.43065 4.64736 2.43073 4.6515 2.4308C4.65352 2.43084 4.65501 2.43087 4.65603 2.4309C4.65705 2.43092 4.65753 2.43094 4.65752 2.43094C4.65751 2.43094 4.65694 2.43092 4.65588 2.43087C4.65482 2.43082 4.6532 2.43073 4.65109 2.4306C4.64687 2.43034 4.64049 2.42989 4.63239 2.4291C4.62421 2.42831 4.61447 2.42722 4.60345 2.42568C4.59237 2.42414 4.58066 2.42226 4.56848 2.41999L5.00889 0.0607433C4.82133 0.0257293 4.63542 0.0304731 4.56834 0.0304741L4.56838 2.43047ZM5.68949 0.342643C5.48473 0.202313 5.25291 0.106296 5.00889 0.0607435L4.56848 2.41999C4.48395 2.40421 4.40366 2.37095 4.33273 2.32234L5.68949 0.342643ZM7.73933 2.49194C7.72517 2.49194 7.71308 2.49193 7.7019 2.49192C7.69079 2.4919 7.68166 2.49187 7.67383 2.49181C7.66602 2.49175 7.66035 2.49168 7.65621 2.49161C7.65419 2.49157 7.65271 2.49154 7.65168 2.49151C7.65066 2.49148 7.65019 2.49147 7.65019 2.49147C7.6502 2.49147 7.65077 2.49149 7.65183 2.49154C7.65289 2.49159 7.65451 2.49167 7.65663 2.4918C7.66085 2.49207 7.66722 2.49252 7.67532 2.4933C7.6835 2.49409 7.69324 2.49519 7.70427 2.49672C7.71535 2.49826 7.72706 2.50015 7.73924 2.50242L7.29877 4.86166C7.48633 4.89667 7.67223 4.89193 7.73931 4.89194L7.73933 2.49194ZM6.28528 4.28966C6.33272 4.3371 6.46082 4.47189 6.6182 4.57976L7.97497 2.60007C7.98519 2.60707 7.9948 2.61402 8.00372 2.62076C8.0126 2.62748 8.02027 2.63358 8.02661 2.63881C8.03289 2.64399 8.03772 2.64817 8.04089 2.65097C8.04247 2.65237 8.04368 2.65346 8.04447 2.65417C8.04525 2.65489 8.04567 2.65527 8.04567 2.65528C8.04568 2.65528 8.04533 2.65496 8.04459 2.65426C8.04385 2.65355 8.04277 2.65253 8.04132 2.65112C8.03834 2.64825 8.03428 2.64429 8.02871 2.63881C8.02314 2.63331 8.01666 2.62688 8.00879 2.61904C8.00087 2.61114 7.99232 2.60259 7.98231 2.59258L6.28528 4.28966ZM7.73923 2.50242C7.82375 2.5182 7.90404 2.55146 7.97497 2.60006L6.6182 4.57976C6.82296 4.72009 7.05476 4.8161 7.29877 4.86166L7.73923 2.50242ZM17.2 7.31043C17.2 6.78703 17.2006 6.33799 17.1768 5.96767C17.1524 5.58743 17.0989 5.20859 16.9534 4.83241L14.715 5.69835C14.7353 5.75076 14.7647 5.85563 14.7817 6.12136C14.7994 6.39701 14.8 6.7562 14.8 7.31043H17.2ZM12.3816 4.89198C12.9358 4.89198 13.295 4.89256 13.5706 4.91025C13.8364 4.9273 13.9412 4.95669 13.9936 4.97697L14.8596 2.73864C14.4834 2.5931 14.1046 2.53958 13.7243 2.51518C13.354 2.49141 12.905 2.49198 12.3816 2.49198L12.3816 4.89198ZM16.9534 4.83241C16.5814 3.87083 15.8212 3.11065 14.8596 2.73864L13.9936 4.97697C14.3249 5.10514 14.5869 5.36705 14.715 5.69835L16.9534 4.83241ZM12.3815 15.9689C12.905 15.9689 13.354 15.9695 13.7243 15.9457C14.1046 15.9213 14.4834 15.8678 14.8596 15.7223L13.9936 13.484C13.9412 13.5042 13.8364 13.5336 13.5706 13.5507C13.295 13.5684 12.9358 13.5689 12.3815 13.5689V15.9689ZM14.8 11.1505C14.8 11.7047 14.7994 12.0639 14.7817 12.3396C14.7647 12.6053 14.7353 12.7102 14.715 12.7626L16.9534 13.6285C17.0989 13.2523 17.1524 12.8735 17.1768 12.4932C17.2006 12.1229 17.2 11.6739 17.2 11.1505H14.8ZM14.8596 15.7223C15.8212 15.3503 16.5813 14.5901 16.9534 13.6285L14.715 12.7626C14.5869 13.0939 14.3249 13.3558 13.9936 13.484L14.8596 15.7223ZM3.61846 13.5689C3.06422 13.5689 2.70503 13.5684 2.42938 13.5507C2.16364 13.5336 2.05878 13.5042 2.00636 13.484L1.14042 15.7223C1.5166 15.8678 1.89544 15.9213 2.27568 15.9457C2.64601 15.9695 3.09505 15.9689 3.61846 15.9689V13.5689ZM-1.2 11.1505C-1.2 11.6739 -1.20057 12.1229 -1.17681 12.4932C-1.15241 12.8735 -1.09889 13.2523 -0.953355 13.6285L1.28498 12.7626C1.2647 12.7102 1.23532 12.6053 1.21826 12.3396C1.20057 12.0639 1.2 11.7047 1.2 11.1505H-1.2ZM2.00636 13.484C1.67506 13.3558 1.41315 13.0939 1.28498 12.7626L-0.953355 13.6285C-0.581347 14.5901 0.178832 15.3503 1.14042 15.7223L2.00636 13.484Z" fill="white" mask="url(#path-1-inside-1_1124_762)"/>
</svg>
