<svg width="24" height="24" viewBox="0 0 24 24" fill="none" xmlns="http://www.w3.org/2000/svg">
<g id="settings">
<path id="Vector" d="M19.4318 12.98C19.4718 12.66 19.5018 12.34 19.5018 12C19.5018 11.66 19.4718 11.34 19.4318 11.02L21.5418 9.37C21.7318 9.22 21.7818 8.95 21.6618 8.73L19.6618 5.27C19.5718 5.11 19.4018 5.02 19.2218 5.02C19.1618 5.02 19.1018 5.03 19.0518 5.05L16.5618 6.05C16.0418 5.65 15.4818 5.32 14.8718 5.07L14.4918 2.42C14.4618 2.18 14.2518 2 14.0018 2H10.0018C9.75179 2 9.54179 2.18 9.51179 2.42L9.13179 5.07C8.52179 5.32 7.96179 5.66 7.44179 6.05L4.95179 5.05C4.89179 5.03 4.83179 5.02 4.77179 5.02C4.60179 5.02 4.43179 5.11 4.34179 5.27L2.34179 8.73C2.21179 8.95 2.27179 9.22 2.46179 9.37L4.57179 11.02C4.53179 11.34 4.50179 11.67 4.50179 12C4.50179 12.33 4.53179 12.66 4.57179 12.98L2.46179 14.63C2.27179 14.78 2.22179 15.05 2.34179 15.27L4.34179 18.73C4.43179 18.89 4.60179 18.98 4.78179 18.98C4.84179 18.98 4.90179 18.97 4.95179 18.95L7.44179 17.95C7.96179 18.35 8.52179 18.68 9.13179 18.93L9.51179 21.58C9.54179 21.82 9.75179 22 10.0018 22H14.0018C14.2518 22 14.4618 21.82 14.4918 21.58L14.8718 18.93C15.4818 18.68 16.0418 18.34 16.5618 17.95L19.0518 18.95C19.1118 18.97 19.1718 18.98 19.2318 18.98C19.4018 18.98 19.5718 18.89 19.6618 18.73L21.6618 15.27C21.7818 15.05 21.7318 14.78 21.5418 14.63L19.4318 12.98ZM17.4518 11.27C17.4918 11.58 17.5018 11.79 17.5018 12C17.5018 12.21 17.4818 12.43 17.4518 12.73L17.3118 13.86L18.2018 14.56L19.2818 15.4L18.5818 16.61L17.3118 16.1L16.2718 15.68L15.3718 16.36C14.9418 16.68 14.5318 16.92 14.1218 17.09L13.0618 17.52L12.9018 18.65L12.7018 20H11.3018L10.9518 17.52L9.89179 17.09C9.46179 16.91 9.06179 16.68 8.66179 16.38L7.75179 15.68L6.69179 16.11L5.42179 16.62L4.72179 15.41L5.80179 14.57L6.69179 13.87L6.55179 12.74C6.52179 12.43 6.50179 12.2 6.50179 12C6.50179 11.8 6.52179 11.57 6.55179 11.27L6.69179 10.14L5.80179 9.44L4.72179 8.6L5.42179 7.39L6.69179 7.9L7.73179 8.32L8.63179 7.64C9.06179 7.32 9.47179 7.08 9.88179 6.91L10.9418 6.48L11.1018 5.35L11.3018 4H12.6918L13.0418 6.48L14.1018 6.91C14.5318 7.09 14.9318 7.32 15.3318 7.62L16.2418 8.32L17.3018 7.89L18.5718 7.38L19.2718 8.59L18.2018 9.44L17.3118 10.14L17.4518 11.27ZM12.0018 8C9.79179 8 8.00179 9.79 8.00179 12C8.00179 14.21 9.79179 16 12.0018 16C14.2118 16 16.0018 14.21 16.0018 12C16.0018 9.79 14.2118 8 12.0018 8ZM12.0018 14C10.9018 14 10.0018 13.1 10.0018 12C10.0018 10.9 10.9018 10 12.0018 10C13.1018 10 14.0018 10.9 14.0018 12C14.0018 13.1 13.1018 14 12.0018 14Z" fill="white"/>
</g>
</svg>
