<svg width="46" height="46" viewBox="0 0 46 46" fill="none" xmlns="http://www.w3.org/2000/svg">
<rect x="1.5" y="1.5" width="43" height="43" rx="21.5" fill="white"/>
<rect x="1.5" y="1.5" width="43" height="43" rx="21.5" stroke="#FAFAFA" stroke-width="3"/>
<path d="M14 27C14 26.45 14.45 26 15 26H29C29.55 26 30 26.45 30 27V31C30 31.55 29.55 32 29 32H15C14.45 32 14 31.55 14 31V27Z" fill="#353F9B"/>
<path d="M14 15C14 14.45 14.45 14 15 14H29C29.55 14 30 14.45 30 15V19C30 19.55 29.55 20 29 20H15C14.45 20 14 19.55 14 19V15Z" fill="#353F9B"/>
<path d="M16 21C16 20.45 16.45 20 17 20H31C31.55 20 32 20.45 32 21V25C32 25.55 31.55 26 31 26H17C16.45 26 16 25.55 16 25V21Z" fill="#D9D9D9"/>
<path d="M26 23C26 22.45 26.45 22 27 22H30C30.55 22 31 22.45 31 23C31 23.55 30.55 24 30 24H27C26.45 24 26 23.55 26 23Z" fill="#353F9B"/>
<path d="M24 17C24 16.45 24.45 16 25 16H28C28.55 16 29 16.45 29 17C29 17.55 28.55 18 28 18H25C24.45 18 24 17.55 24 17Z" fill="#D9D9D9"/>
<path d="M24 29C24 28.45 24.45 28 25 28H28C28.55 28 29 28.45 29 29C29 29.55 28.55 30 28 30H25C24.45 30 24 29.55 24 29Z" fill="#D9D9D9"/>
</svg>
