<svg width="24" height="24" viewBox="0 0 24 24" fill="none" xmlns="http://www.w3.org/2000/svg">
<path d="M3 16C3 15.45 3.45 15 4 15H18C18.55 15 19 15.45 19 16V20C19 20.55 18.55 21 18 21H4C3.45 21 3 20.55 3 20V16Z" fill="#D9D9D9"/>
<path d="M3 4C3 3.45 3.45 3 4 3H18C18.55 3 19 3.45 19 4V8C19 8.55 18.55 9 18 9H4C3.45 9 3 8.55 3 8V4Z" fill="#D9D9D9"/>
<path d="M5 10C5 9.45 5.45 9 6 9H20C20.55 9 21 9.45 21 10V14C21 14.55 20.55 15 20 15H6C5.45 15 5 14.55 5 14V10Z" fill="#556480"/>
<path d="M15 12C15 11.45 15.45 11 16 11H19C19.55 11 20 11.45 20 12C20 12.55 19.55 13 19 13H16C15.45 13 15 12.55 15 12Z" fill="#D9D9D9"/>
<path d="M13 6C13 5.45 13.45 5 14 5H17C17.55 5 18 5.45 18 6C18 6.55 17.55 7 17 7H14C13.45 7 13 6.55 13 6Z" fill="#556480"/>
<path d="M13 18C13 17.45 13.45 17 14 17H17C17.55 17 18 17.45 18 18C18 18.55 17.55 19 17 19H14C13.45 19 13 18.55 13 18Z" fill="#556480"/>
</svg>
