<svg width="24" height="24" viewBox="0 0 24 24" fill="none" xmlns="http://www.w3.org/2000/svg">
<path d="M3.1001 4.1C3.1001 3.5 3.5001 3 4.1001 3H19.9001C20.5001 3 21.0001 3.5 20.9001 4.1L20.0001 12H4.0001L3.1001 4.1Z" fill="#D9D9D9"/>
<path d="M4.1001 5.1C4.1001 4.5 4.5001 4 5.1001 4H18.9001C19.5001 4 20.0001 4.5 19.9001 5.1L19.1001 12H4.9001L4.1001 5.1Z" fill="#353F9B"/>
<path d="M4.00021 12H20.0002L20.9002 19.9C21.0002 20.5 20.5002 21 19.9002 21H4.10021C3.50021 21 3.00021 20.5 3.10021 19.9L4.00021 12Z" fill="#D9D9D9"/>
<path d="M8.5 19H15.5C15.8 19 16 19.2 16 19.5C16 19.8 15.8 20 15.5 20H8.5C8.2 20 8 19.8 8 19.5C8 19.2 8.2 19 8.5 19Z" fill="#353F9B"/>
</svg>
