<svg width="46" height="46" viewBox="0 0 46 46" fill="none" xmlns="http://www.w3.org/2000/svg">
<rect x="1.5" y="1.5" width="43" height="43" rx="21.5" fill="white"/>
<rect x="1.5" y="1.5" width="43" height="43" rx="21.5" stroke="#FAFAFA" stroke-width="3"/>
<path d="M14.1 15.1C14.1 14.5 14.5 14 15.1 14H30.9C31.5 14 32 14.5 31.9 15.1L31 23H15L14.1 15.1Z" fill="#D9D9D9"/>
<path d="M15.1 16.1C15.1 15.5 15.5 15 16.1 15H29.9C30.5 15 31 15.5 30.9 16.1L30.1 23H15.9L15.1 16.1Z" fill="#353F9B"/>
<path d="M15 23H31L31.9 30.9C32 31.5 31.5 32 30.9 32H15.1C14.5 32 14 31.5 14.1 30.9L15 23Z" fill="#D9D9D9"/>
<path d="M19.5 30H26.5C26.8 30 27 30.2 27 30.5C27 30.8 26.8 31 26.5 31H19.5C19.2 31 19 30.8 19 30.5C19 30.2 19.2 30 19.5 30Z" fill="#353F9B"/>
</svg>
