<svg width="16" height="16" viewBox="0 0 16 16" fill="none" xmlns="http://www.w3.org/2000/svg">
<path d="M10 8.00008C11.4734 8.00008 12.6667 6.80675 12.6667 5.33341C12.6667 3.86008 11.4734 2.66675 10 2.66675C8.52669 2.66675 7.33335 3.86008 7.33335 5.33341C7.33335 6.80675 8.52669 8.00008 10 8.00008ZM10 4.00008C10.7334 4.00008 11.3334 4.60008 11.3334 5.33341C11.3334 6.06675 10.7334 6.66675 10 6.66675C9.26669 6.66675 8.66669 6.06675 8.66669 5.33341C8.66669 4.60008 9.26669 4.00008 10 4.00008ZM10 9.33341C8.22002 9.33341 4.66669 10.2267 4.66669 12.0001V13.3334H15.3334V12.0001C15.3334 10.2267 11.78 9.33341 10 9.33341ZM6.00002 12.0001C6.14669 11.5201 8.20669 10.6667 10 10.6667C11.8 10.6667 13.8667 11.5267 14 12.0001H6.00002ZM4.00002 10.0001V8.00008H6.00002V6.66675H4.00002V4.66675H2.66669V6.66675H0.666687V8.00008H2.66669V10.0001H4.00002Z" fill="#525866"/>
</svg>
