<svg width="16" height="16" viewBox="0 0 16 16" fill="none" xmlns="http://www.w3.org/2000/svg">
<mask id="path-1-inside-1_376_7126" fill="white">
<rect x="2" y="3" width="12" height="11" rx="1"/>
</mask>
<rect x="2" y="3" width="12" height="11" rx="1" stroke="#525866" stroke-width="2.4" mask="url(#path-1-inside-1_376_7126)"/>
<path d="M2.5 6H13.5" stroke="#525866" stroke-width="1.2"/>
<path d="M5.1 2C5.1 1.66863 4.83137 1.4 4.5 1.4C4.16863 1.4 3.9 1.66863 3.9 2H5.1ZM5.1 3.5V2H3.9V3.5H5.1Z" fill="#525866"/>
<path d="M12.1 2C12.1 1.66863 11.8314 1.4 11.5 1.4C11.1686 1.4 10.9 1.66863 10.9 2H12.1ZM12.1 3.5V2H10.9V3.5H12.1Z" fill="#525866"/>
<rect x="4" y="7" width="3" height="2" rx="0.6" fill="#525866"/>
</svg>
