<svg width="16" height="16" viewBox="0 0 16 16" fill="none" xmlns="http://www.w3.org/2000/svg">
<path d="M0.820312 14.8467L10.1536 11.5133L4.15365 5.51332L0.820312 14.8467ZM7.72031 10.9667L3.02031 12.6467L4.70031 7.94665L7.72031 10.9667Z" fill="white"/>
<path d="M9.17365 8.53332L12.9003 4.80665C13.227 4.47999 13.7536 4.47999 14.0803 4.80665L14.4736 5.19999L15.1803 4.49332L14.787 4.09999C14.0736 3.38665 12.907 3.38665 12.1936 4.09999L8.46698 7.82665L9.17365 8.53332Z" fill="white"/>
<path d="M6.19365 4.76665L5.80031 5.15999L6.50698 5.86665L6.90031 5.47332C7.61365 4.75999 7.61365 3.59332 6.90031 2.87999L6.50698 2.48665L5.80031 3.19999L6.19365 3.59332C6.51365 3.91332 6.51365 4.44665 6.19365 4.76665Z" fill="white"/>
<path d="M10.8603 8.09999L9.80031 9.15999L10.507 9.86665L11.567 8.80665C11.8936 8.47999 12.4203 8.47999 12.747 8.80665L13.8203 9.87999L14.527 9.17332L13.4536 8.09999C12.7336 7.38665 11.5736 7.38665 10.8603 8.09999Z" fill="white"/>
<path d="M9.52698 4.09999L7.13365 6.49332L7.84031 7.19999L10.2336 4.80665C10.947 4.09332 10.947 2.92665 10.2336 2.21332L9.17365 1.15332L8.46698 1.85999L9.52698 2.91999C9.84698 3.24665 9.84698 3.77999 9.52698 4.09999Z" fill="white"/>
</svg>
