<svg width="16" height="16" viewBox="0 0 16 16" fill="none" xmlns="http://www.w3.org/2000/svg">
<path d="M9.33334 2.66668V6.00001C9.33334 6.74668 9.58 7.44001 10 8.00001H6C6.43334 7.42668 6.66667 6.73334 6.66667 6.00001V2.66668H9.33334ZM11.3333 1.33334H4.66667C4.3 1.33334 4 1.63334 4 2.00001C4 2.36668 4.3 2.66668 4.66667 2.66668H5.33334V6.00001C5.33334 7.10668 4.44 8.00001 3.33334 8.00001V9.33334H7.31334V14L7.98 14.6667L8.64667 14V9.33334H12.6667V8.00001C11.56 8.00001 10.6667 7.10668 10.6667 6.00001V2.66668H11.3333C11.7 2.66668 12 2.36668 12 2.00001C12 1.63334 11.7 1.33334 11.3333 1.33334Z" fill="white"/>
</svg>
