<svg width="16" height="16" viewBox="0 0 16 16" fill="none" xmlns="http://www.w3.org/2000/svg">
<path d="M1.99999 4.00004V2.66671C1.99999 2.29852 2.29847 2.00004 2.66666 2.00004H10C10.3682 2.00004 10.6667 2.29852 10.6667 2.66671V4.00004C10.6667 4.36823 10.3682 4.66671 10 4.66671H2.66666C2.29847 4.66671 1.99999 4.36823 1.99999 4.00004Z" stroke="#525866" stroke-width="1.33333"/>
<path d="M5.33334 8.66667V7.33333C5.33334 6.96514 5.63182 6.66667 6.00001 6.66667H14C14.3682 6.66667 14.6667 6.96514 14.6667 7.33333V8.66667C14.6667 9.03486 14.3682 9.33333 14 9.33333H6.00001C5.63182 9.33333 5.33334 9.03486 5.33334 8.66667Z" stroke="#525866" stroke-width="1.33333"/>
<path d="M2.66667 13.3333V12C2.66667 11.6318 2.96514 11.3333 3.33333 11.3333H10.6667C11.0349 11.3333 11.3333 11.6318 11.3333 12V13.3333C11.3333 13.7015 11.0349 14 10.6667 14H3.33333C2.96514 14 2.66667 13.7015 2.66667 13.3333Z" stroke="#525866" stroke-width="1.33333"/>
</svg>
