<svg width="28" height="28" viewBox="0 0 28 28" fill="none" xmlns="http://www.w3.org/2000/svg">
<g id="tiki_logo">
<path id="Vector" d="M21.1218 15.1774C20.0396 15.1774 19.1618 16.0552 19.1618 17.1374C19.1618 19.4824 17.255 21.3892 14.91 21.3892C12.565 21.3892 10.6582 19.4824 10.6582 17.1374V4.6508C10.6582 3.5686 9.78039 2.6908 8.69819 2.6908C7.61599 2.6908 6.73819 3.5686 6.73819 4.6508V7.0686H4.02079C2.93859 7.0686 2.06079 7.9464 2.06079 9.0286C2.06079 10.1108 2.93859 10.9886 4.02079 10.9886H6.73819V17.1374C6.73819 21.6426 10.4034 25.3092 14.91 25.3092C19.4166 25.3092 23.0818 21.644 23.0818 17.1374C23.0818 16.0552 22.204 15.1774 21.1218 15.1774Z" fill="#6D77FF"/>
<path id="Vector_2" d="M22.1017 11.5892L19.0469 8.57779C18.8691 8.40279 18.8691 8.11719 19.0469 7.94219L22.1017 4.93079" fill="white"/>
<path id="Vector_3" d="M22.1017 13.5492C21.6047 13.5492 21.1077 13.3616 20.7255 12.985L17.6707 9.97363C17.2087 9.51723 16.9539 8.90963 16.9539 8.26003C16.9539 7.61043 17.2087 7.00143 17.6707 6.54643L20.7255 3.53503C21.4969 2.77483 22.7373 2.78463 23.4975 3.55463C24.2577 4.32603 24.2493 5.56643 23.4779 6.32663L21.5165 8.26003L23.4779 10.1934C24.2493 10.9536 24.2577 12.194 23.4975 12.9654C23.1139 13.3546 22.6085 13.5492 22.1017 13.5492Z" fill="#6D77FF"/>
</g>
</svg>
