<svg width="16" height="16" viewBox="0 0 16 16" fill="none" xmlns="http://www.w3.org/2000/svg">
<path d="M8.00016 8.66658C8.36835 8.66658 8.66683 8.36811 8.66683 7.99992C8.66683 7.63173 8.36835 7.33325 8.00016 7.33325C7.63197 7.33325 7.3335 7.63173 7.3335 7.99992C7.3335 8.36811 7.63197 8.66658 8.00016 8.66658Z" fill="#909090" stroke="#909090" stroke-width="2" stroke-linecap="round" stroke-linejoin="round"/>
<path d="M8.00016 4.00008C8.36835 4.00008 8.66683 3.7016 8.66683 3.33341C8.66683 2.96522 8.36835 2.66675 8.00016 2.66675C7.63197 2.66675 7.3335 2.96522 7.3335 3.33341C7.3335 3.7016 7.63197 4.00008 8.00016 4.00008Z" fill="#909090" stroke="#909090" stroke-width="2" stroke-linecap="round" stroke-linejoin="round"/>
<path d="M8.00016 13.3333C8.36835 13.3333 8.66683 13.0349 8.66683 12.6667C8.66683 12.2985 8.36835 12 8.00016 12C7.63197 12 7.3335 12.2985 7.3335 12.6667C7.3335 13.0349 7.63197 13.3333 8.00016 13.3333Z" fill="#909090" stroke="#909090" stroke-width="2" stroke-linecap="round" stroke-linejoin="round"/>
</svg>
